STARTFONT 2.1
COMMENT
COMMENT Converted from OpenType font "C64_Pro_Mono-STYLE.ttf" by "otf2bdf 3.0".
COMMENT
FONT -FreeType-C64 Pro Mono-Medium-R-Normal--8-60-100-100-P-71-ISO10646-1
SIZE 6 100 100
FONTBOUNDINGBOX 8 9 0 -1
STARTPROPERTIES 19
FOUNDRY "FreeType"
FAMILY_NAME "C64 Pro Mono"
WEIGHT_NAME "Medium"
SLANT "R"
SETWIDTH_NAME "Normal"
ADD_STYLE_NAME ""
PIXEL_SIZE 8
POINT_SIZE 60
RESOLUTION_X 100
RESOLUTION_Y 100
SPACING "P"
AVERAGE_WIDTH 71
CHARSET_REGISTRY "ISO10646"
CHARSET_ENCODING "1"
FONT_ASCENT 7
FONT_DESCENT 1
COPYRIGHT "(c) 2010-2019, Style. (http://style64.org)"
_OTF_FONTFILE "C64_Pro_Mono-STYLE.ttf"
_OTF_PSNAME "C64ProMono"
ENDPROPERTIES
CHARS 1496
STARTCHAR 0000
ENCODING 0
SWIDTH 0 0
DWIDTH 0 0
BBX 0 0 0 0
BITMAP
ENDCHAR
STARTCHAR 0003
ENCODING 3
SWIDTH 960 0
DWIDTH 8 0
BBX 7 7 1 0
BITMAP
6C
FE
FE
FE
7C
38
10
ENDCHAR
STARTCHAR 0004
ENCODING 4
SWIDTH 960 0
DWIDTH 8 0
BBX 7 7 1 0
BITMAP
10
38
7C
FE
7C
38
10
ENDCHAR
STARTCHAR 0005
ENCODING 5
SWIDTH 960 0
DWIDTH 8 0
BBX 6 7 1 0
BITMAP
30
30
CC
CC
30
30
78
ENDCHAR
STARTCHAR 0006
ENCODING 6
SWIDTH 960 0
DWIDTH 8 0
BBX 7 7 1 0
BITMAP
10
38
7C
FE
FE
38
7C
ENDCHAR
STARTCHAR 0018
ENCODING 24
SWIDTH 960 0
DWIDTH 8 0
BBX 6 7 1 -1
BITMAP
30
78
FC
30
30
30
30
ENDCHAR
STARTCHAR 001B
ENCODING 27
SWIDTH 960 0
DWIDTH 8 0
BBX 7 6 1 0
BITMAP
20
60
FE
FE
60
20
ENDCHAR
STARTCHAR 001D
ENCODING 29
SWIDTH 0 0
DWIDTH 0 0
BBX 0 0 0 0
BITMAP
ENDCHAR
STARTCHAR 0020
ENCODING 32
SWIDTH 960 0
DWIDTH 8 0
BBX 0 0 0 0
BITMAP
ENDCHAR
STARTCHAR 0021
ENCODING 33
SWIDTH 960 0
DWIDTH 8 0
BBX 2 7 3 0
BITMAP
C0
C0
C0
C0
00
00
C0
ENDCHAR
STARTCHAR 0022
ENCODING 34
SWIDTH 960 0
DWIDTH 8 0
BBX 6 3 1 4
BITMAP
CC
CC
CC
ENDCHAR
STARTCHAR 0023
ENCODING 35
SWIDTH 960 0
DWIDTH 8 0
BBX 8 7 0 0
BITMAP
66
66
FF
66
FF
66
66
ENDCHAR
STARTCHAR 0024
ENCODING 36
SWIDTH 960 0
DWIDTH 8 0
BBX 6 7 1 0
BITMAP
30
7C
C0
78
0C
F8
30
ENDCHAR
STARTCHAR 0025
ENCODING 37
SWIDTH 960 0
DWIDTH 8 0
BBX 6 7 1 0
BITMAP
C4
CC
18
30
60
CC
8C
ENDCHAR
STARTCHAR 0026
ENCODING 38
SWIDTH 960 0
DWIDTH 8 0
BBX 7 7 1 0
BITMAP
78
CC
78
70
CE
CC
7E
ENDCHAR
STARTCHAR 0027
ENCODING 39
SWIDTH 960 0
DWIDTH 8 0
BBX 4 3 3 4
BITMAP
30
60
C0
ENDCHAR
STARTCHAR 0028
ENCODING 40
SWIDTH 960 0
DWIDTH 8 0
BBX 4 7 2 0
BITMAP
30
60
C0
C0
C0
60
30
ENDCHAR
STARTCHAR 0029
ENCODING 41
SWIDTH 960 0
DWIDTH 8 0
BBX 4 7 2 0
BITMAP
C0
60
30
30
30
60
C0
ENDCHAR
STARTCHAR 002A
ENCODING 42
SWIDTH 960 0
DWIDTH 8 0
BBX 8 5 0 1
BITMAP
66
3C
FF
3C
66
ENDCHAR
STARTCHAR 002B
ENCODING 43
SWIDTH 960 0
DWIDTH 8 0
BBX 6 5 1 1
BITMAP
30
30
FC
30
30
ENDCHAR
STARTCHAR 002C
ENCODING 44
SWIDTH 960 0
DWIDTH 8 0
BBX 3 3 2 -1
BITMAP
60
60
C0
ENDCHAR
STARTCHAR 002D
ENCODING 45
SWIDTH 960 0
DWIDTH 8 0
BBX 6 1 1 3
BITMAP
FC
ENDCHAR
STARTCHAR 002E
ENCODING 46
SWIDTH 960 0
DWIDTH 8 0
BBX 2 2 3 0
BITMAP
C0
C0
ENDCHAR
STARTCHAR 002F
ENCODING 47
SWIDTH 960 0
DWIDTH 8 0
BBX 7 6 1 0
BITMAP
06
0C
18
30
60
C0
ENDCHAR
STARTCHAR 0030
ENCODING 48
SWIDTH 960 0
DWIDTH 8 0
BBX 6 7 1 0
BITMAP
78
CC
DC
EC
CC
CC
78
ENDCHAR
STARTCHAR 0031
ENCODING 49
SWIDTH 960 0
DWIDTH 8 0
BBX 6 7 1 0
BITMAP
30
30
70
30
30
30
FC
ENDCHAR
STARTCHAR 0032
ENCODING 50
SWIDTH 960 0
DWIDTH 8 0
BBX 6 7 1 0
BITMAP
78
CC
0C
18
60
C0
FC
ENDCHAR
STARTCHAR 0033
ENCODING 51
SWIDTH 960 0
DWIDTH 8 0
BBX 6 7 1 0
BITMAP
78
CC
0C
38
0C
CC
78
ENDCHAR
STARTCHAR 0034
ENCODING 52
SWIDTH 960 0
DWIDTH 8 0
BBX 7 7 1 0
BITMAP
0C
1C
3C
CC
FE
0C
0C
ENDCHAR
STARTCHAR 0035
ENCODING 53
SWIDTH 960 0
DWIDTH 8 0
BBX 6 7 1 0
BITMAP
FC
C0
F8
0C
0C
CC
78
ENDCHAR
STARTCHAR 0036
ENCODING 54
SWIDTH 960 0
DWIDTH 8 0
BBX 6 7 1 0
BITMAP
78
CC
C0
F8
CC
CC
78
ENDCHAR
STARTCHAR 0037
ENCODING 55
SWIDTH 960 0
DWIDTH 8 0
BBX 6 7 1 0
BITMAP
FC
CC
18
30
30
30
30
ENDCHAR
STARTCHAR 0038
ENCODING 56
SWIDTH 960 0
DWIDTH 8 0
BBX 6 7 1 0
BITMAP
78
CC
CC
78
CC
CC
78
ENDCHAR
STARTCHAR 0039
ENCODING 57
SWIDTH 960 0
DWIDTH 8 0
BBX 6 7 1 0
BITMAP
78
CC
CC
7C
0C
CC
78
ENDCHAR
STARTCHAR 003A
ENCODING 58
SWIDTH 960 0
DWIDTH 8 0
BBX 2 4 3 1
BITMAP
C0
00
00
C0
ENDCHAR
STARTCHAR 003B
ENCODING 59
SWIDTH 960 0
DWIDTH 8 0
BBX 3 6 2 -1
BITMAP
60
00
00
60
60
C0
ENDCHAR
STARTCHAR 003C
ENCODING 60
SWIDTH 960 0
DWIDTH 8 0
BBX 6 7 1 0
BITMAP
1C
30
60
C0
60
30
1C
ENDCHAR
STARTCHAR 003D
ENCODING 61
SWIDTH 960 0
DWIDTH 8 0
BBX 6 3 1 2
BITMAP
FC
00
FC
ENDCHAR
STARTCHAR 003E
ENCODING 62
SWIDTH 960 0
DWIDTH 8 0
BBX 6 7 1 0
BITMAP
E0
30
18
0C
18
30
E0
ENDCHAR
STARTCHAR 003F
ENCODING 63
SWIDTH 960 0
DWIDTH 8 0
BBX 6 7 1 0
BITMAP
78
CC
0C
18
30
00
30
ENDCHAR
STARTCHAR 0040
ENCODING 64
SWIDTH 960 0
DWIDTH 8 0
BBX 6 7 1 0
BITMAP
78
CC
DC
DC
C0
C4
78
ENDCHAR
STARTCHAR 0041
ENCODING 65
SWIDTH 960 0
DWIDTH 8 0
BBX 6 7 1 0
BITMAP
30
78
CC
FC
CC
CC
CC
ENDCHAR
STARTCHAR 0042
ENCODING 66
SWIDTH 960 0
DWIDTH 8 0
BBX 6 7 1 0
BITMAP
F8
CC
CC
F8
CC
CC
F8
ENDCHAR
STARTCHAR 0043
ENCODING 67
SWIDTH 960 0
DWIDTH 8 0
BBX 6 7 1 0
BITMAP
78
CC
C0
C0
C0
CC
78
ENDCHAR
STARTCHAR 0044
ENCODING 68
SWIDTH 960 0
DWIDTH 8 0
BBX 6 7 1 0
BITMAP
F0
D8
CC
CC
CC
D8
F0
ENDCHAR
STARTCHAR 0045
ENCODING 69
SWIDTH 960 0
DWIDTH 8 0
BBX 6 7 1 0
BITMAP
FC
C0
C0
F0
C0
C0
FC
ENDCHAR
STARTCHAR 0046
ENCODING 70
SWIDTH 960 0
DWIDTH 8 0
BBX 6 7 1 0
BITMAP
FC
C0
C0
F0
C0
C0
C0
ENDCHAR
STARTCHAR 0047
ENCODING 71
SWIDTH 960 0
DWIDTH 8 0
BBX 6 7 1 0
BITMAP
78
CC
C0
DC
CC
CC
78
ENDCHAR
STARTCHAR 0048
ENCODING 72
SWIDTH 960 0
DWIDTH 8 0
BBX 6 7 1 0
BITMAP
CC
CC
CC
FC
CC
CC
CC
ENDCHAR
STARTCHAR 0049
ENCODING 73
SWIDTH 960 0
DWIDTH 8 0
BBX 4 7 2 0
BITMAP
F0
60
60
60
60
60
F0
ENDCHAR
STARTCHAR 004A
ENCODING 74
SWIDTH 960 0
DWIDTH 8 0
BBX 6 7 1 0
BITMAP
3C
18
18
18
18
D8
70
ENDCHAR
STARTCHAR 004B
ENCODING 75
SWIDTH 960 0
DWIDTH 8 0
BBX 6 7 1 0
BITMAP
CC
D8
F0
E0
F0
D8
CC
ENDCHAR
STARTCHAR 004C
ENCODING 76
SWIDTH 960 0
DWIDTH 8 0
BBX 6 7 1 0
BITMAP
C0
C0
C0
C0
C0
C0
FC
ENDCHAR
STARTCHAR 004D
ENCODING 77
SWIDTH 960 0
DWIDTH 8 0
BBX 7 7 1 0
BITMAP
C6
EE
FE
D6
C6
C6
C6
ENDCHAR
STARTCHAR 004E
ENCODING 78
SWIDTH 960 0
DWIDTH 8 0
BBX 6 7 1 0
BITMAP
CC
EC
FC
FC
DC
CC
CC
ENDCHAR
STARTCHAR 004F
ENCODING 79
SWIDTH 960 0
DWIDTH 8 0
BBX 6 7 1 0
BITMAP
78
CC
CC
CC
CC
CC
78
ENDCHAR
STARTCHAR 0050
ENCODING 80
SWIDTH 960 0
DWIDTH 8 0
BBX 6 7 1 0
BITMAP
F8
CC
CC
F8
C0
C0
C0
ENDCHAR
STARTCHAR 0051
ENCODING 81
SWIDTH 960 0
DWIDTH 8 0
BBX 6 7 1 0
BITMAP
78
CC
CC
CC
CC
78
1C
ENDCHAR
STARTCHAR 0052
ENCODING 82
SWIDTH 960 0
DWIDTH 8 0
BBX 6 7 1 0
BITMAP
F8
CC
CC
F8
F0
D8
CC
ENDCHAR
STARTCHAR 0053
ENCODING 83
SWIDTH 960 0
DWIDTH 8 0
BBX 6 7 1 0
BITMAP
78
CC
C0
78
0C
CC
78
ENDCHAR
STARTCHAR 0054
ENCODING 84
SWIDTH 960 0
DWIDTH 8 0
BBX 6 7 1 0
BITMAP
FC
30
30
30
30
30
30
ENDCHAR
STARTCHAR 0055
ENCODING 85
SWIDTH 960 0
DWIDTH 8 0
BBX 6 7 1 0
BITMAP
CC
CC
CC
CC
CC
CC
78
ENDCHAR
STARTCHAR 0056
ENCODING 86
SWIDTH 960 0
DWIDTH 8 0
BBX 6 7 1 0
BITMAP
CC
CC
CC
CC
CC
78
30
ENDCHAR
STARTCHAR 0057
ENCODING 87
SWIDTH 960 0
DWIDTH 8 0
BBX 7 7 1 0
BITMAP
C6
C6
C6
D6
FE
EE
C6
ENDCHAR
STARTCHAR 0058
ENCODING 88
SWIDTH 960 0
DWIDTH 8 0
BBX 6 7 1 0
BITMAP
CC
CC
78
30
78
CC
CC
ENDCHAR
STARTCHAR 0059
ENCODING 89
SWIDTH 960 0
DWIDTH 8 0
BBX 6 7 1 0
BITMAP
CC
CC
CC
78
30
30
30
ENDCHAR
STARTCHAR 005A
ENCODING 90
SWIDTH 960 0
DWIDTH 8 0
BBX 6 7 1 0
BITMAP
FC
0C
18
30
60
C0
FC
ENDCHAR
STARTCHAR 005B
ENCODING 91
SWIDTH 960 0
DWIDTH 8 0
BBX 4 7 2 0
BITMAP
F0
C0
C0
C0
C0
C0
F0
ENDCHAR
STARTCHAR 005C
ENCODING 92
SWIDTH 960 0
DWIDTH 8 0
BBX 7 6 1 0
BITMAP
C0
60
30
18
0C
06
ENDCHAR
STARTCHAR 005D
ENCODING 93
SWIDTH 960 0
DWIDTH 8 0
BBX 4 7 2 0
BITMAP
F0
30
30
30
30
30
F0
ENDCHAR
STARTCHAR 005E
ENCODING 94
SWIDTH 960 0
DWIDTH 8 0
BBX 7 5 1 2
BITMAP
10
38
6C
C6
82
ENDCHAR
STARTCHAR 005F
ENCODING 95
SWIDTH 960 0
DWIDTH 8 0
BBX 8 1 0 -1
BITMAP
FF
ENDCHAR
STARTCHAR 0060
ENCODING 96
SWIDTH 960 0
DWIDTH 8 0
BBX 3 3 2 4
BITMAP
80
40
20
ENDCHAR
STARTCHAR 0061
ENCODING 97
SWIDTH 960 0
DWIDTH 8 0
BBX 6 5 1 0
BITMAP
78
0C
7C
CC
7C
ENDCHAR
STARTCHAR 0062
ENCODING 98
SWIDTH 960 0
DWIDTH 8 0
BBX 6 6 1 0
BITMAP
C0
C0
F8
CC
CC
F8
ENDCHAR
STARTCHAR 0063
ENCODING 99
SWIDTH 960 0
DWIDTH 8 0
BBX 5 5 1 0
BITMAP
78
C0
C0
C0
78
ENDCHAR
STARTCHAR 0064
ENCODING 100
SWIDTH 960 0
DWIDTH 8 0
BBX 6 6 1 0
BITMAP
0C
0C
7C
CC
CC
7C
ENDCHAR
STARTCHAR 0065
ENCODING 101
SWIDTH 960 0
DWIDTH 8 0
BBX 6 5 1 0
BITMAP
78
CC
FC
C0
78
ENDCHAR
STARTCHAR 0066
ENCODING 102
SWIDTH 960 0
DWIDTH 8 0
BBX 5 6 2 0
BITMAP
38
60
F8
60
60
60
ENDCHAR
STARTCHAR 0067
ENCODING 103
SWIDTH 960 0
DWIDTH 8 0
BBX 6 6 1 -1
BITMAP
7C
CC
CC
7C
0C
F8
ENDCHAR
STARTCHAR 0068
ENCODING 104
SWIDTH 960 0
DWIDTH 8 0
BBX 6 6 1 0
BITMAP
C0
C0
F8
CC
CC
CC
ENDCHAR
STARTCHAR 0069
ENCODING 105
SWIDTH 960 0
DWIDTH 8 0
BBX 4 6 2 0
BITMAP
60
00
E0
60
60
F0
ENDCHAR
STARTCHAR 006A
ENCODING 106
SWIDTH 960 0
DWIDTH 8 0
BBX 5 7 2 -1
BITMAP
18
00
18
18
18
18
F0
ENDCHAR
STARTCHAR 006B
ENCODING 107
SWIDTH 960 0
DWIDTH 8 0
BBX 6 6 1 0
BITMAP
C0
C0
D8
F0
D8
CC
ENDCHAR
STARTCHAR 006C
ENCODING 108
SWIDTH 960 0
DWIDTH 8 0
BBX 4 6 2 0
BITMAP
E0
60
60
60
60
F0
ENDCHAR
STARTCHAR 006D
ENCODING 109
SWIDTH 960 0
DWIDTH 8 0
BBX 7 5 1 0
BITMAP
CC
FE
FE
D6
C6
ENDCHAR
STARTCHAR 006E
ENCODING 110
SWIDTH 960 0
DWIDTH 8 0
BBX 6 5 1 0
BITMAP
F8
CC
CC
CC
CC
ENDCHAR
STARTCHAR 006F
ENCODING 111
SWIDTH 960 0
DWIDTH 8 0
BBX 6 5 1 0
BITMAP
78
CC
CC
CC
78
ENDCHAR
STARTCHAR 0070
ENCODING 112
SWIDTH 960 0
DWIDTH 8 0
BBX 6 6 1 -1
BITMAP
F8
CC
CC
F8
C0
C0
ENDCHAR
STARTCHAR 0071
ENCODING 113
SWIDTH 960 0
DWIDTH 8 0
BBX 6 6 1 -1
BITMAP
7C
CC
CC
7C
0C
0C
ENDCHAR
STARTCHAR 0072
ENCODING 114
SWIDTH 960 0
DWIDTH 8 0
BBX 6 5 1 0
BITMAP
F8
CC
C0
C0
C0
ENDCHAR
STARTCHAR 0073
ENCODING 115
SWIDTH 960 0
DWIDTH 8 0
BBX 6 5 1 0
BITMAP
7C
C0
78
0C
F8
ENDCHAR
STARTCHAR 0074
ENCODING 116
SWIDTH 960 0
DWIDTH 8 0
BBX 6 6 1 0
BITMAP
30
FC
30
30
30
1C
ENDCHAR
STARTCHAR 0075
ENCODING 117
SWIDTH 960 0
DWIDTH 8 0
BBX 6 5 1 0
BITMAP
CC
CC
CC
CC
7C
ENDCHAR
STARTCHAR 0076
ENCODING 118
SWIDTH 960 0
DWIDTH 8 0
BBX 6 5 1 0
BITMAP
CC
CC
CC
78
30
ENDCHAR
STARTCHAR 0077
ENCODING 119
SWIDTH 960 0
DWIDTH 8 0
BBX 7 5 1 0
BITMAP
C6
D6
FE
7C
6C
ENDCHAR
STARTCHAR 0078
ENCODING 120
SWIDTH 960 0
DWIDTH 8 0
BBX 6 5 1 0
BITMAP
CC
78
30
78
CC
ENDCHAR
STARTCHAR 0079
ENCODING 121
SWIDTH 960 0
DWIDTH 8 0
BBX 6 6 1 -1
BITMAP
CC
CC
CC
7C
18
F0
ENDCHAR
STARTCHAR 007A
ENCODING 122
SWIDTH 960 0
DWIDTH 8 0
BBX 6 5 1 0
BITMAP
FC
18
30
60
FC
ENDCHAR
STARTCHAR 007B
ENCODING 123
SWIDTH 960 0
DWIDTH 8 0
BBX 4 7 2 0
BITMAP
30
60
60
C0
60
60
30
ENDCHAR
STARTCHAR 007C
ENCODING 124
SWIDTH 960 0
DWIDTH 8 0
BBX 2 8 3 -1
BITMAP
C0
C0
C0
C0
C0
C0
C0
C0
ENDCHAR
STARTCHAR 007D
ENCODING 125
SWIDTH 960 0
DWIDTH 8 0
BBX 4 7 2 0
BITMAP
C0
60
60
30
60
60
C0
ENDCHAR
STARTCHAR 007E
ENCODING 126
SWIDTH 960 0
DWIDTH 8 0
BBX 7 2 1 2
BITMAP
72
9C
ENDCHAR
STARTCHAR 00A0
ENCODING 160
SWIDTH 960 0
DWIDTH 8 0
BBX 0 0 0 0
BITMAP
ENDCHAR
STARTCHAR 00A3
ENCODING 163
SWIDTH 960 0
DWIDTH 8 0
BBX 7 7 0 0
BITMAP
0C
12
30
7C
30
62
FC
ENDCHAR
STARTCHAR 00B2
ENCODING 178
SWIDTH 960 0
DWIDTH 8 0
BBX 8 8 0 -1
BITMAP
CC
CC
33
33
CC
CC
33
33
ENDCHAR
STARTCHAR 00B3
ENCODING 179
SWIDTH 960 0
DWIDTH 8 0
BBX 2 8 3 -1
BITMAP
C0
C0
C0
C0
C0
C0
C0
C0
ENDCHAR
STARTCHAR 00B4
ENCODING 180
SWIDTH 960 0
DWIDTH 8 0
BBX 5 8 0 -1
BITMAP
18
18
18
F8
F8
18
18
18
ENDCHAR
STARTCHAR 00BF
ENCODING 191
SWIDTH 960 0
DWIDTH 8 0
BBX 5 5 0 -1
BITMAP
F8
F8
18
18
18
ENDCHAR
STARTCHAR 00C0
ENCODING 192
SWIDTH 960 0
DWIDTH 8 0
BBX 5 5 3 2
BITMAP
C0
C0
C0
F8
F8
ENDCHAR
STARTCHAR 00C1
ENCODING 193
SWIDTH 960 0
DWIDTH 8 0
BBX 8 5 0 2
BITMAP
18
18
18
FF
FF
ENDCHAR
STARTCHAR 00C2
ENCODING 194
SWIDTH 960 0
DWIDTH 8 0
BBX 8 5 0 -1
BITMAP
FF
FF
18
18
18
ENDCHAR
STARTCHAR 00C3
ENCODING 195
SWIDTH 960 0
DWIDTH 8 0
BBX 5 8 3 -1
BITMAP
C0
C0
C0
F8
F8
C0
C0
C0
ENDCHAR
STARTCHAR 00C4
ENCODING 196
SWIDTH 960 0
DWIDTH 8 0
BBX 8 2 0 2
BITMAP
FF
FF
ENDCHAR
STARTCHAR 00C5
ENCODING 197
SWIDTH 960 0
DWIDTH 8 0
BBX 8 8 0 -1
BITMAP
18
18
18
FF
FF
18
18
18
ENDCHAR
STARTCHAR 00D9
ENCODING 217
SWIDTH 960 0
DWIDTH 8 0
BBX 5 5 0 2
BITMAP
18
18
18
F8
F8
ENDCHAR
STARTCHAR 00DA
ENCODING 218
SWIDTH 960 0
DWIDTH 8 0
BBX 5 5 3 -1
BITMAP
F8
F8
C0
C0
C0
ENDCHAR
STARTCHAR 00DB
ENCODING 219
SWIDTH 960 0
DWIDTH 8 0
BBX 8 8 0 -1
BITMAP
FF
FF
FF
FF
FF
FF
FF
FF
ENDCHAR
STARTCHAR 00DC
ENCODING 220
SWIDTH 960 0
DWIDTH 8 0
BBX 8 4 0 -1
BITMAP
FF
FF
FF
FF
ENDCHAR
STARTCHAR 00DD
ENCODING 221
SWIDTH 960 0
DWIDTH 8 0
BBX 4 8 0 -1
BITMAP
F0
F0
F0
F0
F0
F0
F0
F0
ENDCHAR
STARTCHAR 00DE
ENCODING 222
SWIDTH 960 0
DWIDTH 8 0
BBX 4 8 4 -1
BITMAP
F0
F0
F0
F0
F0
F0
F0
F0
ENDCHAR
STARTCHAR 00DF
ENCODING 223
SWIDTH 960 0
DWIDTH 8 0
BBX 8 4 0 3
BITMAP
FF
FF
FF
FF
ENDCHAR
STARTCHAR 00E3
ENCODING 227
SWIDTH 960 0
DWIDTH 8 0
BBX 7 5 1 0
BITMAP
06
7C
EC
6C
6C
ENDCHAR
STARTCHAR 00F9
ENCODING 249
SWIDTH 960 0
DWIDTH 8 0
BBX 6 6 1 0
BITMAP
78
FC
FC
FC
FC
78
ENDCHAR
STARTCHAR 03C0
ENCODING 960
SWIDTH 960 0
DWIDTH 8 0
BBX 7 5 1 0
BITMAP
06
7C
EC
6C
6C
ENDCHAR
STARTCHAR 2010
ENCODING 8208
SWIDTH 960 0
DWIDTH 8 0
BBX 6 1 1 3
BITMAP
FC
ENDCHAR
STARTCHAR 2011
ENCODING 8209
SWIDTH 960 0
DWIDTH 8 0
BBX 6 1 1 3
BITMAP
FC
ENDCHAR
STARTCHAR 2018
ENCODING 8216
SWIDTH 960 0
DWIDTH 8 0
BBX 4 3 3 4
BITMAP
30
60
C0
ENDCHAR
STARTCHAR 2019
ENCODING 8217
SWIDTH 960 0
DWIDTH 8 0
BBX 4 3 3 4
BITMAP
30
60
C0
ENDCHAR
STARTCHAR 201C
ENCODING 8220
SWIDTH 960 0
DWIDTH 8 0
BBX 6 3 1 4
BITMAP
CC
CC
CC
ENDCHAR
STARTCHAR 201D
ENCODING 8221
SWIDTH 960 0
DWIDTH 8 0
BBX 6 3 1 4
BITMAP
CC
CC
CC
ENDCHAR
STARTCHAR 2022
ENCODING 8226
SWIDTH 960 0
DWIDTH 8 0
BBX 6 6 1 0
BITMAP
78
FC
FC
FC
FC
78
ENDCHAR
STARTCHAR 2190
ENCODING 8592
SWIDTH 960 0
DWIDTH 8 0
BBX 7 6 1 0
BITMAP
20
60
FE
FE
60
20
ENDCHAR
STARTCHAR 2191
ENCODING 8593
SWIDTH 960 0
DWIDTH 8 0
BBX 6 7 1 -1
BITMAP
30
78
FC
30
30
30
30
ENDCHAR
STARTCHAR 2219
ENCODING 8729
SWIDTH 960 0
DWIDTH 8 0
BBX 6 6 1 0
BITMAP
78
FC
FC
FC
FC
78
ENDCHAR
STARTCHAR 2329
ENCODING 9001
SWIDTH 960 0
DWIDTH 8 0
BBX 6 7 1 0
BITMAP
1C
30
60
C0
60
30
1C
ENDCHAR
STARTCHAR 232A
ENCODING 9002
SWIDTH 960 0
DWIDTH 8 0
BBX 6 7 1 0
BITMAP
E0
30
18
0C
18
30
E0
ENDCHAR
STARTCHAR 2500
ENCODING 9472
SWIDTH 960 0
DWIDTH 8 0
BBX 8 2 0 2
BITMAP
FF
FF
ENDCHAR
STARTCHAR 2501
ENCODING 9473
SWIDTH 960 0
DWIDTH 8 0
BBX 8 2 0 2
BITMAP
FF
FF
ENDCHAR
STARTCHAR 2502
ENCODING 9474
SWIDTH 960 0
DWIDTH 8 0
BBX 2 8 3 -1
BITMAP
C0
C0
C0
C0
C0
C0
C0
C0
ENDCHAR
STARTCHAR 2503
ENCODING 9475
SWIDTH 960 0
DWIDTH 8 0
BBX 2 8 3 -1
BITMAP
C0
C0
C0
C0
C0
C0
C0
C0
ENDCHAR
STARTCHAR 250C
ENCODING 9484
SWIDTH 960 0
DWIDTH 8 0
BBX 5 5 3 -1
BITMAP
F8
F8
C0
C0
C0
ENDCHAR
STARTCHAR 250F
ENCODING 9487
SWIDTH 960 0
DWIDTH 8 0
BBX 5 5 3 -1
BITMAP
F8
F8
C0
C0
C0
ENDCHAR
STARTCHAR 2510
ENCODING 9488
SWIDTH 960 0
DWIDTH 8 0
BBX 5 5 0 -1
BITMAP
F8
F8
18
18
18
ENDCHAR
STARTCHAR 2513
ENCODING 9491
SWIDTH 960 0
DWIDTH 8 0
BBX 5 5 0 -1
BITMAP
F8
F8
18
18
18
ENDCHAR
STARTCHAR 2514
ENCODING 9492
SWIDTH 960 0
DWIDTH 8 0
BBX 5 5 3 2
BITMAP
C0
C0
C0
F8
F8
ENDCHAR
STARTCHAR 2517
ENCODING 9495
SWIDTH 960 0
DWIDTH 8 0
BBX 5 5 3 2
BITMAP
C0
C0
C0
F8
F8
ENDCHAR
STARTCHAR 2518
ENCODING 9496
SWIDTH 960 0
DWIDTH 8 0
BBX 5 5 0 2
BITMAP
18
18
18
F8
F8
ENDCHAR
STARTCHAR 251B
ENCODING 9499
SWIDTH 960 0
DWIDTH 8 0
BBX 5 5 0 2
BITMAP
18
18
18
F8
F8
ENDCHAR
STARTCHAR 251C
ENCODING 9500
SWIDTH 960 0
DWIDTH 8 0
BBX 5 8 3 -1
BITMAP
C0
C0
C0
F8
F8
C0
C0
C0
ENDCHAR
STARTCHAR 2523
ENCODING 9507
SWIDTH 960 0
DWIDTH 8 0
BBX 5 8 3 -1
BITMAP
C0
C0
C0
F8
F8
C0
C0
C0
ENDCHAR
STARTCHAR 2524
ENCODING 9508
SWIDTH 960 0
DWIDTH 8 0
BBX 5 8 0 -1
BITMAP
18
18
18
F8
F8
18
18
18
ENDCHAR
STARTCHAR 252B
ENCODING 9515
SWIDTH 960 0
DWIDTH 8 0
BBX 5 8 0 -1
BITMAP
18
18
18
F8
F8
18
18
18
ENDCHAR
STARTCHAR 252C
ENCODING 9516
SWIDTH 960 0
DWIDTH 8 0
BBX 8 5 0 -1
BITMAP
FF
FF
18
18
18
ENDCHAR
STARTCHAR 2533
ENCODING 9523
SWIDTH 960 0
DWIDTH 8 0
BBX 8 5 0 -1
BITMAP
FF
FF
18
18
18
ENDCHAR
STARTCHAR 2534
ENCODING 9524
SWIDTH 960 0
DWIDTH 8 0
BBX 8 5 0 2
BITMAP
18
18
18
FF
FF
ENDCHAR
STARTCHAR 253B
ENCODING 9531
SWIDTH 960 0
DWIDTH 8 0
BBX 8 5 0 2
BITMAP
18
18
18
FF
FF
ENDCHAR
STARTCHAR 253C
ENCODING 9532
SWIDTH 960 0
DWIDTH 8 0
BBX 8 8 0 -1
BITMAP
18
18
18
FF
FF
18
18
18
ENDCHAR
STARTCHAR 254B
ENCODING 9547
SWIDTH 960 0
DWIDTH 8 0
BBX 8 8 0 -1
BITMAP
18
18
18
FF
FF
18
18
18
ENDCHAR
STARTCHAR 256D
ENCODING 9581
SWIDTH 960 0
DWIDTH 8 0
BBX 5 5 3 -1
BITMAP
38
78
E0
C0
C0
ENDCHAR
STARTCHAR 256E
ENCODING 9582
SWIDTH 960 0
DWIDTH 8 0
BBX 5 5 0 -1
BITMAP
E0
F0
38
18
18
ENDCHAR
STARTCHAR 256F
ENCODING 9583
SWIDTH 960 0
DWIDTH 8 0
BBX 5 5 0 2
BITMAP
18
18
38
F0
E0
ENDCHAR
STARTCHAR 2570
ENCODING 9584
SWIDTH 960 0
DWIDTH 8 0
BBX 5 5 3 2
BITMAP
C0
C0
E0
78
38
ENDCHAR
STARTCHAR 2571
ENCODING 9585
SWIDTH 960 0
DWIDTH 8 0
BBX 8 8 0 -1
BITMAP
03
07
0E
1C
38
70
E0
C0
ENDCHAR
STARTCHAR 2572
ENCODING 9586
SWIDTH 960 0
DWIDTH 8 0
BBX 8 8 0 -1
BITMAP
C0
E0
70
38
1C
0E
07
03
ENDCHAR
STARTCHAR 2573
ENCODING 9587
SWIDTH 960 0
DWIDTH 8 0
BBX 8 8 0 -1
BITMAP
C3
E7
7E
3C
3C
7E
E7
C3
ENDCHAR
STARTCHAR 2580
ENCODING 9600
SWIDTH 960 0
DWIDTH 8 0
BBX 8 4 0 3
BITMAP
FF
FF
FF
FF
ENDCHAR
STARTCHAR 2581
ENCODING 9601
SWIDTH 960 0
DWIDTH 8 0
BBX 8 1 0 -1
BITMAP
FF
ENDCHAR
STARTCHAR 2582
ENCODING 9602
SWIDTH 960 0
DWIDTH 8 0
BBX 8 2 0 -1
BITMAP
FF
FF
ENDCHAR
STARTCHAR 2583
ENCODING 9603
SWIDTH 960 0
DWIDTH 8 0
BBX 8 3 0 -1
BITMAP
FF
FF
FF
ENDCHAR
STARTCHAR 2584
ENCODING 9604
SWIDTH 960 0
DWIDTH 8 0
BBX 8 4 0 -1
BITMAP
FF
FF
FF
FF
ENDCHAR
STARTCHAR 2585
ENCODING 9605
SWIDTH 960 0
DWIDTH 8 0
BBX 8 5 0 -1
BITMAP
FF
FF
FF
FF
FF
ENDCHAR
STARTCHAR 2586
ENCODING 9606
SWIDTH 960 0
DWIDTH 8 0
BBX 8 6 0 -1
BITMAP
FF
FF
FF
FF
FF
FF
ENDCHAR
STARTCHAR 2587
ENCODING 9607
SWIDTH 960 0
DWIDTH 8 0
BBX 8 7 0 -1
BITMAP
FF
FF
FF
FF
FF
FF
FF
ENDCHAR
STARTCHAR 2588
ENCODING 9608
SWIDTH 960 0
DWIDTH 8 0
BBX 8 8 0 -1
BITMAP
FF
FF
FF
FF
FF
FF
FF
FF
ENDCHAR
STARTCHAR 258A
ENCODING 9610
SWIDTH 960 0
DWIDTH 8 0
BBX 6 8 0 -1
BITMAP
FC
FC
FC
FC
FC
FC
FC
FC
ENDCHAR
STARTCHAR 258B
ENCODING 9611
SWIDTH 960 0
DWIDTH 8 0
BBX 5 8 0 -1
BITMAP
F8
F8
F8
F8
F8
F8
F8
F8
ENDCHAR
STARTCHAR 258C
ENCODING 9612
SWIDTH 960 0
DWIDTH 8 0
BBX 4 8 0 -1
BITMAP
F0
F0
F0
F0
F0
F0
F0
F0
ENDCHAR
STARTCHAR 258D
ENCODING 9613
SWIDTH 960 0
DWIDTH 8 0
BBX 3 8 0 -1
BITMAP
E0
E0
E0
E0
E0
E0
E0
E0
ENDCHAR
STARTCHAR 258E
ENCODING 9614
SWIDTH 960 0
DWIDTH 8 0
BBX 2 8 0 -1
BITMAP
C0
C0
C0
C0
C0
C0
C0
C0
ENDCHAR
STARTCHAR 2590
ENCODING 9616
SWIDTH 960 0
DWIDTH 8 0
BBX 4 8 4 -1
BITMAP
F0
F0
F0
F0
F0
F0
F0
F0
ENDCHAR
STARTCHAR 2592
ENCODING 9618
SWIDTH 960 0
DWIDTH 8 0
BBX 8 8 0 -1
BITMAP
CC
CC
33
33
CC
CC
33
33
ENDCHAR
STARTCHAR 2594
ENCODING 9620
SWIDTH 960 0
DWIDTH 8 0
BBX 8 1 0 6
BITMAP
FF
ENDCHAR
STARTCHAR 2596
ENCODING 9622
SWIDTH 960 0
DWIDTH 8 0
BBX 4 4 0 -1
BITMAP
F0
F0
F0
F0
ENDCHAR
STARTCHAR 2597
ENCODING 9623
SWIDTH 960 0
DWIDTH 8 0
BBX 4 4 4 -1
BITMAP
F0
F0
F0
F0
ENDCHAR
STARTCHAR 2598
ENCODING 9624
SWIDTH 960 0
DWIDTH 8 0
BBX 4 4 0 3
BITMAP
F0
F0
F0
F0
ENDCHAR
STARTCHAR 2599
ENCODING 9625
SWIDTH 960 0
DWIDTH 8 0
BBX 8 8 0 -1
BITMAP
F0
F0
F0
F0
FF
FF
FF
FF
ENDCHAR
STARTCHAR 259A
ENCODING 9626
SWIDTH 960 0
DWIDTH 8 0
BBX 8 8 0 -1
BITMAP
F0
F0
F0
F0
0F
0F
0F
0F
ENDCHAR
STARTCHAR 259B
ENCODING 9627
SWIDTH 960 0
DWIDTH 8 0
BBX 8 8 0 -1
BITMAP
FF
FF
FF
FF
F0
F0
F0
F0
ENDCHAR
STARTCHAR 259C
ENCODING 9628
SWIDTH 960 0
DWIDTH 8 0
BBX 8 8 0 -1
BITMAP
FF
FF
FF
FF
0F
0F
0F
0F
ENDCHAR
STARTCHAR 259D
ENCODING 9629
SWIDTH 960 0
DWIDTH 8 0
BBX 4 4 4 3
BITMAP
F0
F0
F0
F0
ENDCHAR
STARTCHAR 259E
ENCODING 9630
SWIDTH 960 0
DWIDTH 8 0
BBX 8 8 0 -1
BITMAP
0F
0F
0F
0F
F0
F0
F0
F0
ENDCHAR
STARTCHAR 259F
ENCODING 9631
SWIDTH 960 0
DWIDTH 8 0
BBX 8 8 0 -1
BITMAP
0F
0F
0F
0F
FF
FF
FF
FF
ENDCHAR
STARTCHAR 25C6
ENCODING 9670
SWIDTH 960 0
DWIDTH 8 0
BBX 7 7 1 0
BITMAP
10
38
7C
FE
7C
38
10
ENDCHAR
STARTCHAR 25CB
ENCODING 9675
SWIDTH 960 0
DWIDTH 8 0
BBX 6 6 1 0
BITMAP
78
FC
CC
CC
FC
78
ENDCHAR
STARTCHAR 25CF
ENCODING 9679
SWIDTH 960 0
DWIDTH 8 0
BBX 6 6 1 0
BITMAP
78
FC
FC
FC
FC
78
ENDCHAR
STARTCHAR 25D8
ENCODING 9688
SWIDTH 960 0
DWIDTH 8 0
BBX 8 8 0 -1
BITMAP
FF
C3
81
81
81
81
C3
FF
ENDCHAR
STARTCHAR 25D9
ENCODING 9689
SWIDTH 960 0
DWIDTH 8 0
BBX 8 8 0 -1
BITMAP
FF
C3
81
99
99
81
C3
FF
ENDCHAR
STARTCHAR 25E2
ENCODING 9698
SWIDTH 960 0
DWIDTH 8 0
BBX 7 7 1 -1
BITMAP
02
06
0E
1E
3E
7E
FE
ENDCHAR
STARTCHAR 25E3
ENCODING 9699
SWIDTH 960 0
DWIDTH 8 0
BBX 7 7 0 -1
BITMAP
80
C0
E0
F0
F8
FC
FE
ENDCHAR
STARTCHAR 25E4
ENCODING 9700
SWIDTH 960 0
DWIDTH 8 0
BBX 8 8 0 -1
BITMAP
FF
FE
FC
F8
F0
E0
C0
80
ENDCHAR
STARTCHAR 25E5
ENCODING 9701
SWIDTH 960 0
DWIDTH 8 0
BBX 8 8 0 -1
BITMAP
FF
7F
3F
1F
0F
07
03
01
ENDCHAR
STARTCHAR 25E6
ENCODING 9702
SWIDTH 960 0
DWIDTH 8 0
BBX 6 6 1 0
BITMAP
78
FC
CC
CC
FC
78
ENDCHAR
STARTCHAR 25EF
ENCODING 9711
SWIDTH 960 0
DWIDTH 8 0
BBX 6 6 1 0
BITMAP
78
FC
CC
CC
FC
78
ENDCHAR
STARTCHAR 2660
ENCODING 9824
SWIDTH 960 0
DWIDTH 8 0
BBX 7 7 1 0
BITMAP
10
38
7C
FE
FE
38
7C
ENDCHAR
STARTCHAR 2663
ENCODING 9827
SWIDTH 960 0
DWIDTH 8 0
BBX 6 7 1 0
BITMAP
30
30
CC
CC
30
30
78
ENDCHAR
STARTCHAR 2665
ENCODING 9829
SWIDTH 960 0
DWIDTH 8 0
BBX 7 7 1 0
BITMAP
6C
FE
FE
FE
7C
38
10
ENDCHAR
STARTCHAR 2666
ENCODING 9830
SWIDTH 960 0
DWIDTH 8 0
BBX 7 7 1 0
BITMAP
10
38
7C
FE
7C
38
10
ENDCHAR
STARTCHAR 2713
ENCODING 10003
SWIDTH 960 0
DWIDTH 8 0
BBX 7 7 1 0
BITMAP
02
06
0C
D8
F0
E0
C0
ENDCHAR
STARTCHAR 274C
ENCODING 10060
SWIDTH 960 0
DWIDTH 8 0
BBX 8 8 0 -1
BITMAP
C3
E7
7E
3C
3C
7E
E7
C3
ENDCHAR
STARTCHAR 2764
ENCODING 10084
SWIDTH 960 0
DWIDTH 8 0
BBX 7 7 1 0
BITMAP
6C
FE
FE
FE
7C
38
10
ENDCHAR
STARTCHAR 27E8
ENCODING 10216
SWIDTH 960 0
DWIDTH 8 0
BBX 6 7 1 0
BITMAP
1C
30
60
C0
60
30
1C
ENDCHAR
STARTCHAR 27E9
ENCODING 10217
SWIDTH 960 0
DWIDTH 8 0
BBX 6 7 1 0
BITMAP
E0
30
18
0C
18
30
E0
ENDCHAR
STARTCHAR 3008
ENCODING 12296
SWIDTH 960 0
DWIDTH 8 0
BBX 6 7 1 0
BITMAP
1C
30
60
C0
60
30
1C
ENDCHAR
STARTCHAR 3009
ENCODING 12297
SWIDTH 960 0
DWIDTH 8 0
BBX 6 7 1 0
BITMAP
E0
30
18
0C
18
30
E0
ENDCHAR
STARTCHAR E020
ENCODING 57376
SWIDTH 960 0
DWIDTH 8 0
BBX 0 0 0 0
BITMAP
ENDCHAR
STARTCHAR E021
ENCODING 57377
SWIDTH 960 0
DWIDTH 8 0
BBX 2 7 3 0
BITMAP
C0
C0
C0
C0
00
00
C0
ENDCHAR
STARTCHAR E022
ENCODING 57378
SWIDTH 960 0
DWIDTH 8 0
BBX 6 3 1 4
BITMAP
CC
CC
CC
ENDCHAR
STARTCHAR E023
ENCODING 57379
SWIDTH 960 0
DWIDTH 8 0
BBX 8 7 0 0
BITMAP
66
66
FF
66
FF
66
66
ENDCHAR
STARTCHAR E024
ENCODING 57380
SWIDTH 960 0
DWIDTH 8 0
BBX 6 7 1 0
BITMAP
30
7C
C0
78
0C
F8
30
ENDCHAR
STARTCHAR E025
ENCODING 57381
SWIDTH 960 0
DWIDTH 8 0
BBX 6 7 1 0
BITMAP
C4
CC
18
30
60
CC
8C
ENDCHAR
STARTCHAR E026
ENCODING 57382
SWIDTH 960 0
DWIDTH 8 0
BBX 7 7 1 0
BITMAP
78
CC
78
70
CE
CC
7E
ENDCHAR
STARTCHAR E027
ENCODING 57383
SWIDTH 960 0
DWIDTH 8 0
BBX 4 3 3 4
BITMAP
30
60
C0
ENDCHAR
STARTCHAR E028
ENCODING 57384
SWIDTH 960 0
DWIDTH 8 0
BBX 4 7 2 0
BITMAP
30
60
C0
C0
C0
60
30
ENDCHAR
STARTCHAR E029
ENCODING 57385
SWIDTH 960 0
DWIDTH 8 0
BBX 4 7 2 0
BITMAP
C0
60
30
30
30
60
C0
ENDCHAR
STARTCHAR E02A
ENCODING 57386
SWIDTH 960 0
DWIDTH 8 0
BBX 8 5 0 1
BITMAP
66
3C
FF
3C
66
ENDCHAR
STARTCHAR E02B
ENCODING 57387
SWIDTH 960 0
DWIDTH 8 0
BBX 6 5 1 1
BITMAP
30
30
FC
30
30
ENDCHAR
STARTCHAR E02C
ENCODING 57388
SWIDTH 960 0
DWIDTH 8 0
BBX 3 3 2 -1
BITMAP
60
60
C0
ENDCHAR
STARTCHAR E02D
ENCODING 57389
SWIDTH 960 0
DWIDTH 8 0
BBX 6 1 1 3
BITMAP
FC
ENDCHAR
STARTCHAR E02E
ENCODING 57390
SWIDTH 960 0
DWIDTH 8 0
BBX 2 2 3 0
BITMAP
C0
C0
ENDCHAR
STARTCHAR E02F
ENCODING 57391
SWIDTH 960 0
DWIDTH 8 0
BBX 7 6 1 0
BITMAP
06
0C
18
30
60
C0
ENDCHAR
STARTCHAR E030
ENCODING 57392
SWIDTH 960 0
DWIDTH 8 0
BBX 6 7 1 0
BITMAP
78
CC
DC
EC
CC
CC
78
ENDCHAR
STARTCHAR E031
ENCODING 57393
SWIDTH 960 0
DWIDTH 8 0
BBX 6 7 1 0
BITMAP
30
30
70
30
30
30
FC
ENDCHAR
STARTCHAR E032
ENCODING 57394
SWIDTH 960 0
DWIDTH 8 0
BBX 6 7 1 0
BITMAP
78
CC
0C
18
60
C0
FC
ENDCHAR
STARTCHAR E033
ENCODING 57395
SWIDTH 960 0
DWIDTH 8 0
BBX 6 7 1 0
BITMAP
78
CC
0C
38
0C
CC
78
ENDCHAR
STARTCHAR E034
ENCODING 57396
SWIDTH 960 0
DWIDTH 8 0
BBX 7 7 1 0
BITMAP
0C
1C
3C
CC
FE
0C
0C
ENDCHAR
STARTCHAR E035
ENCODING 57397
SWIDTH 960 0
DWIDTH 8 0
BBX 6 7 1 0
BITMAP
FC
C0
F8
0C
0C
CC
78
ENDCHAR
STARTCHAR E036
ENCODING 57398
SWIDTH 960 0
DWIDTH 8 0
BBX 6 7 1 0
BITMAP
78
CC
C0
F8
CC
CC
78
ENDCHAR
STARTCHAR E037
ENCODING 57399
SWIDTH 960 0
DWIDTH 8 0
BBX 6 7 1 0
BITMAP
FC
CC
18
30
30
30
30
ENDCHAR
STARTCHAR E038
ENCODING 57400
SWIDTH 960 0
DWIDTH 8 0
BBX 6 7 1 0
BITMAP
78
CC
CC
78
CC
CC
78
ENDCHAR
STARTCHAR E039
ENCODING 57401
SWIDTH 960 0
DWIDTH 8 0
BBX 6 7 1 0
BITMAP
78
CC
CC
7C
0C
CC
78
ENDCHAR
STARTCHAR E03A
ENCODING 57402
SWIDTH 960 0
DWIDTH 8 0
BBX 2 4 3 1
BITMAP
C0
00
00
C0
ENDCHAR
STARTCHAR E03B
ENCODING 57403
SWIDTH 960 0
DWIDTH 8 0
BBX 3 6 2 -1
BITMAP
60
00
00
60
60
C0
ENDCHAR
STARTCHAR E03C
ENCODING 57404
SWIDTH 960 0
DWIDTH 8 0
BBX 6 7 1 0
BITMAP
1C
30
60
C0
60
30
1C
ENDCHAR
STARTCHAR E03D
ENCODING 57405
SWIDTH 960 0
DWIDTH 8 0
BBX 6 3 1 2
BITMAP
FC
00
FC
ENDCHAR
STARTCHAR E03E
ENCODING 57406
SWIDTH 960 0
DWIDTH 8 0
BBX 6 7 1 0
BITMAP
E0
30
18
0C
18
30
E0
ENDCHAR
STARTCHAR E03F
ENCODING 57407
SWIDTH 960 0
DWIDTH 8 0
BBX 6 7 1 0
BITMAP
78
CC
0C
18
30
00
30
ENDCHAR
STARTCHAR E040
ENCODING 57408
SWIDTH 960 0
DWIDTH 8 0
BBX 6 7 1 0
BITMAP
78
CC
DC
DC
C0
C4
78
ENDCHAR
STARTCHAR E041
ENCODING 57409
SWIDTH 960 0
DWIDTH 8 0
BBX 6 7 1 0
BITMAP
30
78
CC
FC
CC
CC
CC
ENDCHAR
STARTCHAR E042
ENCODING 57410
SWIDTH 960 0
DWIDTH 8 0
BBX 6 7 1 0
BITMAP
F8
CC
CC
F8
CC
CC
F8
ENDCHAR
STARTCHAR E043
ENCODING 57411
SWIDTH 960 0
DWIDTH 8 0
BBX 6 7 1 0
BITMAP
78
CC
C0
C0
C0
CC
78
ENDCHAR
STARTCHAR E044
ENCODING 57412
SWIDTH 960 0
DWIDTH 8 0
BBX 6 7 1 0
BITMAP
F0
D8
CC
CC
CC
D8
F0
ENDCHAR
STARTCHAR E045
ENCODING 57413
SWIDTH 960 0
DWIDTH 8 0
BBX 6 7 1 0
BITMAP
FC
C0
C0
F0
C0
C0
FC
ENDCHAR
STARTCHAR E046
ENCODING 57414
SWIDTH 960 0
DWIDTH 8 0
BBX 6 7 1 0
BITMAP
FC
C0
C0
F0
C0
C0
C0
ENDCHAR
STARTCHAR E047
ENCODING 57415
SWIDTH 960 0
DWIDTH 8 0
BBX 6 7 1 0
BITMAP
78
CC
C0
DC
CC
CC
78
ENDCHAR
STARTCHAR E048
ENCODING 57416
SWIDTH 960 0
DWIDTH 8 0
BBX 6 7 1 0
BITMAP
CC
CC
CC
FC
CC
CC
CC
ENDCHAR
STARTCHAR E049
ENCODING 57417
SWIDTH 960 0
DWIDTH 8 0
BBX 4 7 2 0
BITMAP
F0
60
60
60
60
60
F0
ENDCHAR
STARTCHAR E04A
ENCODING 57418
SWIDTH 960 0
DWIDTH 8 0
BBX 6 7 1 0
BITMAP
3C
18
18
18
18
D8
70
ENDCHAR
STARTCHAR E04B
ENCODING 57419
SWIDTH 960 0
DWIDTH 8 0
BBX 6 7 1 0
BITMAP
CC
D8
F0
E0
F0
D8
CC
ENDCHAR
STARTCHAR E04C
ENCODING 57420
SWIDTH 960 0
DWIDTH 8 0
BBX 6 7 1 0
BITMAP
C0
C0
C0
C0
C0
C0
FC
ENDCHAR
STARTCHAR E04D
ENCODING 57421
SWIDTH 960 0
DWIDTH 8 0
BBX 7 7 1 0
BITMAP
C6
EE
FE
D6
C6
C6
C6
ENDCHAR
STARTCHAR E04E
ENCODING 57422
SWIDTH 960 0
DWIDTH 8 0
BBX 6 7 1 0
BITMAP
CC
EC
FC
FC
DC
CC
CC
ENDCHAR
STARTCHAR E04F
ENCODING 57423
SWIDTH 960 0
DWIDTH 8 0
BBX 6 7 1 0
BITMAP
78
CC
CC
CC
CC
CC
78
ENDCHAR
STARTCHAR E050
ENCODING 57424
SWIDTH 960 0
DWIDTH 8 0
BBX 6 7 1 0
BITMAP
F8
CC
CC
F8
C0
C0
C0
ENDCHAR
STARTCHAR E051
ENCODING 57425
SWIDTH 960 0
DWIDTH 8 0
BBX 6 7 1 0
BITMAP
78
CC
CC
CC
CC
78
1C
ENDCHAR
STARTCHAR E052
ENCODING 57426
SWIDTH 960 0
DWIDTH 8 0
BBX 6 7 1 0
BITMAP
F8
CC
CC
F8
F0
D8
CC
ENDCHAR
STARTCHAR E053
ENCODING 57427
SWIDTH 960 0
DWIDTH 8 0
BBX 6 7 1 0
BITMAP
78
CC
C0
78
0C
CC
78
ENDCHAR
STARTCHAR E054
ENCODING 57428
SWIDTH 960 0
DWIDTH 8 0
BBX 6 7 1 0
BITMAP
FC
30
30
30
30
30
30
ENDCHAR
STARTCHAR E055
ENCODING 57429
SWIDTH 960 0
DWIDTH 8 0
BBX 6 7 1 0
BITMAP
CC
CC
CC
CC
CC
CC
78
ENDCHAR
STARTCHAR E056
ENCODING 57430
SWIDTH 960 0
DWIDTH 8 0
BBX 6 7 1 0
BITMAP
CC
CC
CC
CC
CC
78
30
ENDCHAR
STARTCHAR E057
ENCODING 57431
SWIDTH 960 0
DWIDTH 8 0
BBX 7 7 1 0
BITMAP
C6
C6
C6
D6
FE
EE
C6
ENDCHAR
STARTCHAR E058
ENCODING 57432
SWIDTH 960 0
DWIDTH 8 0
BBX 6 7 1 0
BITMAP
CC
CC
78
30
78
CC
CC
ENDCHAR
STARTCHAR E059
ENCODING 57433
SWIDTH 960 0
DWIDTH 8 0
BBX 6 7 1 0
BITMAP
CC
CC
CC
78
30
30
30
ENDCHAR
STARTCHAR E05A
ENCODING 57434
SWIDTH 960 0
DWIDTH 8 0
BBX 6 7 1 0
BITMAP
FC
0C
18
30
60
C0
FC
ENDCHAR
STARTCHAR E05B
ENCODING 57435
SWIDTH 960 0
DWIDTH 8 0
BBX 4 7 2 0
BITMAP
F0
C0
C0
C0
C0
C0
F0
ENDCHAR
STARTCHAR E05C
ENCODING 57436
SWIDTH 960 0
DWIDTH 8 0
BBX 7 7 0 0
BITMAP
0C
12
30
7C
30
62
FC
ENDCHAR
STARTCHAR E05D
ENCODING 57437
SWIDTH 960 0
DWIDTH 8 0
BBX 4 7 2 0
BITMAP
F0
30
30
30
30
30
F0
ENDCHAR
STARTCHAR E05E
ENCODING 57438
SWIDTH 960 0
DWIDTH 8 0
BBX 6 7 1 -1
BITMAP
30
78
FC
30
30
30
30
ENDCHAR
STARTCHAR E05F
ENCODING 57439
SWIDTH 960 0
DWIDTH 8 0
BBX 7 6 1 0
BITMAP
20
60
FE
FE
60
20
ENDCHAR
STARTCHAR E060
ENCODING 57440
SWIDTH 960 0
DWIDTH 8 0
BBX 8 2 0 2
BITMAP
FF
FF
ENDCHAR
STARTCHAR E061
ENCODING 57441
SWIDTH 960 0
DWIDTH 8 0
BBX 7 7 1 0
BITMAP
10
38
7C
FE
FE
38
7C
ENDCHAR
STARTCHAR E062
ENCODING 57442
SWIDTH 960 0
DWIDTH 8 0
BBX 2 8 3 -1
BITMAP
C0
C0
C0
C0
C0
C0
C0
C0
ENDCHAR
STARTCHAR E063
ENCODING 57443
SWIDTH 960 0
DWIDTH 8 0
BBX 8 2 0 2
BITMAP
FF
FF
ENDCHAR
STARTCHAR E064
ENCODING 57444
SWIDTH 960 0
DWIDTH 8 0
BBX 8 2 0 3
BITMAP
FF
FF
ENDCHAR
STARTCHAR E065
ENCODING 57445
SWIDTH 960 0
DWIDTH 8 0
BBX 8 2 0 4
BITMAP
FF
FF
ENDCHAR
STARTCHAR E066
ENCODING 57446
SWIDTH 960 0
DWIDTH 8 0
BBX 8 2 0 1
BITMAP
FF
FF
ENDCHAR
STARTCHAR E067
ENCODING 57447
SWIDTH 960 0
DWIDTH 8 0
BBX 2 8 2 -1
BITMAP
C0
C0
C0
C0
C0
C0
C0
C0
ENDCHAR
STARTCHAR E068
ENCODING 57448
SWIDTH 960 0
DWIDTH 8 0
BBX 2 8 4 -1
BITMAP
C0
C0
C0
C0
C0
C0
C0
C0
ENDCHAR
STARTCHAR E069
ENCODING 57449
SWIDTH 960 0
DWIDTH 8 0
BBX 5 5 0 -1
BITMAP
E0
F0
38
18
18
ENDCHAR
STARTCHAR E06A
ENCODING 57450
SWIDTH 960 0
DWIDTH 8 0
BBX 5 5 3 2
BITMAP
C0
C0
E0
78
38
ENDCHAR
STARTCHAR E06B
ENCODING 57451
SWIDTH 960 0
DWIDTH 8 0
BBX 5 5 0 2
BITMAP
18
18
38
F0
E0
ENDCHAR
STARTCHAR E06C
ENCODING 57452
SWIDTH 960 0
DWIDTH 8 0
BBX 8 8 0 -1
BITMAP
C0
C0
C0
C0
C0
C0
FF
FF
ENDCHAR
STARTCHAR E06D
ENCODING 57453
SWIDTH 960 0
DWIDTH 8 0
BBX 8 8 0 -1
BITMAP
C0
E0
70
38
1C
0E
07
03
ENDCHAR
STARTCHAR E06E
ENCODING 57454
SWIDTH 960 0
DWIDTH 8 0
BBX 8 8 0 -1
BITMAP
03
07
0E
1C
38
70
E0
C0
ENDCHAR
STARTCHAR E06F
ENCODING 57455
SWIDTH 960 0
DWIDTH 8 0
BBX 8 8 0 -1
BITMAP
FF
FF
C0
C0
C0
C0
C0
C0
ENDCHAR
STARTCHAR E070
ENCODING 57456
SWIDTH 960 0
DWIDTH 8 0
BBX 8 8 0 -1
BITMAP
FF
FF
03
03
03
03
03
03
ENDCHAR
STARTCHAR E071
ENCODING 57457
SWIDTH 960 0
DWIDTH 8 0
BBX 6 6 1 0
BITMAP
78
FC
FC
FC
FC
78
ENDCHAR
STARTCHAR E072
ENCODING 57458
SWIDTH 960 0
DWIDTH 8 0
BBX 8 2 0 0
BITMAP
FF
FF
ENDCHAR
STARTCHAR E073
ENCODING 57459
SWIDTH 960 0
DWIDTH 8 0
BBX 7 7 1 0
BITMAP
6C
FE
FE
FE
7C
38
10
ENDCHAR
STARTCHAR E074
ENCODING 57460
SWIDTH 960 0
DWIDTH 8 0
BBX 2 8 1 -1
BITMAP
C0
C0
C0
C0
C0
C0
C0
C0
ENDCHAR
STARTCHAR E075
ENCODING 57461
SWIDTH 960 0
DWIDTH 8 0
BBX 5 5 3 -1
BITMAP
38
78
E0
C0
C0
ENDCHAR
STARTCHAR E076
ENCODING 57462
SWIDTH 960 0
DWIDTH 8 0
BBX 8 8 0 -1
BITMAP
C3
E7
7E
3C
3C
7E
E7
C3
ENDCHAR
STARTCHAR E077
ENCODING 57463
SWIDTH 960 0
DWIDTH 8 0
BBX 6 6 1 0
BITMAP
78
FC
CC
CC
FC
78
ENDCHAR
STARTCHAR E078
ENCODING 57464
SWIDTH 960 0
DWIDTH 8 0
BBX 6 7 1 0
BITMAP
30
30
CC
CC
30
30
78
ENDCHAR
STARTCHAR E079
ENCODING 57465
SWIDTH 960 0
DWIDTH 8 0
BBX 2 8 5 -1
BITMAP
C0
C0
C0
C0
C0
C0
C0
C0
ENDCHAR
STARTCHAR E07A
ENCODING 57466
SWIDTH 960 0
DWIDTH 8 0
BBX 7 7 1 0
BITMAP
10
38
7C
FE
7C
38
10
ENDCHAR
STARTCHAR E07B
ENCODING 57467
SWIDTH 960 0
DWIDTH 8 0
BBX 8 8 0 -1
BITMAP
18
18
18
FF
FF
18
18
18
ENDCHAR
STARTCHAR E07C
ENCODING 57468
SWIDTH 960 0
DWIDTH 8 0
BBX 4 8 0 -1
BITMAP
C0
C0
30
30
C0
C0
30
30
ENDCHAR
STARTCHAR E07D
ENCODING 57469
SWIDTH 960 0
DWIDTH 8 0
BBX 2 8 3 -1
BITMAP
C0
C0
C0
C0
C0
C0
C0
C0
ENDCHAR
STARTCHAR E07E
ENCODING 57470
SWIDTH 960 0
DWIDTH 8 0
BBX 7 5 1 0
BITMAP
06
7C
EC
6C
6C
ENDCHAR
STARTCHAR E07F
ENCODING 57471
SWIDTH 960 0
DWIDTH 8 0
BBX 8 8 0 -1
BITMAP
FF
7F
3F
1F
0F
07
03
01
ENDCHAR
STARTCHAR E0A0
ENCODING 57504
SWIDTH 960 0
DWIDTH 8 0
BBX 0 0 0 0
BITMAP
ENDCHAR
STARTCHAR E0A1
ENCODING 57505
SWIDTH 960 0
DWIDTH 8 0
BBX 4 8 0 -1
BITMAP
F0
F0
F0
F0
F0
F0
F0
F0
ENDCHAR
STARTCHAR E0A2
ENCODING 57506
SWIDTH 960 0
DWIDTH 8 0
BBX 8 4 0 -1
BITMAP
FF
FF
FF
FF
ENDCHAR
STARTCHAR E0A3
ENCODING 57507
SWIDTH 960 0
DWIDTH 8 0
BBX 8 1 0 6
BITMAP
FF
ENDCHAR
STARTCHAR E0A4
ENCODING 57508
SWIDTH 960 0
DWIDTH 8 0
BBX 8 1 0 -1
BITMAP
FF
ENDCHAR
STARTCHAR E0A5
ENCODING 57509
SWIDTH 960 0
DWIDTH 8 0
BBX 2 8 0 -1
BITMAP
C0
C0
C0
C0
C0
C0
C0
C0
ENDCHAR
STARTCHAR E0A6
ENCODING 57510
SWIDTH 960 0
DWIDTH 8 0
BBX 8 8 0 -1
BITMAP
CC
CC
33
33
CC
CC
33
33
ENDCHAR
STARTCHAR E0A7
ENCODING 57511
SWIDTH 960 0
DWIDTH 8 0
BBX 2 8 6 -1
BITMAP
C0
C0
C0
C0
C0
C0
C0
C0
ENDCHAR
STARTCHAR E0A8
ENCODING 57512
SWIDTH 960 0
DWIDTH 8 0
BBX 8 4 0 -1
BITMAP
CC
CC
33
33
ENDCHAR
STARTCHAR E0A9
ENCODING 57513
SWIDTH 960 0
DWIDTH 8 0
BBX 8 8 0 -1
BITMAP
FF
FE
FC
F8
F0
E0
C0
80
ENDCHAR
STARTCHAR E0AA
ENCODING 57514
SWIDTH 960 0
DWIDTH 8 0
BBX 2 8 6 -1
BITMAP
C0
C0
C0
C0
C0
C0
C0
C0
ENDCHAR
STARTCHAR E0AB
ENCODING 57515
SWIDTH 960 0
DWIDTH 8 0
BBX 5 8 3 -1
BITMAP
C0
C0
C0
F8
F8
C0
C0
C0
ENDCHAR
STARTCHAR E0AC
ENCODING 57516
SWIDTH 960 0
DWIDTH 8 0
BBX 4 4 4 -1
BITMAP
F0
F0
F0
F0
ENDCHAR
STARTCHAR E0AD
ENCODING 57517
SWIDTH 960 0
DWIDTH 8 0
BBX 5 5 3 2
BITMAP
C0
C0
C0
F8
F8
ENDCHAR
STARTCHAR E0AE
ENCODING 57518
SWIDTH 960 0
DWIDTH 8 0
BBX 5 5 0 -1
BITMAP
F8
F8
18
18
18
ENDCHAR
STARTCHAR E0AF
ENCODING 57519
SWIDTH 960 0
DWIDTH 8 0
BBX 8 2 0 -1
BITMAP
FF
FF
ENDCHAR
STARTCHAR E0B0
ENCODING 57520
SWIDTH 960 0
DWIDTH 8 0
BBX 5 5 3 -1
BITMAP
F8
F8
C0
C0
C0
ENDCHAR
STARTCHAR E0B1
ENCODING 57521
SWIDTH 960 0
DWIDTH 8 0
BBX 8 5 0 2
BITMAP
18
18
18
FF
FF
ENDCHAR
STARTCHAR E0B2
ENCODING 57522
SWIDTH 960 0
DWIDTH 8 0
BBX 8 5 0 -1
BITMAP
FF
FF
18
18
18
ENDCHAR
STARTCHAR E0B3
ENCODING 57523
SWIDTH 960 0
DWIDTH 8 0
BBX 5 8 0 -1
BITMAP
18
18
18
F8
F8
18
18
18
ENDCHAR
STARTCHAR E0B4
ENCODING 57524
SWIDTH 960 0
DWIDTH 8 0
BBX 2 8 0 -1
BITMAP
C0
C0
C0
C0
C0
C0
C0
C0
ENDCHAR
STARTCHAR E0B5
ENCODING 57525
SWIDTH 960 0
DWIDTH 8 0
BBX 3 8 0 -1
BITMAP
E0
E0
E0
E0
E0
E0
E0
E0
ENDCHAR
STARTCHAR E0B6
ENCODING 57526
SWIDTH 960 0
DWIDTH 8 0
BBX 3 8 5 -1
BITMAP
E0
E0
E0
E0
E0
E0
E0
E0
ENDCHAR
STARTCHAR E0B7
ENCODING 57527
SWIDTH 960 0
DWIDTH 8 0
BBX 8 2 0 5
BITMAP
FF
FF
ENDCHAR
STARTCHAR E0B8
ENCODING 57528
SWIDTH 960 0
DWIDTH 8 0
BBX 8 3 0 4
BITMAP
FF
FF
FF
ENDCHAR
STARTCHAR E0B9
ENCODING 57529
SWIDTH 960 0
DWIDTH 8 0
BBX 8 3 0 -1
BITMAP
FF
FF
FF
ENDCHAR
STARTCHAR E0BA
ENCODING 57530
SWIDTH 960 0
DWIDTH 8 0
BBX 8 8 0 -1
BITMAP
03
03
03
03
03
03
FF
FF
ENDCHAR
STARTCHAR E0BB
ENCODING 57531
SWIDTH 960 0
DWIDTH 8 0
BBX 4 4 0 -1
BITMAP
F0
F0
F0
F0
ENDCHAR
STARTCHAR E0BC
ENCODING 57532
SWIDTH 960 0
DWIDTH 8 0
BBX 4 4 4 3
BITMAP
F0
F0
F0
F0
ENDCHAR
STARTCHAR E0BD
ENCODING 57533
SWIDTH 960 0
DWIDTH 8 0
BBX 5 5 0 2
BITMAP
18
18
18
F8
F8
ENDCHAR
STARTCHAR E0BE
ENCODING 57534
SWIDTH 960 0
DWIDTH 8 0
BBX 4 4 0 3
BITMAP
F0
F0
F0
F0
ENDCHAR
STARTCHAR E0BF
ENCODING 57535
SWIDTH 960 0
DWIDTH 8 0
BBX 8 8 0 -1
BITMAP
F0
F0
F0
F0
0F
0F
0F
0F
ENDCHAR
STARTCHAR E0C0
ENCODING 57536
SWIDTH 960 0
DWIDTH 8 0
BBX 8 2 0 2
BITMAP
FF
FF
ENDCHAR
STARTCHAR E0C1
ENCODING 57537
SWIDTH 960 0
DWIDTH 8 0
BBX 7 7 1 0
BITMAP
10
38
7C
FE
FE
38
7C
ENDCHAR
STARTCHAR E0C2
ENCODING 57538
SWIDTH 960 0
DWIDTH 8 0
BBX 2 8 3 -1
BITMAP
C0
C0
C0
C0
C0
C0
C0
C0
ENDCHAR
STARTCHAR E0C3
ENCODING 57539
SWIDTH 960 0
DWIDTH 8 0
BBX 8 2 0 2
BITMAP
FF
FF
ENDCHAR
STARTCHAR E0C4
ENCODING 57540
SWIDTH 960 0
DWIDTH 8 0
BBX 8 2 0 3
BITMAP
FF
FF
ENDCHAR
STARTCHAR E0C5
ENCODING 57541
SWIDTH 960 0
DWIDTH 8 0
BBX 8 2 0 4
BITMAP
FF
FF
ENDCHAR
STARTCHAR E0C6
ENCODING 57542
SWIDTH 960 0
DWIDTH 8 0
BBX 8 2 0 1
BITMAP
FF
FF
ENDCHAR
STARTCHAR E0C7
ENCODING 57543
SWIDTH 960 0
DWIDTH 8 0
BBX 2 8 2 -1
BITMAP
C0
C0
C0
C0
C0
C0
C0
C0
ENDCHAR
STARTCHAR E0C8
ENCODING 57544
SWIDTH 960 0
DWIDTH 8 0
BBX 2 8 4 -1
BITMAP
C0
C0
C0
C0
C0
C0
C0
C0
ENDCHAR
STARTCHAR E0C9
ENCODING 57545
SWIDTH 960 0
DWIDTH 8 0
BBX 5 5 0 -1
BITMAP
E0
F0
38
18
18
ENDCHAR
STARTCHAR E0CA
ENCODING 57546
SWIDTH 960 0
DWIDTH 8 0
BBX 5 5 3 2
BITMAP
C0
C0
E0
78
38
ENDCHAR
STARTCHAR E0CB
ENCODING 57547
SWIDTH 960 0
DWIDTH 8 0
BBX 5 5 0 2
BITMAP
18
18
38
F0
E0
ENDCHAR
STARTCHAR E0CC
ENCODING 57548
SWIDTH 960 0
DWIDTH 8 0
BBX 8 8 0 -1
BITMAP
C0
C0
C0
C0
C0
C0
FF
FF
ENDCHAR
STARTCHAR E0CD
ENCODING 57549
SWIDTH 960 0
DWIDTH 8 0
BBX 8 8 0 -1
BITMAP
C0
E0
70
38
1C
0E
07
03
ENDCHAR
STARTCHAR E0CE
ENCODING 57550
SWIDTH 960 0
DWIDTH 8 0
BBX 8 8 0 -1
BITMAP
03
07
0E
1C
38
70
E0
C0
ENDCHAR
STARTCHAR E0CF
ENCODING 57551
SWIDTH 960 0
DWIDTH 8 0
BBX 8 8 0 -1
BITMAP
FF
FF
C0
C0
C0
C0
C0
C0
ENDCHAR
STARTCHAR E0D0
ENCODING 57552
SWIDTH 960 0
DWIDTH 8 0
BBX 8 8 0 -1
BITMAP
FF
FF
03
03
03
03
03
03
ENDCHAR
STARTCHAR E0D1
ENCODING 57553
SWIDTH 960 0
DWIDTH 8 0
BBX 6 6 1 0
BITMAP
78
FC
FC
FC
FC
78
ENDCHAR
STARTCHAR E0D2
ENCODING 57554
SWIDTH 960 0
DWIDTH 8 0
BBX 8 2 0 0
BITMAP
FF
FF
ENDCHAR
STARTCHAR E0D3
ENCODING 57555
SWIDTH 960 0
DWIDTH 8 0
BBX 7 7 1 0
BITMAP
6C
FE
FE
FE
7C
38
10
ENDCHAR
STARTCHAR E0D4
ENCODING 57556
SWIDTH 960 0
DWIDTH 8 0
BBX 2 8 1 -1
BITMAP
C0
C0
C0
C0
C0
C0
C0
C0
ENDCHAR
STARTCHAR E0D5
ENCODING 57557
SWIDTH 960 0
DWIDTH 8 0
BBX 5 5 3 -1
BITMAP
38
78
E0
C0
C0
ENDCHAR
STARTCHAR E0D6
ENCODING 57558
SWIDTH 960 0
DWIDTH 8 0
BBX 8 8 0 -1
BITMAP
C3
E7
7E
3C
3C
7E
E7
C3
ENDCHAR
STARTCHAR E0D7
ENCODING 57559
SWIDTH 960 0
DWIDTH 8 0
BBX 6 6 1 0
BITMAP
78
FC
CC
CC
FC
78
ENDCHAR
STARTCHAR E0D8
ENCODING 57560
SWIDTH 960 0
DWIDTH 8 0
BBX 6 7 1 0
BITMAP
30
30
CC
CC
30
30
78
ENDCHAR
STARTCHAR E0D9
ENCODING 57561
SWIDTH 960 0
DWIDTH 8 0
BBX 2 8 5 -1
BITMAP
C0
C0
C0
C0
C0
C0
C0
C0
ENDCHAR
STARTCHAR E0DA
ENCODING 57562
SWIDTH 960 0
DWIDTH 8 0
BBX 7 7 1 0
BITMAP
10
38
7C
FE
7C
38
10
ENDCHAR
STARTCHAR E0DB
ENCODING 57563
SWIDTH 960 0
DWIDTH 8 0
BBX 8 8 0 -1
BITMAP
18
18
18
FF
FF
18
18
18
ENDCHAR
STARTCHAR E0DC
ENCODING 57564
SWIDTH 960 0
DWIDTH 8 0
BBX 4 8 0 -1
BITMAP
C0
C0
30
30
C0
C0
30
30
ENDCHAR
STARTCHAR E0DD
ENCODING 57565
SWIDTH 960 0
DWIDTH 8 0
BBX 2 8 3 -1
BITMAP
C0
C0
C0
C0
C0
C0
C0
C0
ENDCHAR
STARTCHAR E0DE
ENCODING 57566
SWIDTH 960 0
DWIDTH 8 0
BBX 7 5 1 0
BITMAP
06
7C
EC
6C
6C
ENDCHAR
STARTCHAR E0DF
ENCODING 57567
SWIDTH 960 0
DWIDTH 8 0
BBX 8 8 0 -1
BITMAP
FF
7F
3F
1F
0F
07
03
01
ENDCHAR
STARTCHAR E0E0
ENCODING 57568
SWIDTH 960 0
DWIDTH 8 0
BBX 0 0 0 0
BITMAP
ENDCHAR
STARTCHAR E0E1
ENCODING 57569
SWIDTH 960 0
DWIDTH 8 0
BBX 4 8 0 -1
BITMAP
F0
F0
F0
F0
F0
F0
F0
F0
ENDCHAR
STARTCHAR E0E2
ENCODING 57570
SWIDTH 960 0
DWIDTH 8 0
BBX 8 4 0 -1
BITMAP
FF
FF
FF
FF
ENDCHAR
STARTCHAR E0E3
ENCODING 57571
SWIDTH 960 0
DWIDTH 8 0
BBX 8 1 0 6
BITMAP
FF
ENDCHAR
STARTCHAR E0E4
ENCODING 57572
SWIDTH 960 0
DWIDTH 8 0
BBX 8 1 0 -1
BITMAP
FF
ENDCHAR
STARTCHAR E0E5
ENCODING 57573
SWIDTH 960 0
DWIDTH 8 0
BBX 2 8 0 -1
BITMAP
C0
C0
C0
C0
C0
C0
C0
C0
ENDCHAR
STARTCHAR E0E6
ENCODING 57574
SWIDTH 960 0
DWIDTH 8 0
BBX 8 8 0 -1
BITMAP
CC
CC
33
33
CC
CC
33
33
ENDCHAR
STARTCHAR E0E7
ENCODING 57575
SWIDTH 960 0
DWIDTH 8 0
BBX 2 8 6 -1
BITMAP
C0
C0
C0
C0
C0
C0
C0
C0
ENDCHAR
STARTCHAR E0E8
ENCODING 57576
SWIDTH 960 0
DWIDTH 8 0
BBX 8 4 0 -1
BITMAP
CC
CC
33
33
ENDCHAR
STARTCHAR E0E9
ENCODING 57577
SWIDTH 960 0
DWIDTH 8 0
BBX 8 8 0 -1
BITMAP
FF
FE
FC
F8
F0
E0
C0
80
ENDCHAR
STARTCHAR E0EA
ENCODING 57578
SWIDTH 960 0
DWIDTH 8 0
BBX 2 8 6 -1
BITMAP
C0
C0
C0
C0
C0
C0
C0
C0
ENDCHAR
STARTCHAR E0EB
ENCODING 57579
SWIDTH 960 0
DWIDTH 8 0
BBX 5 8 3 -1
BITMAP
C0
C0
C0
F8
F8
C0
C0
C0
ENDCHAR
STARTCHAR E0EC
ENCODING 57580
SWIDTH 960 0
DWIDTH 8 0
BBX 4 4 4 -1
BITMAP
F0
F0
F0
F0
ENDCHAR
STARTCHAR E0ED
ENCODING 57581
SWIDTH 960 0
DWIDTH 8 0
BBX 5 5 3 2
BITMAP
C0
C0
C0
F8
F8
ENDCHAR
STARTCHAR E0EE
ENCODING 57582
SWIDTH 960 0
DWIDTH 8 0
BBX 5 5 0 -1
BITMAP
F8
F8
18
18
18
ENDCHAR
STARTCHAR E0EF
ENCODING 57583
SWIDTH 960 0
DWIDTH 8 0
BBX 8 2 0 -1
BITMAP
FF
FF
ENDCHAR
STARTCHAR E0F0
ENCODING 57584
SWIDTH 960 0
DWIDTH 8 0
BBX 5 5 3 -1
BITMAP
F8
F8
C0
C0
C0
ENDCHAR
STARTCHAR E0F1
ENCODING 57585
SWIDTH 960 0
DWIDTH 8 0
BBX 8 5 0 2
BITMAP
18
18
18
FF
FF
ENDCHAR
STARTCHAR E0F2
ENCODING 57586
SWIDTH 960 0
DWIDTH 8 0
BBX 8 5 0 -1
BITMAP
FF
FF
18
18
18
ENDCHAR
STARTCHAR E0F3
ENCODING 57587
SWIDTH 960 0
DWIDTH 8 0
BBX 5 8 0 -1
BITMAP
18
18
18
F8
F8
18
18
18
ENDCHAR
STARTCHAR E0F4
ENCODING 57588
SWIDTH 960 0
DWIDTH 8 0
BBX 2 8 0 -1
BITMAP
C0
C0
C0
C0
C0
C0
C0
C0
ENDCHAR
STARTCHAR E0F5
ENCODING 57589
SWIDTH 960 0
DWIDTH 8 0
BBX 3 8 0 -1
BITMAP
E0
E0
E0
E0
E0
E0
E0
E0
ENDCHAR
STARTCHAR E0F6
ENCODING 57590
SWIDTH 960 0
DWIDTH 8 0
BBX 3 8 5 -1
BITMAP
E0
E0
E0
E0
E0
E0
E0
E0
ENDCHAR
STARTCHAR E0F7
ENCODING 57591
SWIDTH 960 0
DWIDTH 8 0
BBX 8 2 0 5
BITMAP
FF
FF
ENDCHAR
STARTCHAR E0F8
ENCODING 57592
SWIDTH 960 0
DWIDTH 8 0
BBX 8 3 0 4
BITMAP
FF
FF
FF
ENDCHAR
STARTCHAR E0F9
ENCODING 57593
SWIDTH 960 0
DWIDTH 8 0
BBX 8 3 0 -1
BITMAP
FF
FF
FF
ENDCHAR
STARTCHAR E0FA
ENCODING 57594
SWIDTH 960 0
DWIDTH 8 0
BBX 8 8 0 -1
BITMAP
03
03
03
03
03
03
FF
FF
ENDCHAR
STARTCHAR E0FB
ENCODING 57595
SWIDTH 960 0
DWIDTH 8 0
BBX 4 4 0 -1
BITMAP
F0
F0
F0
F0
ENDCHAR
STARTCHAR E0FC
ENCODING 57596
SWIDTH 960 0
DWIDTH 8 0
BBX 4 4 4 3
BITMAP
F0
F0
F0
F0
ENDCHAR
STARTCHAR E0FD
ENCODING 57597
SWIDTH 960 0
DWIDTH 8 0
BBX 5 5 0 2
BITMAP
18
18
18
F8
F8
ENDCHAR
STARTCHAR E0FE
ENCODING 57598
SWIDTH 960 0
DWIDTH 8 0
BBX 4 4 0 3
BITMAP
F0
F0
F0
F0
ENDCHAR
STARTCHAR E0FF
ENCODING 57599
SWIDTH 960 0
DWIDTH 8 0
BBX 7 5 1 0
BITMAP
06
7C
EC
6C
6C
ENDCHAR
STARTCHAR E120
ENCODING 57632
SWIDTH 960 0
DWIDTH 8 0
BBX 0 0 0 0
BITMAP
ENDCHAR
STARTCHAR E121
ENCODING 57633
SWIDTH 960 0
DWIDTH 8 0
BBX 2 7 3 0
BITMAP
C0
C0
C0
C0
00
00
C0
ENDCHAR
STARTCHAR E122
ENCODING 57634
SWIDTH 960 0
DWIDTH 8 0
BBX 6 3 1 4
BITMAP
CC
CC
CC
ENDCHAR
STARTCHAR E123
ENCODING 57635
SWIDTH 960 0
DWIDTH 8 0
BBX 8 7 0 0
BITMAP
66
66
FF
66
FF
66
66
ENDCHAR
STARTCHAR E124
ENCODING 57636
SWIDTH 960 0
DWIDTH 8 0
BBX 6 7 1 0
BITMAP
30
7C
C0
78
0C
F8
30
ENDCHAR
STARTCHAR E125
ENCODING 57637
SWIDTH 960 0
DWIDTH 8 0
BBX 6 7 1 0
BITMAP
C4
CC
18
30
60
CC
8C
ENDCHAR
STARTCHAR E126
ENCODING 57638
SWIDTH 960 0
DWIDTH 8 0
BBX 7 7 1 0
BITMAP
78
CC
78
70
CE
CC
7E
ENDCHAR
STARTCHAR E127
ENCODING 57639
SWIDTH 960 0
DWIDTH 8 0
BBX 4 3 3 4
BITMAP
30
60
C0
ENDCHAR
STARTCHAR E128
ENCODING 57640
SWIDTH 960 0
DWIDTH 8 0
BBX 4 7 2 0
BITMAP
30
60
C0
C0
C0
60
30
ENDCHAR
STARTCHAR E129
ENCODING 57641
SWIDTH 960 0
DWIDTH 8 0
BBX 4 7 2 0
BITMAP
C0
60
30
30
30
60
C0
ENDCHAR
STARTCHAR E12A
ENCODING 57642
SWIDTH 960 0
DWIDTH 8 0
BBX 8 5 0 1
BITMAP
66
3C
FF
3C
66
ENDCHAR
STARTCHAR E12B
ENCODING 57643
SWIDTH 960 0
DWIDTH 8 0
BBX 6 5 1 1
BITMAP
30
30
FC
30
30
ENDCHAR
STARTCHAR E12C
ENCODING 57644
SWIDTH 960 0
DWIDTH 8 0
BBX 3 3 2 -1
BITMAP
60
60
C0
ENDCHAR
STARTCHAR E12D
ENCODING 57645
SWIDTH 960 0
DWIDTH 8 0
BBX 6 1 1 3
BITMAP
FC
ENDCHAR
STARTCHAR E12E
ENCODING 57646
SWIDTH 960 0
DWIDTH 8 0
BBX 2 2 3 0
BITMAP
C0
C0
ENDCHAR
STARTCHAR E12F
ENCODING 57647
SWIDTH 960 0
DWIDTH 8 0
BBX 7 6 1 0
BITMAP
06
0C
18
30
60
C0
ENDCHAR
STARTCHAR E130
ENCODING 57648
SWIDTH 960 0
DWIDTH 8 0
BBX 6 7 1 0
BITMAP
78
CC
DC
EC
CC
CC
78
ENDCHAR
STARTCHAR E131
ENCODING 57649
SWIDTH 960 0
DWIDTH 8 0
BBX 6 7 1 0
BITMAP
30
30
70
30
30
30
FC
ENDCHAR
STARTCHAR E132
ENCODING 57650
SWIDTH 960 0
DWIDTH 8 0
BBX 6 7 1 0
BITMAP
78
CC
0C
18
60
C0
FC
ENDCHAR
STARTCHAR E133
ENCODING 57651
SWIDTH 960 0
DWIDTH 8 0
BBX 6 7 1 0
BITMAP
78
CC
0C
38
0C
CC
78
ENDCHAR
STARTCHAR E134
ENCODING 57652
SWIDTH 960 0
DWIDTH 8 0
BBX 7 7 1 0
BITMAP
0C
1C
3C
CC
FE
0C
0C
ENDCHAR
STARTCHAR E135
ENCODING 57653
SWIDTH 960 0
DWIDTH 8 0
BBX 6 7 1 0
BITMAP
FC
C0
F8
0C
0C
CC
78
ENDCHAR
STARTCHAR E136
ENCODING 57654
SWIDTH 960 0
DWIDTH 8 0
BBX 6 7 1 0
BITMAP
78
CC
C0
F8
CC
CC
78
ENDCHAR
STARTCHAR E137
ENCODING 57655
SWIDTH 960 0
DWIDTH 8 0
BBX 6 7 1 0
BITMAP
FC
CC
18
30
30
30
30
ENDCHAR
STARTCHAR E138
ENCODING 57656
SWIDTH 960 0
DWIDTH 8 0
BBX 6 7 1 0
BITMAP
78
CC
CC
78
CC
CC
78
ENDCHAR
STARTCHAR E139
ENCODING 57657
SWIDTH 960 0
DWIDTH 8 0
BBX 6 7 1 0
BITMAP
78
CC
CC
7C
0C
CC
78
ENDCHAR
STARTCHAR E13A
ENCODING 57658
SWIDTH 960 0
DWIDTH 8 0
BBX 2 4 3 1
BITMAP
C0
00
00
C0
ENDCHAR
STARTCHAR E13B
ENCODING 57659
SWIDTH 960 0
DWIDTH 8 0
BBX 3 6 2 -1
BITMAP
60
00
00
60
60
C0
ENDCHAR
STARTCHAR E13C
ENCODING 57660
SWIDTH 960 0
DWIDTH 8 0
BBX 6 7 1 0
BITMAP
1C
30
60
C0
60
30
1C
ENDCHAR
STARTCHAR E13D
ENCODING 57661
SWIDTH 960 0
DWIDTH 8 0
BBX 6 3 1 2
BITMAP
FC
00
FC
ENDCHAR
STARTCHAR E13E
ENCODING 57662
SWIDTH 960 0
DWIDTH 8 0
BBX 6 7 1 0
BITMAP
E0
30
18
0C
18
30
E0
ENDCHAR
STARTCHAR E13F
ENCODING 57663
SWIDTH 960 0
DWIDTH 8 0
BBX 6 7 1 0
BITMAP
78
CC
0C
18
30
00
30
ENDCHAR
STARTCHAR E140
ENCODING 57664
SWIDTH 960 0
DWIDTH 8 0
BBX 6 7 1 0
BITMAP
78
CC
DC
DC
C0
C4
78
ENDCHAR
STARTCHAR E141
ENCODING 57665
SWIDTH 960 0
DWIDTH 8 0
BBX 6 5 1 0
BITMAP
78
0C
7C
CC
7C
ENDCHAR
STARTCHAR E142
ENCODING 57666
SWIDTH 960 0
DWIDTH 8 0
BBX 6 6 1 0
BITMAP
C0
C0
F8
CC
CC
F8
ENDCHAR
STARTCHAR E143
ENCODING 57667
SWIDTH 960 0
DWIDTH 8 0
BBX 5 5 1 0
BITMAP
78
C0
C0
C0
78
ENDCHAR
STARTCHAR E144
ENCODING 57668
SWIDTH 960 0
DWIDTH 8 0
BBX 6 6 1 0
BITMAP
0C
0C
7C
CC
CC
7C
ENDCHAR
STARTCHAR E145
ENCODING 57669
SWIDTH 960 0
DWIDTH 8 0
BBX 6 5 1 0
BITMAP
78
CC
FC
C0
78
ENDCHAR
STARTCHAR E146
ENCODING 57670
SWIDTH 960 0
DWIDTH 8 0
BBX 5 6 2 0
BITMAP
38
60
F8
60
60
60
ENDCHAR
STARTCHAR E147
ENCODING 57671
SWIDTH 960 0
DWIDTH 8 0
BBX 6 6 1 -1
BITMAP
7C
CC
CC
7C
0C
F8
ENDCHAR
STARTCHAR E148
ENCODING 57672
SWIDTH 960 0
DWIDTH 8 0
BBX 6 6 1 0
BITMAP
C0
C0
F8
CC
CC
CC
ENDCHAR
STARTCHAR E149
ENCODING 57673
SWIDTH 960 0
DWIDTH 8 0
BBX 4 6 2 0
BITMAP
60
00
E0
60
60
F0
ENDCHAR
STARTCHAR E14A
ENCODING 57674
SWIDTH 960 0
DWIDTH 8 0
BBX 5 7 2 -1
BITMAP
18
00
18
18
18
18
F0
ENDCHAR
STARTCHAR E14B
ENCODING 57675
SWIDTH 960 0
DWIDTH 8 0
BBX 6 6 1 0
BITMAP
C0
C0
D8
F0
D8
CC
ENDCHAR
STARTCHAR E14C
ENCODING 57676
SWIDTH 960 0
DWIDTH 8 0
BBX 4 6 2 0
BITMAP
E0
60
60
60
60
F0
ENDCHAR
STARTCHAR E14D
ENCODING 57677
SWIDTH 960 0
DWIDTH 8 0
BBX 7 5 1 0
BITMAP
CC
FE
FE
D6
C6
ENDCHAR
STARTCHAR E14E
ENCODING 57678
SWIDTH 960 0
DWIDTH 8 0
BBX 6 5 1 0
BITMAP
F8
CC
CC
CC
CC
ENDCHAR
STARTCHAR E14F
ENCODING 57679
SWIDTH 960 0
DWIDTH 8 0
BBX 6 5 1 0
BITMAP
78
CC
CC
CC
78
ENDCHAR
STARTCHAR E150
ENCODING 57680
SWIDTH 960 0
DWIDTH 8 0
BBX 6 6 1 -1
BITMAP
F8
CC
CC
F8
C0
C0
ENDCHAR
STARTCHAR E151
ENCODING 57681
SWIDTH 960 0
DWIDTH 8 0
BBX 6 6 1 -1
BITMAP
7C
CC
CC
7C
0C
0C
ENDCHAR
STARTCHAR E152
ENCODING 57682
SWIDTH 960 0
DWIDTH 8 0
BBX 6 5 1 0
BITMAP
F8
CC
C0
C0
C0
ENDCHAR
STARTCHAR E153
ENCODING 57683
SWIDTH 960 0
DWIDTH 8 0
BBX 6 5 1 0
BITMAP
7C
C0
78
0C
F8
ENDCHAR
STARTCHAR E154
ENCODING 57684
SWIDTH 960 0
DWIDTH 8 0
BBX 6 6 1 0
BITMAP
30
FC
30
30
30
1C
ENDCHAR
STARTCHAR E155
ENCODING 57685
SWIDTH 960 0
DWIDTH 8 0
BBX 6 5 1 0
BITMAP
CC
CC
CC
CC
7C
ENDCHAR
STARTCHAR E156
ENCODING 57686
SWIDTH 960 0
DWIDTH 8 0
BBX 6 5 1 0
BITMAP
CC
CC
CC
78
30
ENDCHAR
STARTCHAR E157
ENCODING 57687
SWIDTH 960 0
DWIDTH 8 0
BBX 7 5 1 0
BITMAP
C6
D6
FE
7C
6C
ENDCHAR
STARTCHAR E158
ENCODING 57688
SWIDTH 960 0
DWIDTH 8 0
BBX 6 5 1 0
BITMAP
CC
78
30
78
CC
ENDCHAR
STARTCHAR E159
ENCODING 57689
SWIDTH 960 0
DWIDTH 8 0
BBX 6 6 1 -1
BITMAP
CC
CC
CC
7C
18
F0
ENDCHAR
STARTCHAR E15A
ENCODING 57690
SWIDTH 960 0
DWIDTH 8 0
BBX 6 5 1 0
BITMAP
FC
18
30
60
FC
ENDCHAR
STARTCHAR E15B
ENCODING 57691
SWIDTH 960 0
DWIDTH 8 0
BBX 4 7 2 0
BITMAP
F0
C0
C0
C0
C0
C0
F0
ENDCHAR
STARTCHAR E15C
ENCODING 57692
SWIDTH 960 0
DWIDTH 8 0
BBX 7 7 0 0
BITMAP
0C
12
30
7C
30
62
FC
ENDCHAR
STARTCHAR E15D
ENCODING 57693
SWIDTH 960 0
DWIDTH 8 0
BBX 4 7 2 0
BITMAP
F0
30
30
30
30
30
F0
ENDCHAR
STARTCHAR E15E
ENCODING 57694
SWIDTH 960 0
DWIDTH 8 0
BBX 6 7 1 -1
BITMAP
30
78
FC
30
30
30
30
ENDCHAR
STARTCHAR E15F
ENCODING 57695
SWIDTH 960 0
DWIDTH 8 0
BBX 7 6 1 0
BITMAP
20
60
FE
FE
60
20
ENDCHAR
STARTCHAR E160
ENCODING 57696
SWIDTH 960 0
DWIDTH 8 0
BBX 8 2 0 2
BITMAP
FF
FF
ENDCHAR
STARTCHAR E161
ENCODING 57697
SWIDTH 960 0
DWIDTH 8 0
BBX 6 7 1 0
BITMAP
30
78
CC
FC
CC
CC
CC
ENDCHAR
STARTCHAR E162
ENCODING 57698
SWIDTH 960 0
DWIDTH 8 0
BBX 6 7 1 0
BITMAP
F8
CC
CC
F8
CC
CC
F8
ENDCHAR
STARTCHAR E163
ENCODING 57699
SWIDTH 960 0
DWIDTH 8 0
BBX 6 7 1 0
BITMAP
78
CC
C0
C0
C0
CC
78
ENDCHAR
STARTCHAR E164
ENCODING 57700
SWIDTH 960 0
DWIDTH 8 0
BBX 6 7 1 0
BITMAP
F0
D8
CC
CC
CC
D8
F0
ENDCHAR
STARTCHAR E165
ENCODING 57701
SWIDTH 960 0
DWIDTH 8 0
BBX 6 7 1 0
BITMAP
FC
C0
C0
F0
C0
C0
FC
ENDCHAR
STARTCHAR E166
ENCODING 57702
SWIDTH 960 0
DWIDTH 8 0
BBX 6 7 1 0
BITMAP
FC
C0
C0
F0
C0
C0
C0
ENDCHAR
STARTCHAR E167
ENCODING 57703
SWIDTH 960 0
DWIDTH 8 0
BBX 6 7 1 0
BITMAP
78
CC
C0
DC
CC
CC
78
ENDCHAR
STARTCHAR E168
ENCODING 57704
SWIDTH 960 0
DWIDTH 8 0
BBX 6 7 1 0
BITMAP
CC
CC
CC
FC
CC
CC
CC
ENDCHAR
STARTCHAR E169
ENCODING 57705
SWIDTH 960 0
DWIDTH 8 0
BBX 4 7 2 0
BITMAP
F0
60
60
60
60
60
F0
ENDCHAR
STARTCHAR E16A
ENCODING 57706
SWIDTH 960 0
DWIDTH 8 0
BBX 6 7 1 0
BITMAP
3C
18
18
18
18
D8
70
ENDCHAR
STARTCHAR E16B
ENCODING 57707
SWIDTH 960 0
DWIDTH 8 0
BBX 6 7 1 0
BITMAP
CC
D8
F0
E0
F0
D8
CC
ENDCHAR
STARTCHAR E16C
ENCODING 57708
SWIDTH 960 0
DWIDTH 8 0
BBX 6 7 1 0
BITMAP
C0
C0
C0
C0
C0
C0
FC
ENDCHAR
STARTCHAR E16D
ENCODING 57709
SWIDTH 960 0
DWIDTH 8 0
BBX 7 7 1 0
BITMAP
C6
EE
FE
D6
C6
C6
C6
ENDCHAR
STARTCHAR E16E
ENCODING 57710
SWIDTH 960 0
DWIDTH 8 0
BBX 6 7 1 0
BITMAP
CC
EC
FC
FC
DC
CC
CC
ENDCHAR
STARTCHAR E16F
ENCODING 57711
SWIDTH 960 0
DWIDTH 8 0
BBX 6 7 1 0
BITMAP
78
CC
CC
CC
CC
CC
78
ENDCHAR
STARTCHAR E170
ENCODING 57712
SWIDTH 960 0
DWIDTH 8 0
BBX 6 7 1 0
BITMAP
F8
CC
CC
F8
C0
C0
C0
ENDCHAR
STARTCHAR E171
ENCODING 57713
SWIDTH 960 0
DWIDTH 8 0
BBX 6 7 1 0
BITMAP
78
CC
CC
CC
CC
78
1C
ENDCHAR
STARTCHAR E172
ENCODING 57714
SWIDTH 960 0
DWIDTH 8 0
BBX 6 7 1 0
BITMAP
F8
CC
CC
F8
F0
D8
CC
ENDCHAR
STARTCHAR E173
ENCODING 57715
SWIDTH 960 0
DWIDTH 8 0
BBX 6 7 1 0
BITMAP
78
CC
C0
78
0C
CC
78
ENDCHAR
STARTCHAR E174
ENCODING 57716
SWIDTH 960 0
DWIDTH 8 0
BBX 6 7 1 0
BITMAP
FC
30
30
30
30
30
30
ENDCHAR
STARTCHAR E175
ENCODING 57717
SWIDTH 960 0
DWIDTH 8 0
BBX 6 7 1 0
BITMAP
CC
CC
CC
CC
CC
CC
78
ENDCHAR
STARTCHAR E176
ENCODING 57718
SWIDTH 960 0
DWIDTH 8 0
BBX 6 7 1 0
BITMAP
CC
CC
CC
CC
CC
78
30
ENDCHAR
STARTCHAR E177
ENCODING 57719
SWIDTH 960 0
DWIDTH 8 0
BBX 7 7 1 0
BITMAP
C6
C6
C6
D6
FE
EE
C6
ENDCHAR
STARTCHAR E178
ENCODING 57720
SWIDTH 960 0
DWIDTH 8 0
BBX 6 7 1 0
BITMAP
CC
CC
78
30
78
CC
CC
ENDCHAR
STARTCHAR E179
ENCODING 57721
SWIDTH 960 0
DWIDTH 8 0
BBX 6 7 1 0
BITMAP
CC
CC
CC
78
30
30
30
ENDCHAR
STARTCHAR E17A
ENCODING 57722
SWIDTH 960 0
DWIDTH 8 0
BBX 6 7 1 0
BITMAP
FC
0C
18
30
60
C0
FC
ENDCHAR
STARTCHAR E17B
ENCODING 57723
SWIDTH 960 0
DWIDTH 8 0
BBX 8 8 0 -1
BITMAP
18
18
18
FF
FF
18
18
18
ENDCHAR
STARTCHAR E17C
ENCODING 57724
SWIDTH 960 0
DWIDTH 8 0
BBX 4 8 0 -1
BITMAP
C0
C0
30
30
C0
C0
30
30
ENDCHAR
STARTCHAR E17D
ENCODING 57725
SWIDTH 960 0
DWIDTH 8 0
BBX 2 8 3 -1
BITMAP
C0
C0
C0
C0
C0
C0
C0
C0
ENDCHAR
STARTCHAR E17E
ENCODING 57726
SWIDTH 960 0
DWIDTH 8 0
BBX 8 8 0 -1
BITMAP
33
33
CC
CC
33
33
CC
CC
ENDCHAR
STARTCHAR E17F
ENCODING 57727
SWIDTH 960 0
DWIDTH 8 0
BBX 8 8 0 -1
BITMAP
33
99
CC
66
33
99
CC
66
ENDCHAR
STARTCHAR E1A0
ENCODING 57760
SWIDTH 960 0
DWIDTH 8 0
BBX 0 0 0 0
BITMAP
ENDCHAR
STARTCHAR E1A1
ENCODING 57761
SWIDTH 960 0
DWIDTH 8 0
BBX 4 8 0 -1
BITMAP
F0
F0
F0
F0
F0
F0
F0
F0
ENDCHAR
STARTCHAR E1A2
ENCODING 57762
SWIDTH 960 0
DWIDTH 8 0
BBX 8 4 0 -1
BITMAP
FF
FF
FF
FF
ENDCHAR
STARTCHAR E1A3
ENCODING 57763
SWIDTH 960 0
DWIDTH 8 0
BBX 8 1 0 6
BITMAP
FF
ENDCHAR
STARTCHAR E1A4
ENCODING 57764
SWIDTH 960 0
DWIDTH 8 0
BBX 8 1 0 -1
BITMAP
FF
ENDCHAR
STARTCHAR E1A5
ENCODING 57765
SWIDTH 960 0
DWIDTH 8 0
BBX 2 8 0 -1
BITMAP
C0
C0
C0
C0
C0
C0
C0
C0
ENDCHAR
STARTCHAR E1A6
ENCODING 57766
SWIDTH 960 0
DWIDTH 8 0
BBX 8 8 0 -1
BITMAP
CC
CC
33
33
CC
CC
33
33
ENDCHAR
STARTCHAR E1A7
ENCODING 57767
SWIDTH 960 0
DWIDTH 8 0
BBX 2 8 6 -1
BITMAP
C0
C0
C0
C0
C0
C0
C0
C0
ENDCHAR
STARTCHAR E1A8
ENCODING 57768
SWIDTH 960 0
DWIDTH 8 0
BBX 8 4 0 -1
BITMAP
CC
CC
33
33
ENDCHAR
STARTCHAR E1A9
ENCODING 57769
SWIDTH 960 0
DWIDTH 8 0
BBX 8 8 0 -1
BITMAP
CC
99
33
66
CC
99
33
66
ENDCHAR
STARTCHAR E1AA
ENCODING 57770
SWIDTH 960 0
DWIDTH 8 0
BBX 2 8 6 -1
BITMAP
C0
C0
C0
C0
C0
C0
C0
C0
ENDCHAR
STARTCHAR E1AB
ENCODING 57771
SWIDTH 960 0
DWIDTH 8 0
BBX 5 8 3 -1
BITMAP
C0
C0
C0
F8
F8
C0
C0
C0
ENDCHAR
STARTCHAR E1AC
ENCODING 57772
SWIDTH 960 0
DWIDTH 8 0
BBX 4 4 4 -1
BITMAP
F0
F0
F0
F0
ENDCHAR
STARTCHAR E1AD
ENCODING 57773
SWIDTH 960 0
DWIDTH 8 0
BBX 5 5 3 2
BITMAP
C0
C0
C0
F8
F8
ENDCHAR
STARTCHAR E1AE
ENCODING 57774
SWIDTH 960 0
DWIDTH 8 0
BBX 5 5 0 -1
BITMAP
F8
F8
18
18
18
ENDCHAR
STARTCHAR E1AF
ENCODING 57775
SWIDTH 960 0
DWIDTH 8 0
BBX 8 2 0 -1
BITMAP
FF
FF
ENDCHAR
STARTCHAR E1B0
ENCODING 57776
SWIDTH 960 0
DWIDTH 8 0
BBX 5 5 3 -1
BITMAP
F8
F8
C0
C0
C0
ENDCHAR
STARTCHAR E1B1
ENCODING 57777
SWIDTH 960 0
DWIDTH 8 0
BBX 8 5 0 2
BITMAP
18
18
18
FF
FF
ENDCHAR
STARTCHAR E1B2
ENCODING 57778
SWIDTH 960 0
DWIDTH 8 0
BBX 8 5 0 -1
BITMAP
FF
FF
18
18
18
ENDCHAR
STARTCHAR E1B3
ENCODING 57779
SWIDTH 960 0
DWIDTH 8 0
BBX 5 8 0 -1
BITMAP
18
18
18
F8
F8
18
18
18
ENDCHAR
STARTCHAR E1B4
ENCODING 57780
SWIDTH 960 0
DWIDTH 8 0
BBX 2 8 0 -1
BITMAP
C0
C0
C0
C0
C0
C0
C0
C0
ENDCHAR
STARTCHAR E1B5
ENCODING 57781
SWIDTH 960 0
DWIDTH 8 0
BBX 3 8 0 -1
BITMAP
E0
E0
E0
E0
E0
E0
E0
E0
ENDCHAR
STARTCHAR E1B6
ENCODING 57782
SWIDTH 960 0
DWIDTH 8 0
BBX 3 8 5 -1
BITMAP
E0
E0
E0
E0
E0
E0
E0
E0
ENDCHAR
STARTCHAR E1B7
ENCODING 57783
SWIDTH 960 0
DWIDTH 8 0
BBX 8 2 0 5
BITMAP
FF
FF
ENDCHAR
STARTCHAR E1B8
ENCODING 57784
SWIDTH 960 0
DWIDTH 8 0
BBX 8 3 0 4
BITMAP
FF
FF
FF
ENDCHAR
STARTCHAR E1B9
ENCODING 57785
SWIDTH 960 0
DWIDTH 8 0
BBX 8 3 0 -1
BITMAP
FF
FF
FF
ENDCHAR
STARTCHAR E1BA
ENCODING 57786
SWIDTH 960 0
DWIDTH 8 0
BBX 7 7 1 0
BITMAP
02
06
0C
D8
F0
E0
C0
ENDCHAR
STARTCHAR E1BB
ENCODING 57787
SWIDTH 960 0
DWIDTH 8 0
BBX 4 4 0 -1
BITMAP
F0
F0
F0
F0
ENDCHAR
STARTCHAR E1BC
ENCODING 57788
SWIDTH 960 0
DWIDTH 8 0
BBX 4 4 4 3
BITMAP
F0
F0
F0
F0
ENDCHAR
STARTCHAR E1BD
ENCODING 57789
SWIDTH 960 0
DWIDTH 8 0
BBX 5 5 0 2
BITMAP
18
18
18
F8
F8
ENDCHAR
STARTCHAR E1BE
ENCODING 57790
SWIDTH 960 0
DWIDTH 8 0
BBX 4 4 0 3
BITMAP
F0
F0
F0
F0
ENDCHAR
STARTCHAR E1BF
ENCODING 57791
SWIDTH 960 0
DWIDTH 8 0
BBX 8 8 0 -1
BITMAP
F0
F0
F0
F0
0F
0F
0F
0F
ENDCHAR
STARTCHAR E1C0
ENCODING 57792
SWIDTH 960 0
DWIDTH 8 0
BBX 8 2 0 2
BITMAP
FF
FF
ENDCHAR
STARTCHAR E1C1
ENCODING 57793
SWIDTH 960 0
DWIDTH 8 0
BBX 6 7 1 0
BITMAP
30
78
CC
FC
CC
CC
CC
ENDCHAR
STARTCHAR E1C2
ENCODING 57794
SWIDTH 960 0
DWIDTH 8 0
BBX 6 7 1 0
BITMAP
F8
CC
CC
F8
CC
CC
F8
ENDCHAR
STARTCHAR E1C3
ENCODING 57795
SWIDTH 960 0
DWIDTH 8 0
BBX 6 7 1 0
BITMAP
78
CC
C0
C0
C0
CC
78
ENDCHAR
STARTCHAR E1C4
ENCODING 57796
SWIDTH 960 0
DWIDTH 8 0
BBX 6 7 1 0
BITMAP
F0
D8
CC
CC
CC
D8
F0
ENDCHAR
STARTCHAR E1C5
ENCODING 57797
SWIDTH 960 0
DWIDTH 8 0
BBX 6 7 1 0
BITMAP
FC
C0
C0
F0
C0
C0
FC
ENDCHAR
STARTCHAR E1C6
ENCODING 57798
SWIDTH 960 0
DWIDTH 8 0
BBX 6 7 1 0
BITMAP
FC
C0
C0
F0
C0
C0
C0
ENDCHAR
STARTCHAR E1C7
ENCODING 57799
SWIDTH 960 0
DWIDTH 8 0
BBX 6 7 1 0
BITMAP
78
CC
C0
DC
CC
CC
78
ENDCHAR
STARTCHAR E1C8
ENCODING 57800
SWIDTH 960 0
DWIDTH 8 0
BBX 6 7 1 0
BITMAP
CC
CC
CC
FC
CC
CC
CC
ENDCHAR
STARTCHAR E1C9
ENCODING 57801
SWIDTH 960 0
DWIDTH 8 0
BBX 4 7 2 0
BITMAP
F0
60
60
60
60
60
F0
ENDCHAR
STARTCHAR E1CA
ENCODING 57802
SWIDTH 960 0
DWIDTH 8 0
BBX 6 7 1 0
BITMAP
3C
18
18
18
18
D8
70
ENDCHAR
STARTCHAR E1CB
ENCODING 57803
SWIDTH 960 0
DWIDTH 8 0
BBX 6 7 1 0
BITMAP
CC
D8
F0
E0
F0
D8
CC
ENDCHAR
STARTCHAR E1CC
ENCODING 57804
SWIDTH 960 0
DWIDTH 8 0
BBX 6 7 1 0
BITMAP
C0
C0
C0
C0
C0
C0
FC
ENDCHAR
STARTCHAR E1CD
ENCODING 57805
SWIDTH 960 0
DWIDTH 8 0
BBX 7 7 1 0
BITMAP
C6
EE
FE
D6
C6
C6
C6
ENDCHAR
STARTCHAR E1CE
ENCODING 57806
SWIDTH 960 0
DWIDTH 8 0
BBX 6 7 1 0
BITMAP
CC
EC
FC
FC
DC
CC
CC
ENDCHAR
STARTCHAR E1CF
ENCODING 57807
SWIDTH 960 0
DWIDTH 8 0
BBX 6 7 1 0
BITMAP
78
CC
CC
CC
CC
CC
78
ENDCHAR
STARTCHAR E1D0
ENCODING 57808
SWIDTH 960 0
DWIDTH 8 0
BBX 6 7 1 0
BITMAP
F8
CC
CC
F8
C0
C0
C0
ENDCHAR
STARTCHAR E1D1
ENCODING 57809
SWIDTH 960 0
DWIDTH 8 0
BBX 6 7 1 0
BITMAP
78
CC
CC
CC
CC
78
1C
ENDCHAR
STARTCHAR E1D2
ENCODING 57810
SWIDTH 960 0
DWIDTH 8 0
BBX 6 7 1 0
BITMAP
F8
CC
CC
F8
F0
D8
CC
ENDCHAR
STARTCHAR E1D3
ENCODING 57811
SWIDTH 960 0
DWIDTH 8 0
BBX 6 7 1 0
BITMAP
78
CC
C0
78
0C
CC
78
ENDCHAR
STARTCHAR E1D4
ENCODING 57812
SWIDTH 960 0
DWIDTH 8 0
BBX 6 7 1 0
BITMAP
FC
30
30
30
30
30
30
ENDCHAR
STARTCHAR E1D5
ENCODING 57813
SWIDTH 960 0
DWIDTH 8 0
BBX 6 7 1 0
BITMAP
CC
CC
CC
CC
CC
CC
78
ENDCHAR
STARTCHAR E1D6
ENCODING 57814
SWIDTH 960 0
DWIDTH 8 0
BBX 6 7 1 0
BITMAP
CC
CC
CC
CC
CC
78
30
ENDCHAR
STARTCHAR E1D7
ENCODING 57815
SWIDTH 960 0
DWIDTH 8 0
BBX 7 7 1 0
BITMAP
C6
C6
C6
D6
FE
EE
C6
ENDCHAR
STARTCHAR E1D8
ENCODING 57816
SWIDTH 960 0
DWIDTH 8 0
BBX 6 7 1 0
BITMAP
CC
CC
78
30
78
CC
CC
ENDCHAR
STARTCHAR E1D9
ENCODING 57817
SWIDTH 960 0
DWIDTH 8 0
BBX 6 7 1 0
BITMAP
CC
CC
CC
78
30
30
30
ENDCHAR
STARTCHAR E1DA
ENCODING 57818
SWIDTH 960 0
DWIDTH 8 0
BBX 6 7 1 0
BITMAP
FC
0C
18
30
60
C0
FC
ENDCHAR
STARTCHAR E1DB
ENCODING 57819
SWIDTH 960 0
DWIDTH 8 0
BBX 8 8 0 -1
BITMAP
18
18
18
FF
FF
18
18
18
ENDCHAR
STARTCHAR E1DC
ENCODING 57820
SWIDTH 960 0
DWIDTH 8 0
BBX 4 8 0 -1
BITMAP
C0
C0
30
30
C0
C0
30
30
ENDCHAR
STARTCHAR E1DD
ENCODING 57821
SWIDTH 960 0
DWIDTH 8 0
BBX 2 8 3 -1
BITMAP
C0
C0
C0
C0
C0
C0
C0
C0
ENDCHAR
STARTCHAR E1DE
ENCODING 57822
SWIDTH 960 0
DWIDTH 8 0
BBX 8 8 0 -1
BITMAP
33
33
CC
CC
33
33
CC
CC
ENDCHAR
STARTCHAR E1DF
ENCODING 57823
SWIDTH 960 0
DWIDTH 8 0
BBX 8 8 0 -1
BITMAP
33
99
CC
66
33
99
CC
66
ENDCHAR
STARTCHAR E1E0
ENCODING 57824
SWIDTH 960 0
DWIDTH 8 0
BBX 0 0 0 0
BITMAP
ENDCHAR
STARTCHAR E1E1
ENCODING 57825
SWIDTH 960 0
DWIDTH 8 0
BBX 4 8 0 -1
BITMAP
F0
F0
F0
F0
F0
F0
F0
F0
ENDCHAR
STARTCHAR E1E2
ENCODING 57826
SWIDTH 960 0
DWIDTH 8 0
BBX 8 4 0 -1
BITMAP
FF
FF
FF
FF
ENDCHAR
STARTCHAR E1E3
ENCODING 57827
SWIDTH 960 0
DWIDTH 8 0
BBX 8 1 0 6
BITMAP
FF
ENDCHAR
STARTCHAR E1E4
ENCODING 57828
SWIDTH 960 0
DWIDTH 8 0
BBX 8 1 0 -1
BITMAP
FF
ENDCHAR
STARTCHAR E1E5
ENCODING 57829
SWIDTH 960 0
DWIDTH 8 0
BBX 2 8 0 -1
BITMAP
C0
C0
C0
C0
C0
C0
C0
C0
ENDCHAR
STARTCHAR E1E6
ENCODING 57830
SWIDTH 960 0
DWIDTH 8 0
BBX 8 8 0 -1
BITMAP
CC
CC
33
33
CC
CC
33
33
ENDCHAR
STARTCHAR E1E7
ENCODING 57831
SWIDTH 960 0
DWIDTH 8 0
BBX 2 8 6 -1
BITMAP
C0
C0
C0
C0
C0
C0
C0
C0
ENDCHAR
STARTCHAR E1E8
ENCODING 57832
SWIDTH 960 0
DWIDTH 8 0
BBX 8 4 0 -1
BITMAP
CC
CC
33
33
ENDCHAR
STARTCHAR E1E9
ENCODING 57833
SWIDTH 960 0
DWIDTH 8 0
BBX 8 8 0 -1
BITMAP
CC
99
33
66
CC
99
33
66
ENDCHAR
STARTCHAR E1EA
ENCODING 57834
SWIDTH 960 0
DWIDTH 8 0
BBX 2 8 6 -1
BITMAP
C0
C0
C0
C0
C0
C0
C0
C0
ENDCHAR
STARTCHAR E1EB
ENCODING 57835
SWIDTH 960 0
DWIDTH 8 0
BBX 5 8 3 -1
BITMAP
C0
C0
C0
F8
F8
C0
C0
C0
ENDCHAR
STARTCHAR E1EC
ENCODING 57836
SWIDTH 960 0
DWIDTH 8 0
BBX 4 4 4 -1
BITMAP
F0
F0
F0
F0
ENDCHAR
STARTCHAR E1ED
ENCODING 57837
SWIDTH 960 0
DWIDTH 8 0
BBX 5 5 3 2
BITMAP
C0
C0
C0
F8
F8
ENDCHAR
STARTCHAR E1EE
ENCODING 57838
SWIDTH 960 0
DWIDTH 8 0
BBX 5 5 0 -1
BITMAP
F8
F8
18
18
18
ENDCHAR
STARTCHAR E1EF
ENCODING 57839
SWIDTH 960 0
DWIDTH 8 0
BBX 8 2 0 -1
BITMAP
FF
FF
ENDCHAR
STARTCHAR E1F0
ENCODING 57840
SWIDTH 960 0
DWIDTH 8 0
BBX 5 5 3 -1
BITMAP
F8
F8
C0
C0
C0
ENDCHAR
STARTCHAR E1F1
ENCODING 57841
SWIDTH 960 0
DWIDTH 8 0
BBX 8 5 0 2
BITMAP
18
18
18
FF
FF
ENDCHAR
STARTCHAR E1F2
ENCODING 57842
SWIDTH 960 0
DWIDTH 8 0
BBX 8 5 0 -1
BITMAP
FF
FF
18
18
18
ENDCHAR
STARTCHAR E1F3
ENCODING 57843
SWIDTH 960 0
DWIDTH 8 0
BBX 5 8 0 -1
BITMAP
18
18
18
F8
F8
18
18
18
ENDCHAR
STARTCHAR E1F4
ENCODING 57844
SWIDTH 960 0
DWIDTH 8 0
BBX 2 8 0 -1
BITMAP
C0
C0
C0
C0
C0
C0
C0
C0
ENDCHAR
STARTCHAR E1F5
ENCODING 57845
SWIDTH 960 0
DWIDTH 8 0
BBX 3 8 0 -1
BITMAP
E0
E0
E0
E0
E0
E0
E0
E0
ENDCHAR
STARTCHAR E1F6
ENCODING 57846
SWIDTH 960 0
DWIDTH 8 0
BBX 3 8 5 -1
BITMAP
E0
E0
E0
E0
E0
E0
E0
E0
ENDCHAR
STARTCHAR E1F7
ENCODING 57847
SWIDTH 960 0
DWIDTH 8 0
BBX 8 2 0 5
BITMAP
FF
FF
ENDCHAR
STARTCHAR E1F8
ENCODING 57848
SWIDTH 960 0
DWIDTH 8 0
BBX 8 3 0 4
BITMAP
FF
FF
FF
ENDCHAR
STARTCHAR E1F9
ENCODING 57849
SWIDTH 960 0
DWIDTH 8 0
BBX 8 3 0 -1
BITMAP
FF
FF
FF
ENDCHAR
STARTCHAR E1FA
ENCODING 57850
SWIDTH 960 0
DWIDTH 8 0
BBX 7 7 1 0
BITMAP
02
06
0C
D8
F0
E0
C0
ENDCHAR
STARTCHAR E1FB
ENCODING 57851
SWIDTH 960 0
DWIDTH 8 0
BBX 4 4 0 -1
BITMAP
F0
F0
F0
F0
ENDCHAR
STARTCHAR E1FC
ENCODING 57852
SWIDTH 960 0
DWIDTH 8 0
BBX 4 4 4 3
BITMAP
F0
F0
F0
F0
ENDCHAR
STARTCHAR E1FD
ENCODING 57853
SWIDTH 960 0
DWIDTH 8 0
BBX 5 5 0 2
BITMAP
18
18
18
F8
F8
ENDCHAR
STARTCHAR E1FE
ENCODING 57854
SWIDTH 960 0
DWIDTH 8 0
BBX 4 4 0 3
BITMAP
F0
F0
F0
F0
ENDCHAR
STARTCHAR E1FF
ENCODING 57855
SWIDTH 960 0
DWIDTH 8 0
BBX 8 8 0 -1
BITMAP
33
33
CC
CC
33
33
CC
CC
ENDCHAR
STARTCHAR E220
ENCODING 57888
SWIDTH 960 0
DWIDTH 8 0
BBX 8 8 0 -1
BITMAP
FF
FF
FF
FF
FF
FF
FF
FF
ENDCHAR
STARTCHAR E221
ENCODING 57889
SWIDTH 960 0
DWIDTH 8 0
BBX 8 8 0 -1
BITMAP
E7
E7
E7
E7
FF
FF
E7
FF
ENDCHAR
STARTCHAR E222
ENCODING 57890
SWIDTH 960 0
DWIDTH 8 0
BBX 8 8 0 -1
BITMAP
99
99
99
FF
FF
FF
FF
FF
ENDCHAR
STARTCHAR E223
ENCODING 57891
SWIDTH 960 0
DWIDTH 8 0
BBX 8 8 0 -1
BITMAP
99
99
00
99
00
99
99
FF
ENDCHAR
STARTCHAR E224
ENCODING 57892
SWIDTH 960 0
DWIDTH 8 0
BBX 8 8 0 -1
BITMAP
E7
C1
9F
C3
F9
83
E7
FF
ENDCHAR
STARTCHAR E225
ENCODING 57893
SWIDTH 960 0
DWIDTH 8 0
BBX 8 8 0 -1
BITMAP
9D
99
F3
E7
CF
99
B9
FF
ENDCHAR
STARTCHAR E226
ENCODING 57894
SWIDTH 960 0
DWIDTH 8 0
BBX 8 8 0 -1
BITMAP
C3
99
C3
C7
98
99
C0
FF
ENDCHAR
STARTCHAR E227
ENCODING 57895
SWIDTH 960 0
DWIDTH 8 0
BBX 8 8 0 -1
BITMAP
F9
F3
E7
FF
FF
FF
FF
FF
ENDCHAR
STARTCHAR E228
ENCODING 57896
SWIDTH 960 0
DWIDTH 8 0
BBX 8 8 0 -1
BITMAP
F3
E7
CF
CF
CF
E7
F3
FF
ENDCHAR
STARTCHAR E229
ENCODING 57897
SWIDTH 960 0
DWIDTH 8 0
BBX 8 8 0 -1
BITMAP
CF
E7
F3
F3
F3
E7
CF
FF
ENDCHAR
STARTCHAR E22A
ENCODING 57898
SWIDTH 960 0
DWIDTH 8 0
BBX 8 8 0 -1
BITMAP
FF
99
C3
00
C3
99
FF
FF
ENDCHAR
STARTCHAR E22B
ENCODING 57899
SWIDTH 960 0
DWIDTH 8 0
BBX 8 8 0 -1
BITMAP
FF
E7
E7
81
E7
E7
FF
FF
ENDCHAR
STARTCHAR E22C
ENCODING 57900
SWIDTH 960 0
DWIDTH 8 0
BBX 8 8 0 -1
BITMAP
FF
FF
FF
FF
FF
E7
E7
CF
ENDCHAR
STARTCHAR E22D
ENCODING 57901
SWIDTH 960 0
DWIDTH 8 0
BBX 8 8 0 -1
BITMAP
FF
FF
FF
81
FF
FF
FF
FF
ENDCHAR
STARTCHAR E22E
ENCODING 57902
SWIDTH 960 0
DWIDTH 8 0
BBX 8 8 0 -1
BITMAP
FF
FF
FF
FF
FF
E7
E7
FF
ENDCHAR
STARTCHAR E22F
ENCODING 57903
SWIDTH 960 0
DWIDTH 8 0
BBX 8 8 0 -1
BITMAP
FF
FC
F9
F3
E7
CF
9F
FF
ENDCHAR
STARTCHAR E230
ENCODING 57904
SWIDTH 960 0
DWIDTH 8 0
BBX 8 8 0 -1
BITMAP
C3
99
91
89
99
99
C3
FF
ENDCHAR
STARTCHAR E231
ENCODING 57905
SWIDTH 960 0
DWIDTH 8 0
BBX 8 8 0 -1
BITMAP
E7
E7
C7
E7
E7
E7
81
FF
ENDCHAR
STARTCHAR E232
ENCODING 57906
SWIDTH 960 0
DWIDTH 8 0
BBX 8 8 0 -1
BITMAP
C3
99
F9
F3
CF
9F
81
FF
ENDCHAR
STARTCHAR E233
ENCODING 57907
SWIDTH 960 0
DWIDTH 8 0
BBX 8 8 0 -1
BITMAP
C3
99
F9
E3
F9
99
C3
FF
ENDCHAR
STARTCHAR E234
ENCODING 57908
SWIDTH 960 0
DWIDTH 8 0
BBX 8 8 0 -1
BITMAP
F9
F1
E1
99
80
F9
F9
FF
ENDCHAR
STARTCHAR E235
ENCODING 57909
SWIDTH 960 0
DWIDTH 8 0
BBX 8 8 0 -1
BITMAP
81
9F
83
F9
F9
99
C3
FF
ENDCHAR
STARTCHAR E236
ENCODING 57910
SWIDTH 960 0
DWIDTH 8 0
BBX 8 8 0 -1
BITMAP
C3
99
9F
83
99
99
C3
FF
ENDCHAR
STARTCHAR E237
ENCODING 57911
SWIDTH 960 0
DWIDTH 8 0
BBX 8 8 0 -1
BITMAP
81
99
F3
E7
E7
E7
E7
FF
ENDCHAR
STARTCHAR E238
ENCODING 57912
SWIDTH 960 0
DWIDTH 8 0
BBX 8 8 0 -1
BITMAP
C3
99
99
C3
99
99
C3
FF
ENDCHAR
STARTCHAR E239
ENCODING 57913
SWIDTH 960 0
DWIDTH 8 0
BBX 8 8 0 -1
BITMAP
C3
99
99
C1
F9
99
C3
FF
ENDCHAR
STARTCHAR E23A
ENCODING 57914
SWIDTH 960 0
DWIDTH 8 0
BBX 8 8 0 -1
BITMAP
FF
FF
E7
FF
FF
E7
FF
FF
ENDCHAR
STARTCHAR E23B
ENCODING 57915
SWIDTH 960 0
DWIDTH 8 0
BBX 8 8 0 -1
BITMAP
FF
FF
E7
FF
FF
E7
E7
CF
ENDCHAR
STARTCHAR E23C
ENCODING 57916
SWIDTH 960 0
DWIDTH 8 0
BBX 8 8 0 -1
BITMAP
F1
E7
CF
9F
CF
E7
F1
FF
ENDCHAR
STARTCHAR E23D
ENCODING 57917
SWIDTH 960 0
DWIDTH 8 0
BBX 8 8 0 -1
BITMAP
FF
FF
81
FF
81
FF
FF
FF
ENDCHAR
STARTCHAR E23E
ENCODING 57918
SWIDTH 960 0
DWIDTH 8 0
BBX 8 8 0 -1
BITMAP
8F
E7
F3
F9
F3
E7
8F
FF
ENDCHAR
STARTCHAR E23F
ENCODING 57919
SWIDTH 960 0
DWIDTH 8 0
BBX 8 8 0 -1
BITMAP
C3
99
F9
F3
E7
FF
E7
FF
ENDCHAR
STARTCHAR E240
ENCODING 57920
SWIDTH 960 0
DWIDTH 8 0
BBX 8 8 0 -1
BITMAP
C3
99
91
91
9F
99
C3
FF
ENDCHAR
STARTCHAR E241
ENCODING 57921
SWIDTH 960 0
DWIDTH 8 0
BBX 8 8 0 -1
BITMAP
E7
C3
99
81
99
99
99
FF
ENDCHAR
STARTCHAR E242
ENCODING 57922
SWIDTH 960 0
DWIDTH 8 0
BBX 8 8 0 -1
BITMAP
83
99
99
83
99
99
83
FF
ENDCHAR
STARTCHAR E243
ENCODING 57923
SWIDTH 960 0
DWIDTH 8 0
BBX 8 8 0 -1
BITMAP
C3
99
9F
9F
9F
99
C3
FF
ENDCHAR
STARTCHAR E244
ENCODING 57924
SWIDTH 960 0
DWIDTH 8 0
BBX 8 8 0 -1
BITMAP
87
93
99
99
99
93
87
FF
ENDCHAR
STARTCHAR E245
ENCODING 57925
SWIDTH 960 0
DWIDTH 8 0
BBX 8 8 0 -1
BITMAP
81
9F
9F
87
9F
9F
81
FF
ENDCHAR
STARTCHAR E246
ENCODING 57926
SWIDTH 960 0
DWIDTH 8 0
BBX 8 8 0 -1
BITMAP
81
9F
9F
87
9F
9F
9F
FF
ENDCHAR
STARTCHAR E247
ENCODING 57927
SWIDTH 960 0
DWIDTH 8 0
BBX 8 8 0 -1
BITMAP
C3
99
9F
91
99
99
C3
FF
ENDCHAR
STARTCHAR E248
ENCODING 57928
SWIDTH 960 0
DWIDTH 8 0
BBX 8 8 0 -1
BITMAP
99
99
99
81
99
99
99
FF
ENDCHAR
STARTCHAR E249
ENCODING 57929
SWIDTH 960 0
DWIDTH 8 0
BBX 8 8 0 -1
BITMAP
C3
E7
E7
E7
E7
E7
C3
FF
ENDCHAR
STARTCHAR E24A
ENCODING 57930
SWIDTH 960 0
DWIDTH 8 0
BBX 8 8 0 -1
BITMAP
E1
F3
F3
F3
F3
93
C7
FF
ENDCHAR
STARTCHAR E24B
ENCODING 57931
SWIDTH 960 0
DWIDTH 8 0
BBX 8 8 0 -1
BITMAP
99
93
87
8F
87
93
99
FF
ENDCHAR
STARTCHAR E24C
ENCODING 57932
SWIDTH 960 0
DWIDTH 8 0
BBX 8 8 0 -1
BITMAP
9F
9F
9F
9F
9F
9F
81
FF
ENDCHAR
STARTCHAR E24D
ENCODING 57933
SWIDTH 960 0
DWIDTH 8 0
BBX 8 8 0 -1
BITMAP
9C
88
80
94
9C
9C
9C
FF
ENDCHAR
STARTCHAR E24E
ENCODING 57934
SWIDTH 960 0
DWIDTH 8 0
BBX 8 8 0 -1
BITMAP
99
89
81
81
91
99
99
FF
ENDCHAR
STARTCHAR E24F
ENCODING 57935
SWIDTH 960 0
DWIDTH 8 0
BBX 8 8 0 -1
BITMAP
C3
99
99
99
99
99
C3
FF
ENDCHAR
STARTCHAR E250
ENCODING 57936
SWIDTH 960 0
DWIDTH 8 0
BBX 8 8 0 -1
BITMAP
83
99
99
83
9F
9F
9F
FF
ENDCHAR
STARTCHAR E251
ENCODING 57937
SWIDTH 960 0
DWIDTH 8 0
BBX 8 8 0 -1
BITMAP
C3
99
99
99
99
C3
F1
FF
ENDCHAR
STARTCHAR E252
ENCODING 57938
SWIDTH 960 0
DWIDTH 8 0
BBX 8 8 0 -1
BITMAP
83
99
99
83
87
93
99
FF
ENDCHAR
STARTCHAR E253
ENCODING 57939
SWIDTH 960 0
DWIDTH 8 0
BBX 8 8 0 -1
BITMAP
C3
99
9F
C3
F9
99
C3
FF
ENDCHAR
STARTCHAR E254
ENCODING 57940
SWIDTH 960 0
DWIDTH 8 0
BBX 8 8 0 -1
BITMAP
81
E7
E7
E7
E7
E7
E7
FF
ENDCHAR
STARTCHAR E255
ENCODING 57941
SWIDTH 960 0
DWIDTH 8 0
BBX 8 8 0 -1
BITMAP
99
99
99
99
99
99
C3
FF
ENDCHAR
STARTCHAR E256
ENCODING 57942
SWIDTH 960 0
DWIDTH 8 0
BBX 8 8 0 -1
BITMAP
99
99
99
99
99
C3
E7
FF
ENDCHAR
STARTCHAR E257
ENCODING 57943
SWIDTH 960 0
DWIDTH 8 0
BBX 8 8 0 -1
BITMAP
9C
9C
9C
94
80
88
9C
FF
ENDCHAR
STARTCHAR E258
ENCODING 57944
SWIDTH 960 0
DWIDTH 8 0
BBX 8 8 0 -1
BITMAP
99
99
C3
E7
C3
99
99
FF
ENDCHAR
STARTCHAR E259
ENCODING 57945
SWIDTH 960 0
DWIDTH 8 0
BBX 8 8 0 -1
BITMAP
99
99
99
C3
E7
E7
E7
FF
ENDCHAR
STARTCHAR E25A
ENCODING 57946
SWIDTH 960 0
DWIDTH 8 0
BBX 8 8 0 -1
BITMAP
81
F9
F3
E7
CF
9F
81
FF
ENDCHAR
STARTCHAR E25B
ENCODING 57947
SWIDTH 960 0
DWIDTH 8 0
BBX 8 8 0 -1
BITMAP
C3
CF
CF
CF
CF
CF
C3
FF
ENDCHAR
STARTCHAR E25C
ENCODING 57948
SWIDTH 960 0
DWIDTH 8 0
BBX 8 8 0 -1
BITMAP
F3
ED
CF
83
CF
9D
03
FF
ENDCHAR
STARTCHAR E25D
ENCODING 57949
SWIDTH 960 0
DWIDTH 8 0
BBX 8 8 0 -1
BITMAP
C3
F3
F3
F3
F3
F3
C3
FF
ENDCHAR
STARTCHAR E25E
ENCODING 57950
SWIDTH 960 0
DWIDTH 8 0
BBX 8 8 0 -1
BITMAP
FF
E7
C3
81
E7
E7
E7
E7
ENDCHAR
STARTCHAR E25F
ENCODING 57951
SWIDTH 960 0
DWIDTH 8 0
BBX 8 8 0 -1
BITMAP
FF
EF
CF
80
80
CF
EF
FF
ENDCHAR
STARTCHAR E260
ENCODING 57952
SWIDTH 960 0
DWIDTH 8 0
BBX 8 8 0 -1
BITMAP
FF
FF
FF
00
00
FF
FF
FF
ENDCHAR
STARTCHAR E261
ENCODING 57953
SWIDTH 960 0
DWIDTH 8 0
BBX 8 8 0 -1
BITMAP
F7
E3
C1
80
80
E3
C1
FF
ENDCHAR
STARTCHAR E262
ENCODING 57954
SWIDTH 960 0
DWIDTH 8 0
BBX 8 8 0 -1
BITMAP
E7
E7
E7
E7
E7
E7
E7
E7
ENDCHAR
STARTCHAR E263
ENCODING 57955
SWIDTH 960 0
DWIDTH 8 0
BBX 8 8 0 -1
BITMAP
FF
FF
FF
00
00
FF
FF
FF
ENDCHAR
STARTCHAR E264
ENCODING 57956
SWIDTH 960 0
DWIDTH 8 0
BBX 8 8 0 -1
BITMAP
FF
FF
00
00
FF
FF
FF
FF
ENDCHAR
STARTCHAR E265
ENCODING 57957
SWIDTH 960 0
DWIDTH 8 0
BBX 8 8 0 -1
BITMAP
FF
00
00
FF
FF
FF
FF
FF
ENDCHAR
STARTCHAR E266
ENCODING 57958
SWIDTH 960 0
DWIDTH 8 0
BBX 8 8 0 -1
BITMAP
FF
FF
FF
FF
00
00
FF
FF
ENDCHAR
STARTCHAR E267
ENCODING 57959
SWIDTH 960 0
DWIDTH 8 0
BBX 8 8 0 -1
BITMAP
CF
CF
CF
CF
CF
CF
CF
CF
ENDCHAR
STARTCHAR E268
ENCODING 57960
SWIDTH 960 0
DWIDTH 8 0
BBX 8 8 0 -1
BITMAP
F3
F3
F3
F3
F3
F3
F3
F3
ENDCHAR
STARTCHAR E269
ENCODING 57961
SWIDTH 960 0
DWIDTH 8 0
BBX 8 8 0 -1
BITMAP
FF
FF
FF
1F
0F
C7
E7
E7
ENDCHAR
STARTCHAR E26A
ENCODING 57962
SWIDTH 960 0
DWIDTH 8 0
BBX 8 8 0 -1
BITMAP
E7
E7
E3
F0
F8
FF
FF
FF
ENDCHAR
STARTCHAR E26B
ENCODING 57963
SWIDTH 960 0
DWIDTH 8 0
BBX 8 8 0 -1
BITMAP
E7
E7
C7
0F
1F
FF
FF
FF
ENDCHAR
STARTCHAR E26C
ENCODING 57964
SWIDTH 960 0
DWIDTH 8 0
BBX 6 6 2 1
BITMAP
FC
FC
FC
FC
FC
FC
ENDCHAR
STARTCHAR E26D
ENCODING 57965
SWIDTH 960 0
DWIDTH 8 0
BBX 8 8 0 -1
BITMAP
3F
1F
8F
C7
E3
F1
F8
FC
ENDCHAR
STARTCHAR E26E
ENCODING 57966
SWIDTH 960 0
DWIDTH 8 0
BBX 8 8 0 -1
BITMAP
FC
F8
F1
E3
C7
8F
1F
3F
ENDCHAR
STARTCHAR E26F
ENCODING 57967
SWIDTH 960 0
DWIDTH 8 0
BBX 6 6 2 -1
BITMAP
FC
FC
FC
FC
FC
FC
ENDCHAR
STARTCHAR E270
ENCODING 57968
SWIDTH 960 0
DWIDTH 8 0
BBX 6 6 0 -1
BITMAP
FC
FC
FC
FC
FC
FC
ENDCHAR
STARTCHAR E271
ENCODING 57969
SWIDTH 960 0
DWIDTH 8 0
BBX 8 8 0 -1
BITMAP
FF
C3
81
81
81
81
C3
FF
ENDCHAR
STARTCHAR E272
ENCODING 57970
SWIDTH 960 0
DWIDTH 8 0
BBX 8 8 0 -1
BITMAP
FF
FF
FF
FF
FF
00
00
FF
ENDCHAR
STARTCHAR E273
ENCODING 57971
SWIDTH 960 0
DWIDTH 8 0
BBX 8 8 0 -1
BITMAP
C9
80
80
80
C1
E3
F7
FF
ENDCHAR
STARTCHAR E274
ENCODING 57972
SWIDTH 960 0
DWIDTH 8 0
BBX 8 8 0 -1
BITMAP
9F
9F
9F
9F
9F
9F
9F
9F
ENDCHAR
STARTCHAR E275
ENCODING 57973
SWIDTH 960 0
DWIDTH 8 0
BBX 8 8 0 -1
BITMAP
FF
FF
FF
F8
F0
E3
E7
E7
ENDCHAR
STARTCHAR E276
ENCODING 57974
SWIDTH 960 0
DWIDTH 8 0
BBX 8 8 0 -1
BITMAP
3C
18
81
C3
C3
81
18
3C
ENDCHAR
STARTCHAR E277
ENCODING 57975
SWIDTH 960 0
DWIDTH 8 0
BBX 8 8 0 -1
BITMAP
FF
C3
81
99
99
81
C3
FF
ENDCHAR
STARTCHAR E278
ENCODING 57976
SWIDTH 960 0
DWIDTH 8 0
BBX 8 8 0 -1
BITMAP
E7
E7
99
99
E7
E7
C3
FF
ENDCHAR
STARTCHAR E279
ENCODING 57977
SWIDTH 960 0
DWIDTH 8 0
BBX 8 8 0 -1
BITMAP
F9
F9
F9
F9
F9
F9
F9
F9
ENDCHAR
STARTCHAR E27A
ENCODING 57978
SWIDTH 960 0
DWIDTH 8 0
BBX 8 8 0 -1
BITMAP
F7
E3
C1
80
C1
E3
F7
FF
ENDCHAR
STARTCHAR E27B
ENCODING 57979
SWIDTH 960 0
DWIDTH 8 0
BBX 8 8 0 -1
BITMAP
E7
E7
E7
00
00
E7
E7
E7
ENDCHAR
STARTCHAR E27C
ENCODING 57980
SWIDTH 960 0
DWIDTH 8 0
BBX 8 8 0 -1
BITMAP
3F
3F
CF
CF
3F
3F
CF
CF
ENDCHAR
STARTCHAR E27D
ENCODING 57981
SWIDTH 960 0
DWIDTH 8 0
BBX 8 8 0 -1
BITMAP
E7
E7
E7
E7
E7
E7
E7
E7
ENDCHAR
STARTCHAR E27E
ENCODING 57982
SWIDTH 960 0
DWIDTH 8 0
BBX 8 8 0 -1
BITMAP
FF
FF
FC
C1
89
C9
C9
FF
ENDCHAR
STARTCHAR E27F
ENCODING 57983
SWIDTH 960 0
DWIDTH 8 0
BBX 7 7 0 -1
BITMAP
80
C0
E0
F0
F8
FC
FE
ENDCHAR
STARTCHAR E2A0
ENCODING 58016
SWIDTH 960 0
DWIDTH 8 0
BBX 8 8 0 -1
BITMAP
FF
FF
FF
FF
FF
FF
FF
FF
ENDCHAR
STARTCHAR E2A1
ENCODING 58017
SWIDTH 960 0
DWIDTH 8 0
BBX 4 8 4 -1
BITMAP
F0
F0
F0
F0
F0
F0
F0
F0
ENDCHAR
STARTCHAR E2A2
ENCODING 58018
SWIDTH 960 0
DWIDTH 8 0
BBX 8 4 0 3
BITMAP
FF
FF
FF
FF
ENDCHAR
STARTCHAR E2A3
ENCODING 58019
SWIDTH 960 0
DWIDTH 8 0
BBX 8 7 0 -1
BITMAP
FF
FF
FF
FF
FF
FF
FF
ENDCHAR
STARTCHAR E2A4
ENCODING 58020
SWIDTH 960 0
DWIDTH 8 0
BBX 8 7 0 0
BITMAP
FF
FF
FF
FF
FF
FF
FF
ENDCHAR
STARTCHAR E2A5
ENCODING 58021
SWIDTH 960 0
DWIDTH 8 0
BBX 6 8 2 -1
BITMAP
FC
FC
FC
FC
FC
FC
FC
FC
ENDCHAR
STARTCHAR E2A6
ENCODING 58022
SWIDTH 960 0
DWIDTH 8 0
BBX 8 8 0 -1
BITMAP
33
33
CC
CC
33
33
CC
CC
ENDCHAR
STARTCHAR E2A7
ENCODING 58023
SWIDTH 960 0
DWIDTH 8 0
BBX 6 8 0 -1
BITMAP
FC
FC
FC
FC
FC
FC
FC
FC
ENDCHAR
STARTCHAR E2A8
ENCODING 58024
SWIDTH 960 0
DWIDTH 8 0
BBX 8 8 0 -1
BITMAP
FF
FF
FF
FF
33
33
CC
CC
ENDCHAR
STARTCHAR E2A9
ENCODING 58025
SWIDTH 960 0
DWIDTH 8 0
BBX 7 7 1 -1
BITMAP
02
06
0E
1E
3E
7E
FE
ENDCHAR
STARTCHAR E2AA
ENCODING 58026
SWIDTH 960 0
DWIDTH 8 0
BBX 6 8 0 -1
BITMAP
FC
FC
FC
FC
FC
FC
FC
FC
ENDCHAR
STARTCHAR E2AB
ENCODING 58027
SWIDTH 960 0
DWIDTH 8 0
BBX 8 8 0 -1
BITMAP
E7
E7
E7
E0
E0
E7
E7
E7
ENDCHAR
STARTCHAR E2AC
ENCODING 58028
SWIDTH 960 0
DWIDTH 8 0
BBX 8 8 0 -1
BITMAP
FF
FF
FF
FF
F0
F0
F0
F0
ENDCHAR
STARTCHAR E2AD
ENCODING 58029
SWIDTH 960 0
DWIDTH 8 0
BBX 8 8 0 -1
BITMAP
E7
E7
E7
E0
E0
FF
FF
FF
ENDCHAR
STARTCHAR E2AE
ENCODING 58030
SWIDTH 960 0
DWIDTH 8 0
BBX 8 8 0 -1
BITMAP
FF
FF
FF
07
07
E7
E7
E7
ENDCHAR
STARTCHAR E2AF
ENCODING 58031
SWIDTH 960 0
DWIDTH 8 0
BBX 8 6 0 1
BITMAP
FF
FF
FF
FF
FF
FF
ENDCHAR
STARTCHAR E2B0
ENCODING 58032
SWIDTH 960 0
DWIDTH 8 0
BBX 8 8 0 -1
BITMAP
FF
FF
FF
E0
E0
E7
E7
E7
ENDCHAR
STARTCHAR E2B1
ENCODING 58033
SWIDTH 960 0
DWIDTH 8 0
BBX 8 8 0 -1
BITMAP
E7
E7
E7
00
00
FF
FF
FF
ENDCHAR
STARTCHAR E2B2
ENCODING 58034
SWIDTH 960 0
DWIDTH 8 0
BBX 8 8 0 -1
BITMAP
FF
FF
FF
00
00
E7
E7
E7
ENDCHAR
STARTCHAR E2B3
ENCODING 58035
SWIDTH 960 0
DWIDTH 8 0
BBX 8 8 0 -1
BITMAP
E7
E7
E7
07
07
E7
E7
E7
ENDCHAR
STARTCHAR E2B4
ENCODING 58036
SWIDTH 960 0
DWIDTH 8 0
BBX 6 8 2 -1
BITMAP
FC
FC
FC
FC
FC
FC
FC
FC
ENDCHAR
STARTCHAR E2B5
ENCODING 58037
SWIDTH 960 0
DWIDTH 8 0
BBX 5 8 3 -1
BITMAP
F8
F8
F8
F8
F8
F8
F8
F8
ENDCHAR
STARTCHAR E2B6
ENCODING 58038
SWIDTH 960 0
DWIDTH 8 0
BBX 5 8 0 -1
BITMAP
F8
F8
F8
F8
F8
F8
F8
F8
ENDCHAR
STARTCHAR E2B7
ENCODING 58039
SWIDTH 960 0
DWIDTH 8 0
BBX 8 6 0 -1
BITMAP
FF
FF
FF
FF
FF
FF
ENDCHAR
STARTCHAR E2B8
ENCODING 58040
SWIDTH 960 0
DWIDTH 8 0
BBX 8 5 0 -1
BITMAP
FF
FF
FF
FF
FF
ENDCHAR
STARTCHAR E2B9
ENCODING 58041
SWIDTH 960 0
DWIDTH 8 0
BBX 8 5 0 2
BITMAP
FF
FF
FF
FF
FF
ENDCHAR
STARTCHAR E2BA
ENCODING 58042
SWIDTH 960 0
DWIDTH 8 0
BBX 6 6 0 1
BITMAP
FC
FC
FC
FC
FC
FC
ENDCHAR
STARTCHAR E2BB
ENCODING 58043
SWIDTH 960 0
DWIDTH 8 0
BBX 8 8 0 -1
BITMAP
FF
FF
FF
FF
0F
0F
0F
0F
ENDCHAR
STARTCHAR E2BC
ENCODING 58044
SWIDTH 960 0
DWIDTH 8 0
BBX 8 8 0 -1
BITMAP
F0
F0
F0
F0
FF
FF
FF
FF
ENDCHAR
STARTCHAR E2BD
ENCODING 58045
SWIDTH 960 0
DWIDTH 8 0
BBX 8 8 0 -1
BITMAP
E7
E7
E7
07
07
FF
FF
FF
ENDCHAR
STARTCHAR E2BE
ENCODING 58046
SWIDTH 960 0
DWIDTH 8 0
BBX 8 8 0 -1
BITMAP
0F
0F
0F
0F
FF
FF
FF
FF
ENDCHAR
STARTCHAR E2BF
ENCODING 58047
SWIDTH 960 0
DWIDTH 8 0
BBX 8 8 0 -1
BITMAP
0F
0F
0F
0F
F0
F0
F0
F0
ENDCHAR
STARTCHAR E2C0
ENCODING 58048
SWIDTH 960 0
DWIDTH 8 0
BBX 8 8 0 -1
BITMAP
FF
FF
FF
00
00
FF
FF
FF
ENDCHAR
STARTCHAR E2C1
ENCODING 58049
SWIDTH 960 0
DWIDTH 8 0
BBX 8 8 0 -1
BITMAP
F7
E3
C1
80
80
E3
C1
FF
ENDCHAR
STARTCHAR E2C2
ENCODING 58050
SWIDTH 960 0
DWIDTH 8 0
BBX 8 8 0 -1
BITMAP
E7
E7
E7
E7
E7
E7
E7
E7
ENDCHAR
STARTCHAR E2C3
ENCODING 58051
SWIDTH 960 0
DWIDTH 8 0
BBX 8 8 0 -1
BITMAP
FF
FF
FF
00
00
FF
FF
FF
ENDCHAR
STARTCHAR E2C4
ENCODING 58052
SWIDTH 960 0
DWIDTH 8 0
BBX 8 8 0 -1
BITMAP
FF
FF
00
00
FF
FF
FF
FF
ENDCHAR
STARTCHAR E2C5
ENCODING 58053
SWIDTH 960 0
DWIDTH 8 0
BBX 8 8 0 -1
BITMAP
FF
00
00
FF
FF
FF
FF
FF
ENDCHAR
STARTCHAR E2C6
ENCODING 58054
SWIDTH 960 0
DWIDTH 8 0
BBX 8 8 0 -1
BITMAP
FF
FF
FF
FF
00
00
FF
FF
ENDCHAR
STARTCHAR E2C7
ENCODING 58055
SWIDTH 960 0
DWIDTH 8 0
BBX 8 8 0 -1
BITMAP
CF
CF
CF
CF
CF
CF
CF
CF
ENDCHAR
STARTCHAR E2C8
ENCODING 58056
SWIDTH 960 0
DWIDTH 8 0
BBX 8 8 0 -1
BITMAP
F3
F3
F3
F3
F3
F3
F3
F3
ENDCHAR
STARTCHAR E2C9
ENCODING 58057
SWIDTH 960 0
DWIDTH 8 0
BBX 8 8 0 -1
BITMAP
FF
FF
FF
1F
0F
C7
E7
E7
ENDCHAR
STARTCHAR E2CA
ENCODING 58058
SWIDTH 960 0
DWIDTH 8 0
BBX 8 8 0 -1
BITMAP
E7
E7
E3
F0
F8
FF
FF
FF
ENDCHAR
STARTCHAR E2CB
ENCODING 58059
SWIDTH 960 0
DWIDTH 8 0
BBX 8 8 0 -1
BITMAP
E7
E7
C7
0F
1F
FF
FF
FF
ENDCHAR
STARTCHAR E2CC
ENCODING 58060
SWIDTH 960 0
DWIDTH 8 0
BBX 6 6 2 1
BITMAP
FC
FC
FC
FC
FC
FC
ENDCHAR
STARTCHAR E2CD
ENCODING 58061
SWIDTH 960 0
DWIDTH 8 0
BBX 8 8 0 -1
BITMAP
3F
1F
8F
C7
E3
F1
F8
FC
ENDCHAR
STARTCHAR E2CE
ENCODING 58062
SWIDTH 960 0
DWIDTH 8 0
BBX 8 8 0 -1
BITMAP
FC
F8
F1
E3
C7
8F
1F
3F
ENDCHAR
STARTCHAR E2CF
ENCODING 58063
SWIDTH 960 0
DWIDTH 8 0
BBX 6 6 2 -1
BITMAP
FC
FC
FC
FC
FC
FC
ENDCHAR
STARTCHAR E2D0
ENCODING 58064
SWIDTH 960 0
DWIDTH 8 0
BBX 6 6 0 -1
BITMAP
FC
FC
FC
FC
FC
FC
ENDCHAR
STARTCHAR E2D1
ENCODING 58065
SWIDTH 960 0
DWIDTH 8 0
BBX 8 8 0 -1
BITMAP
FF
C3
81
81
81
81
C3
FF
ENDCHAR
STARTCHAR E2D2
ENCODING 58066
SWIDTH 960 0
DWIDTH 8 0
BBX 8 8 0 -1
BITMAP
FF
FF
FF
FF
FF
00
00
FF
ENDCHAR
STARTCHAR E2D3
ENCODING 58067
SWIDTH 960 0
DWIDTH 8 0
BBX 8 8 0 -1
BITMAP
C9
80
80
80
C1
E3
F7
FF
ENDCHAR
STARTCHAR E2D4
ENCODING 58068
SWIDTH 960 0
DWIDTH 8 0
BBX 8 8 0 -1
BITMAP
9F
9F
9F
9F
9F
9F
9F
9F
ENDCHAR
STARTCHAR E2D5
ENCODING 58069
SWIDTH 960 0
DWIDTH 8 0
BBX 8 8 0 -1
BITMAP
FF
FF
FF
F8
F0
E3
E7
E7
ENDCHAR
STARTCHAR E2D6
ENCODING 58070
SWIDTH 960 0
DWIDTH 8 0
BBX 8 8 0 -1
BITMAP
3C
18
81
C3
C3
81
18
3C
ENDCHAR
STARTCHAR E2D7
ENCODING 58071
SWIDTH 960 0
DWIDTH 8 0
BBX 8 8 0 -1
BITMAP
FF
C3
81
99
99
81
C3
FF
ENDCHAR
STARTCHAR E2D8
ENCODING 58072
SWIDTH 960 0
DWIDTH 8 0
BBX 8 8 0 -1
BITMAP
E7
E7
99
99
E7
E7
C3
FF
ENDCHAR
STARTCHAR E2D9
ENCODING 58073
SWIDTH 960 0
DWIDTH 8 0
BBX 8 8 0 -1
BITMAP
F9
F9
F9
F9
F9
F9
F9
F9
ENDCHAR
STARTCHAR E2DA
ENCODING 58074
SWIDTH 960 0
DWIDTH 8 0
BBX 8 8 0 -1
BITMAP
F7
E3
C1
80
C1
E3
F7
FF
ENDCHAR
STARTCHAR E2DB
ENCODING 58075
SWIDTH 960 0
DWIDTH 8 0
BBX 8 8 0 -1
BITMAP
E7
E7
E7
00
00
E7
E7
E7
ENDCHAR
STARTCHAR E2DC
ENCODING 58076
SWIDTH 960 0
DWIDTH 8 0
BBX 8 8 0 -1
BITMAP
3F
3F
CF
CF
3F
3F
CF
CF
ENDCHAR
STARTCHAR E2DD
ENCODING 58077
SWIDTH 960 0
DWIDTH 8 0
BBX 8 8 0 -1
BITMAP
E7
E7
E7
E7
E7
E7
E7
E7
ENDCHAR
STARTCHAR E2DE
ENCODING 58078
SWIDTH 960 0
DWIDTH 8 0
BBX 8 8 0 -1
BITMAP
FF
FF
FC
C1
89
C9
C9
FF
ENDCHAR
STARTCHAR E2DF
ENCODING 58079
SWIDTH 960 0
DWIDTH 8 0
BBX 7 7 0 -1
BITMAP
80
C0
E0
F0
F8
FC
FE
ENDCHAR
STARTCHAR E2E0
ENCODING 58080
SWIDTH 960 0
DWIDTH 8 0
BBX 8 8 0 -1
BITMAP
FF
FF
FF
FF
FF
FF
FF
FF
ENDCHAR
STARTCHAR E2E1
ENCODING 58081
SWIDTH 960 0
DWIDTH 8 0
BBX 4 8 4 -1
BITMAP
F0
F0
F0
F0
F0
F0
F0
F0
ENDCHAR
STARTCHAR E2E2
ENCODING 58082
SWIDTH 960 0
DWIDTH 8 0
BBX 8 4 0 3
BITMAP
FF
FF
FF
FF
ENDCHAR
STARTCHAR E2E3
ENCODING 58083
SWIDTH 960 0
DWIDTH 8 0
BBX 8 7 0 -1
BITMAP
FF
FF
FF
FF
FF
FF
FF
ENDCHAR
STARTCHAR E2E4
ENCODING 58084
SWIDTH 960 0
DWIDTH 8 0
BBX 8 7 0 0
BITMAP
FF
FF
FF
FF
FF
FF
FF
ENDCHAR
STARTCHAR E2E5
ENCODING 58085
SWIDTH 960 0
DWIDTH 8 0
BBX 6 8 2 -1
BITMAP
FC
FC
FC
FC
FC
FC
FC
FC
ENDCHAR
STARTCHAR E2E6
ENCODING 58086
SWIDTH 960 0
DWIDTH 8 0
BBX 8 8 0 -1
BITMAP
33
33
CC
CC
33
33
CC
CC
ENDCHAR
STARTCHAR E2E7
ENCODING 58087
SWIDTH 960 0
DWIDTH 8 0
BBX 6 8 0 -1
BITMAP
FC
FC
FC
FC
FC
FC
FC
FC
ENDCHAR
STARTCHAR E2E8
ENCODING 58088
SWIDTH 960 0
DWIDTH 8 0
BBX 8 8 0 -1
BITMAP
FF
FF
FF
FF
33
33
CC
CC
ENDCHAR
STARTCHAR E2E9
ENCODING 58089
SWIDTH 960 0
DWIDTH 8 0
BBX 7 7 1 -1
BITMAP
02
06
0E
1E
3E
7E
FE
ENDCHAR
STARTCHAR E2EA
ENCODING 58090
SWIDTH 960 0
DWIDTH 8 0
BBX 6 8 0 -1
BITMAP
FC
FC
FC
FC
FC
FC
FC
FC
ENDCHAR
STARTCHAR E2EB
ENCODING 58091
SWIDTH 960 0
DWIDTH 8 0
BBX 8 8 0 -1
BITMAP
E7
E7
E7
E0
E0
E7
E7
E7
ENDCHAR
STARTCHAR E2EC
ENCODING 58092
SWIDTH 960 0
DWIDTH 8 0
BBX 8 8 0 -1
BITMAP
FF
FF
FF
FF
F0
F0
F0
F0
ENDCHAR
STARTCHAR E2ED
ENCODING 58093
SWIDTH 960 0
DWIDTH 8 0
BBX 8 8 0 -1
BITMAP
E7
E7
E7
E0
E0
FF
FF
FF
ENDCHAR
STARTCHAR E2EE
ENCODING 58094
SWIDTH 960 0
DWIDTH 8 0
BBX 8 8 0 -1
BITMAP
FF
FF
FF
07
07
E7
E7
E7
ENDCHAR
STARTCHAR E2EF
ENCODING 58095
SWIDTH 960 0
DWIDTH 8 0
BBX 8 6 0 1
BITMAP
FF
FF
FF
FF
FF
FF
ENDCHAR
STARTCHAR E2F0
ENCODING 58096
SWIDTH 960 0
DWIDTH 8 0
BBX 8 8 0 -1
BITMAP
FF
FF
FF
E0
E0
E7
E7
E7
ENDCHAR
STARTCHAR E2F1
ENCODING 58097
SWIDTH 960 0
DWIDTH 8 0
BBX 8 8 0 -1
BITMAP
E7
E7
E7
00
00
FF
FF
FF
ENDCHAR
STARTCHAR E2F2
ENCODING 58098
SWIDTH 960 0
DWIDTH 8 0
BBX 8 8 0 -1
BITMAP
FF
FF
FF
00
00
E7
E7
E7
ENDCHAR
STARTCHAR E2F3
ENCODING 58099
SWIDTH 960 0
DWIDTH 8 0
BBX 8 8 0 -1
BITMAP
E7
E7
E7
07
07
E7
E7
E7
ENDCHAR
STARTCHAR E2F4
ENCODING 58100
SWIDTH 960 0
DWIDTH 8 0
BBX 6 8 2 -1
BITMAP
FC
FC
FC
FC
FC
FC
FC
FC
ENDCHAR
STARTCHAR E2F5
ENCODING 58101
SWIDTH 960 0
DWIDTH 8 0
BBX 5 8 3 -1
BITMAP
F8
F8
F8
F8
F8
F8
F8
F8
ENDCHAR
STARTCHAR E2F6
ENCODING 58102
SWIDTH 960 0
DWIDTH 8 0
BBX 5 8 0 -1
BITMAP
F8
F8
F8
F8
F8
F8
F8
F8
ENDCHAR
STARTCHAR E2F7
ENCODING 58103
SWIDTH 960 0
DWIDTH 8 0
BBX 8 6 0 -1
BITMAP
FF
FF
FF
FF
FF
FF
ENDCHAR
STARTCHAR E2F8
ENCODING 58104
SWIDTH 960 0
DWIDTH 8 0
BBX 8 5 0 -1
BITMAP
FF
FF
FF
FF
FF
ENDCHAR
STARTCHAR E2F9
ENCODING 58105
SWIDTH 960 0
DWIDTH 8 0
BBX 8 5 0 2
BITMAP
FF
FF
FF
FF
FF
ENDCHAR
STARTCHAR E2FA
ENCODING 58106
SWIDTH 960 0
DWIDTH 8 0
BBX 6 6 0 1
BITMAP
FC
FC
FC
FC
FC
FC
ENDCHAR
STARTCHAR E2FB
ENCODING 58107
SWIDTH 960 0
DWIDTH 8 0
BBX 8 8 0 -1
BITMAP
FF
FF
FF
FF
0F
0F
0F
0F
ENDCHAR
STARTCHAR E2FC
ENCODING 58108
SWIDTH 960 0
DWIDTH 8 0
BBX 8 8 0 -1
BITMAP
F0
F0
F0
F0
FF
FF
FF
FF
ENDCHAR
STARTCHAR E2FD
ENCODING 58109
SWIDTH 960 0
DWIDTH 8 0
BBX 8 8 0 -1
BITMAP
E7
E7
E7
07
07
FF
FF
FF
ENDCHAR
STARTCHAR E2FE
ENCODING 58110
SWIDTH 960 0
DWIDTH 8 0
BBX 8 8 0 -1
BITMAP
0F
0F
0F
0F
FF
FF
FF
FF
ENDCHAR
STARTCHAR E2FF
ENCODING 58111
SWIDTH 960 0
DWIDTH 8 0
BBX 8 8 0 -1
BITMAP
FF
FF
FC
C1
89
C9
C9
FF
ENDCHAR
STARTCHAR E320
ENCODING 58144
SWIDTH 960 0
DWIDTH 8 0
BBX 8 8 0 -1
BITMAP
FF
FF
FF
FF
FF
FF
FF
FF
ENDCHAR
STARTCHAR E321
ENCODING 58145
SWIDTH 960 0
DWIDTH 8 0
BBX 8 8 0 -1
BITMAP
E7
E7
E7
E7
FF
FF
E7
FF
ENDCHAR
STARTCHAR E322
ENCODING 58146
SWIDTH 960 0
DWIDTH 8 0
BBX 8 8 0 -1
BITMAP
99
99
99
FF
FF
FF
FF
FF
ENDCHAR
STARTCHAR E323
ENCODING 58147
SWIDTH 960 0
DWIDTH 8 0
BBX 8 8 0 -1
BITMAP
99
99
00
99
00
99
99
FF
ENDCHAR
STARTCHAR E324
ENCODING 58148
SWIDTH 960 0
DWIDTH 8 0
BBX 8 8 0 -1
BITMAP
E7
C1
9F
C3
F9
83
E7
FF
ENDCHAR
STARTCHAR E325
ENCODING 58149
SWIDTH 960 0
DWIDTH 8 0
BBX 8 8 0 -1
BITMAP
9D
99
F3
E7
CF
99
B9
FF
ENDCHAR
STARTCHAR E326
ENCODING 58150
SWIDTH 960 0
DWIDTH 8 0
BBX 8 8 0 -1
BITMAP
C3
99
C3
C7
98
99
C0
FF
ENDCHAR
STARTCHAR E327
ENCODING 58151
SWIDTH 960 0
DWIDTH 8 0
BBX 8 8 0 -1
BITMAP
F9
F3
E7
FF
FF
FF
FF
FF
ENDCHAR
STARTCHAR E328
ENCODING 58152
SWIDTH 960 0
DWIDTH 8 0
BBX 8 8 0 -1
BITMAP
F3
E7
CF
CF
CF
E7
F3
FF
ENDCHAR
STARTCHAR E329
ENCODING 58153
SWIDTH 960 0
DWIDTH 8 0
BBX 8 8 0 -1
BITMAP
CF
E7
F3
F3
F3
E7
CF
FF
ENDCHAR
STARTCHAR E32A
ENCODING 58154
SWIDTH 960 0
DWIDTH 8 0
BBX 8 8 0 -1
BITMAP
FF
99
C3
00
C3
99
FF
FF
ENDCHAR
STARTCHAR E32B
ENCODING 58155
SWIDTH 960 0
DWIDTH 8 0
BBX 8 8 0 -1
BITMAP
FF
E7
E7
81
E7
E7
FF
FF
ENDCHAR
STARTCHAR E32C
ENCODING 58156
SWIDTH 960 0
DWIDTH 8 0
BBX 8 8 0 -1
BITMAP
FF
FF
FF
FF
FF
E7
E7
CF
ENDCHAR
STARTCHAR E32D
ENCODING 58157
SWIDTH 960 0
DWIDTH 8 0
BBX 8 8 0 -1
BITMAP
FF
FF
FF
81
FF
FF
FF
FF
ENDCHAR
STARTCHAR E32E
ENCODING 58158
SWIDTH 960 0
DWIDTH 8 0
BBX 8 8 0 -1
BITMAP
FF
FF
FF
FF
FF
E7
E7
FF
ENDCHAR
STARTCHAR E32F
ENCODING 58159
SWIDTH 960 0
DWIDTH 8 0
BBX 8 8 0 -1
BITMAP
FF
FC
F9
F3
E7
CF
9F
FF
ENDCHAR
STARTCHAR E330
ENCODING 58160
SWIDTH 960 0
DWIDTH 8 0
BBX 8 8 0 -1
BITMAP
C3
99
91
89
99
99
C3
FF
ENDCHAR
STARTCHAR E331
ENCODING 58161
SWIDTH 960 0
DWIDTH 8 0
BBX 8 8 0 -1
BITMAP
E7
E7
C7
E7
E7
E7
81
FF
ENDCHAR
STARTCHAR E332
ENCODING 58162
SWIDTH 960 0
DWIDTH 8 0
BBX 8 8 0 -1
BITMAP
C3
99
F9
F3
CF
9F
81
FF
ENDCHAR
STARTCHAR E333
ENCODING 58163
SWIDTH 960 0
DWIDTH 8 0
BBX 8 8 0 -1
BITMAP
C3
99
F9
E3
F9
99
C3
FF
ENDCHAR
STARTCHAR E334
ENCODING 58164
SWIDTH 960 0
DWIDTH 8 0
BBX 8 8 0 -1
BITMAP
F9
F1
E1
99
80
F9
F9
FF
ENDCHAR
STARTCHAR E335
ENCODING 58165
SWIDTH 960 0
DWIDTH 8 0
BBX 8 8 0 -1
BITMAP
81
9F
83
F9
F9
99
C3
FF
ENDCHAR
STARTCHAR E336
ENCODING 58166
SWIDTH 960 0
DWIDTH 8 0
BBX 8 8 0 -1
BITMAP
C3
99
9F
83
99
99
C3
FF
ENDCHAR
STARTCHAR E337
ENCODING 58167
SWIDTH 960 0
DWIDTH 8 0
BBX 8 8 0 -1
BITMAP
81
99
F3
E7
E7
E7
E7
FF
ENDCHAR
STARTCHAR E338
ENCODING 58168
SWIDTH 960 0
DWIDTH 8 0
BBX 8 8 0 -1
BITMAP
C3
99
99
C3
99
99
C3
FF
ENDCHAR
STARTCHAR E339
ENCODING 58169
SWIDTH 960 0
DWIDTH 8 0
BBX 8 8 0 -1
BITMAP
C3
99
99
C1
F9
99
C3
FF
ENDCHAR
STARTCHAR E33A
ENCODING 58170
SWIDTH 960 0
DWIDTH 8 0
BBX 8 8 0 -1
BITMAP
FF
FF
E7
FF
FF
E7
FF
FF
ENDCHAR
STARTCHAR E33B
ENCODING 58171
SWIDTH 960 0
DWIDTH 8 0
BBX 8 8 0 -1
BITMAP
FF
FF
E7
FF
FF
E7
E7
CF
ENDCHAR
STARTCHAR E33C
ENCODING 58172
SWIDTH 960 0
DWIDTH 8 0
BBX 8 8 0 -1
BITMAP
F1
E7
CF
9F
CF
E7
F1
FF
ENDCHAR
STARTCHAR E33D
ENCODING 58173
SWIDTH 960 0
DWIDTH 8 0
BBX 8 8 0 -1
BITMAP
FF
FF
81
FF
81
FF
FF
FF
ENDCHAR
STARTCHAR E33E
ENCODING 58174
SWIDTH 960 0
DWIDTH 8 0
BBX 8 8 0 -1
BITMAP
8F
E7
F3
F9
F3
E7
8F
FF
ENDCHAR
STARTCHAR E33F
ENCODING 58175
SWIDTH 960 0
DWIDTH 8 0
BBX 8 8 0 -1
BITMAP
C3
99
F9
F3
E7
FF
E7
FF
ENDCHAR
STARTCHAR E340
ENCODING 58176
SWIDTH 960 0
DWIDTH 8 0
BBX 8 8 0 -1
BITMAP
C3
99
91
91
9F
99
C3
FF
ENDCHAR
STARTCHAR E341
ENCODING 58177
SWIDTH 960 0
DWIDTH 8 0
BBX 8 8 0 -1
BITMAP
FF
FF
C3
F9
C1
99
C1
FF
ENDCHAR
STARTCHAR E342
ENCODING 58178
SWIDTH 960 0
DWIDTH 8 0
BBX 8 8 0 -1
BITMAP
FF
9F
9F
83
99
99
83
FF
ENDCHAR
STARTCHAR E343
ENCODING 58179
SWIDTH 960 0
DWIDTH 8 0
BBX 8 8 0 -1
BITMAP
FF
FF
C3
9F
9F
9F
C3
FF
ENDCHAR
STARTCHAR E344
ENCODING 58180
SWIDTH 960 0
DWIDTH 8 0
BBX 8 8 0 -1
BITMAP
FF
F9
F9
C1
99
99
C1
FF
ENDCHAR
STARTCHAR E345
ENCODING 58181
SWIDTH 960 0
DWIDTH 8 0
BBX 8 8 0 -1
BITMAP
FF
FF
C3
99
81
9F
C3
FF
ENDCHAR
STARTCHAR E346
ENCODING 58182
SWIDTH 960 0
DWIDTH 8 0
BBX 8 8 0 -1
BITMAP
FF
F1
E7
C1
E7
E7
E7
FF
ENDCHAR
STARTCHAR E347
ENCODING 58183
SWIDTH 960 0
DWIDTH 8 0
BBX 8 8 0 -1
BITMAP
FF
FF
C1
99
99
C1
F9
83
ENDCHAR
STARTCHAR E348
ENCODING 58184
SWIDTH 960 0
DWIDTH 8 0
BBX 8 8 0 -1
BITMAP
FF
9F
9F
83
99
99
99
FF
ENDCHAR
STARTCHAR E349
ENCODING 58185
SWIDTH 960 0
DWIDTH 8 0
BBX 8 8 0 -1
BITMAP
FF
E7
FF
C7
E7
E7
C3
FF
ENDCHAR
STARTCHAR E34A
ENCODING 58186
SWIDTH 960 0
DWIDTH 8 0
BBX 8 8 0 -1
BITMAP
FF
F9
FF
F9
F9
F9
F9
C3
ENDCHAR
STARTCHAR E34B
ENCODING 58187
SWIDTH 960 0
DWIDTH 8 0
BBX 8 8 0 -1
BITMAP
FF
9F
9F
93
87
93
99
FF
ENDCHAR
STARTCHAR E34C
ENCODING 58188
SWIDTH 960 0
DWIDTH 8 0
BBX 8 8 0 -1
BITMAP
FF
C7
E7
E7
E7
E7
C3
FF
ENDCHAR
STARTCHAR E34D
ENCODING 58189
SWIDTH 960 0
DWIDTH 8 0
BBX 8 8 0 -1
BITMAP
FF
FF
99
80
80
94
9C
FF
ENDCHAR
STARTCHAR E34E
ENCODING 58190
SWIDTH 960 0
DWIDTH 8 0
BBX 8 8 0 -1
BITMAP
FF
FF
83
99
99
99
99
FF
ENDCHAR
STARTCHAR E34F
ENCODING 58191
SWIDTH 960 0
DWIDTH 8 0
BBX 8 8 0 -1
BITMAP
FF
FF
C3
99
99
99
C3
FF
ENDCHAR
STARTCHAR E350
ENCODING 58192
SWIDTH 960 0
DWIDTH 8 0
BBX 8 8 0 -1
BITMAP
FF
FF
83
99
99
83
9F
9F
ENDCHAR
STARTCHAR E351
ENCODING 58193
SWIDTH 960 0
DWIDTH 8 0
BBX 8 8 0 -1
BITMAP
FF
FF
C1
99
99
C1
F9
F9
ENDCHAR
STARTCHAR E352
ENCODING 58194
SWIDTH 960 0
DWIDTH 8 0
BBX 8 8 0 -1
BITMAP
FF
FF
83
99
9F
9F
9F
FF
ENDCHAR
STARTCHAR E353
ENCODING 58195
SWIDTH 960 0
DWIDTH 8 0
BBX 8 8 0 -1
BITMAP
FF
FF
C1
9F
C3
F9
83
FF
ENDCHAR
STARTCHAR E354
ENCODING 58196
SWIDTH 960 0
DWIDTH 8 0
BBX 8 8 0 -1
BITMAP
FF
E7
81
E7
E7
E7
F1
FF
ENDCHAR
STARTCHAR E355
ENCODING 58197
SWIDTH 960 0
DWIDTH 8 0
BBX 8 8 0 -1
BITMAP
FF
FF
99
99
99
99
C1
FF
ENDCHAR
STARTCHAR E356
ENCODING 58198
SWIDTH 960 0
DWIDTH 8 0
BBX 8 8 0 -1
BITMAP
FF
FF
99
99
99
C3
E7
FF
ENDCHAR
STARTCHAR E357
ENCODING 58199
SWIDTH 960 0
DWIDTH 8 0
BBX 8 8 0 -1
BITMAP
FF
FF
9C
94
80
C1
C9
FF
ENDCHAR
STARTCHAR E358
ENCODING 58200
SWIDTH 960 0
DWIDTH 8 0
BBX 8 8 0 -1
BITMAP
FF
FF
99
C3
E7
C3
99
FF
ENDCHAR
STARTCHAR E359
ENCODING 58201
SWIDTH 960 0
DWIDTH 8 0
BBX 8 8 0 -1
BITMAP
FF
FF
99
99
99
C1
F3
87
ENDCHAR
STARTCHAR E35A
ENCODING 58202
SWIDTH 960 0
DWIDTH 8 0
BBX 8 8 0 -1
BITMAP
FF
FF
81
F3
E7
CF
81
FF
ENDCHAR
STARTCHAR E35B
ENCODING 58203
SWIDTH 960 0
DWIDTH 8 0
BBX 8 8 0 -1
BITMAP
C3
CF
CF
CF
CF
CF
C3
FF
ENDCHAR
STARTCHAR E35C
ENCODING 58204
SWIDTH 960 0
DWIDTH 8 0
BBX 8 8 0 -1
BITMAP
F3
ED
CF
83
CF
9D
03
FF
ENDCHAR
STARTCHAR E35D
ENCODING 58205
SWIDTH 960 0
DWIDTH 8 0
BBX 8 8 0 -1
BITMAP
C3
F3
F3
F3
F3
F3
C3
FF
ENDCHAR
STARTCHAR E35E
ENCODING 58206
SWIDTH 960 0
DWIDTH 8 0
BBX 8 8 0 -1
BITMAP
FF
E7
C3
81
E7
E7
E7
E7
ENDCHAR
STARTCHAR E35F
ENCODING 58207
SWIDTH 960 0
DWIDTH 8 0
BBX 8 8 0 -1
BITMAP
FF
EF
CF
80
80
CF
EF
FF
ENDCHAR
STARTCHAR E360
ENCODING 58208
SWIDTH 960 0
DWIDTH 8 0
BBX 8 8 0 -1
BITMAP
FF
FF
FF
00
00
FF
FF
FF
ENDCHAR
STARTCHAR E361
ENCODING 58209
SWIDTH 960 0
DWIDTH 8 0
BBX 8 8 0 -1
BITMAP
E7
C3
99
81
99
99
99
FF
ENDCHAR
STARTCHAR E362
ENCODING 58210
SWIDTH 960 0
DWIDTH 8 0
BBX 8 8 0 -1
BITMAP
83
99
99
83
99
99
83
FF
ENDCHAR
STARTCHAR E363
ENCODING 58211
SWIDTH 960 0
DWIDTH 8 0
BBX 8 8 0 -1
BITMAP
C3
99
9F
9F
9F
99
C3
FF
ENDCHAR
STARTCHAR E364
ENCODING 58212
SWIDTH 960 0
DWIDTH 8 0
BBX 8 8 0 -1
BITMAP
87
93
99
99
99
93
87
FF
ENDCHAR
STARTCHAR E365
ENCODING 58213
SWIDTH 960 0
DWIDTH 8 0
BBX 8 8 0 -1
BITMAP
81
9F
9F
87
9F
9F
81
FF
ENDCHAR
STARTCHAR E366
ENCODING 58214
SWIDTH 960 0
DWIDTH 8 0
BBX 8 8 0 -1
BITMAP
81
9F
9F
87
9F
9F
9F
FF
ENDCHAR
STARTCHAR E367
ENCODING 58215
SWIDTH 960 0
DWIDTH 8 0
BBX 8 8 0 -1
BITMAP
C3
99
9F
91
99
99
C3
FF
ENDCHAR
STARTCHAR E368
ENCODING 58216
SWIDTH 960 0
DWIDTH 8 0
BBX 8 8 0 -1
BITMAP
99
99
99
81
99
99
99
FF
ENDCHAR
STARTCHAR E369
ENCODING 58217
SWIDTH 960 0
DWIDTH 8 0
BBX 8 8 0 -1
BITMAP
C3
E7
E7
E7
E7
E7
C3
FF
ENDCHAR
STARTCHAR E36A
ENCODING 58218
SWIDTH 960 0
DWIDTH 8 0
BBX 8 8 0 -1
BITMAP
E1
F3
F3
F3
F3
93
C7
FF
ENDCHAR
STARTCHAR E36B
ENCODING 58219
SWIDTH 960 0
DWIDTH 8 0
BBX 8 8 0 -1
BITMAP
99
93
87
8F
87
93
99
FF
ENDCHAR
STARTCHAR E36C
ENCODING 58220
SWIDTH 960 0
DWIDTH 8 0
BBX 8 8 0 -1
BITMAP
9F
9F
9F
9F
9F
9F
81
FF
ENDCHAR
STARTCHAR E36D
ENCODING 58221
SWIDTH 960 0
DWIDTH 8 0
BBX 8 8 0 -1
BITMAP
9C
88
80
94
9C
9C
9C
FF
ENDCHAR
STARTCHAR E36E
ENCODING 58222
SWIDTH 960 0
DWIDTH 8 0
BBX 8 8 0 -1
BITMAP
99
89
81
81
91
99
99
FF
ENDCHAR
STARTCHAR E36F
ENCODING 58223
SWIDTH 960 0
DWIDTH 8 0
BBX 8 8 0 -1
BITMAP
C3
99
99
99
99
99
C3
FF
ENDCHAR
STARTCHAR E370
ENCODING 58224
SWIDTH 960 0
DWIDTH 8 0
BBX 8 8 0 -1
BITMAP
83
99
99
83
9F
9F
9F
FF
ENDCHAR
STARTCHAR E371
ENCODING 58225
SWIDTH 960 0
DWIDTH 8 0
BBX 8 8 0 -1
BITMAP
C3
99
99
99
99
C3
F1
FF
ENDCHAR
STARTCHAR E372
ENCODING 58226
SWIDTH 960 0
DWIDTH 8 0
BBX 8 8 0 -1
BITMAP
83
99
99
83
87
93
99
FF
ENDCHAR
STARTCHAR E373
ENCODING 58227
SWIDTH 960 0
DWIDTH 8 0
BBX 8 8 0 -1
BITMAP
C3
99
9F
C3
F9
99
C3
FF
ENDCHAR
STARTCHAR E374
ENCODING 58228
SWIDTH 960 0
DWIDTH 8 0
BBX 8 8 0 -1
BITMAP
81
E7
E7
E7
E7
E7
E7
FF
ENDCHAR
STARTCHAR E375
ENCODING 58229
SWIDTH 960 0
DWIDTH 8 0
BBX 8 8 0 -1
BITMAP
99
99
99
99
99
99
C3
FF
ENDCHAR
STARTCHAR E376
ENCODING 58230
SWIDTH 960 0
DWIDTH 8 0
BBX 8 8 0 -1
BITMAP
99
99
99
99
99
C3
E7
FF
ENDCHAR
STARTCHAR E377
ENCODING 58231
SWIDTH 960 0
DWIDTH 8 0
BBX 8 8 0 -1
BITMAP
9C
9C
9C
94
80
88
9C
FF
ENDCHAR
STARTCHAR E378
ENCODING 58232
SWIDTH 960 0
DWIDTH 8 0
BBX 8 8 0 -1
BITMAP
99
99
C3
E7
C3
99
99
FF
ENDCHAR
STARTCHAR E379
ENCODING 58233
SWIDTH 960 0
DWIDTH 8 0
BBX 8 8 0 -1
BITMAP
99
99
99
C3
E7
E7
E7
FF
ENDCHAR
STARTCHAR E37A
ENCODING 58234
SWIDTH 960 0
DWIDTH 8 0
BBX 8 8 0 -1
BITMAP
81
F9
F3
E7
CF
9F
81
FF
ENDCHAR
STARTCHAR E37B
ENCODING 58235
SWIDTH 960 0
DWIDTH 8 0
BBX 8 8 0 -1
BITMAP
E7
E7
E7
00
00
E7
E7
E7
ENDCHAR
STARTCHAR E37C
ENCODING 58236
SWIDTH 960 0
DWIDTH 8 0
BBX 8 8 0 -1
BITMAP
3F
3F
CF
CF
3F
3F
CF
CF
ENDCHAR
STARTCHAR E37D
ENCODING 58237
SWIDTH 960 0
DWIDTH 8 0
BBX 8 8 0 -1
BITMAP
E7
E7
E7
E7
E7
E7
E7
E7
ENDCHAR
STARTCHAR E37E
ENCODING 58238
SWIDTH 960 0
DWIDTH 8 0
BBX 8 8 0 -1
BITMAP
CC
CC
33
33
CC
CC
33
33
ENDCHAR
STARTCHAR E37F
ENCODING 58239
SWIDTH 960 0
DWIDTH 8 0
BBX 8 8 0 -1
BITMAP
CC
66
33
99
CC
66
33
99
ENDCHAR
STARTCHAR E3A0
ENCODING 58272
SWIDTH 960 0
DWIDTH 8 0
BBX 8 8 0 -1
BITMAP
FF
FF
FF
FF
FF
FF
FF
FF
ENDCHAR
STARTCHAR E3A1
ENCODING 58273
SWIDTH 960 0
DWIDTH 8 0
BBX 4 8 4 -1
BITMAP
F0
F0
F0
F0
F0
F0
F0
F0
ENDCHAR
STARTCHAR E3A2
ENCODING 58274
SWIDTH 960 0
DWIDTH 8 0
BBX 8 4 0 3
BITMAP
FF
FF
FF
FF
ENDCHAR
STARTCHAR E3A3
ENCODING 58275
SWIDTH 960 0
DWIDTH 8 0
BBX 8 7 0 -1
BITMAP
FF
FF
FF
FF
FF
FF
FF
ENDCHAR
STARTCHAR E3A4
ENCODING 58276
SWIDTH 960 0
DWIDTH 8 0
BBX 8 7 0 0
BITMAP
FF
FF
FF
FF
FF
FF
FF
ENDCHAR
STARTCHAR E3A5
ENCODING 58277
SWIDTH 960 0
DWIDTH 8 0
BBX 6 8 2 -1
BITMAP
FC
FC
FC
FC
FC
FC
FC
FC
ENDCHAR
STARTCHAR E3A6
ENCODING 58278
SWIDTH 960 0
DWIDTH 8 0
BBX 8 8 0 -1
BITMAP
33
33
CC
CC
33
33
CC
CC
ENDCHAR
STARTCHAR E3A7
ENCODING 58279
SWIDTH 960 0
DWIDTH 8 0
BBX 6 8 0 -1
BITMAP
FC
FC
FC
FC
FC
FC
FC
FC
ENDCHAR
STARTCHAR E3A8
ENCODING 58280
SWIDTH 960 0
DWIDTH 8 0
BBX 8 8 0 -1
BITMAP
FF
FF
FF
FF
33
33
CC
CC
ENDCHAR
STARTCHAR E3A9
ENCODING 58281
SWIDTH 960 0
DWIDTH 8 0
BBX 8 8 0 -1
BITMAP
33
66
CC
99
33
66
CC
99
ENDCHAR
STARTCHAR E3AA
ENCODING 58282
SWIDTH 960 0
DWIDTH 8 0
BBX 6 8 0 -1
BITMAP
FC
FC
FC
FC
FC
FC
FC
FC
ENDCHAR
STARTCHAR E3AB
ENCODING 58283
SWIDTH 960 0
DWIDTH 8 0
BBX 8 8 0 -1
BITMAP
E7
E7
E7
E0
E0
E7
E7
E7
ENDCHAR
STARTCHAR E3AC
ENCODING 58284
SWIDTH 960 0
DWIDTH 8 0
BBX 8 8 0 -1
BITMAP
FF
FF
FF
FF
F0
F0
F0
F0
ENDCHAR
STARTCHAR E3AD
ENCODING 58285
SWIDTH 960 0
DWIDTH 8 0
BBX 8 8 0 -1
BITMAP
E7
E7
E7
E0
E0
FF
FF
FF
ENDCHAR
STARTCHAR E3AE
ENCODING 58286
SWIDTH 960 0
DWIDTH 8 0
BBX 8 8 0 -1
BITMAP
FF
FF
FF
07
07
E7
E7
E7
ENDCHAR
STARTCHAR E3AF
ENCODING 58287
SWIDTH 960 0
DWIDTH 8 0
BBX 8 6 0 1
BITMAP
FF
FF
FF
FF
FF
FF
ENDCHAR
STARTCHAR E3B0
ENCODING 58288
SWIDTH 960 0
DWIDTH 8 0
BBX 8 8 0 -1
BITMAP
FF
FF
FF
E0
E0
E7
E7
E7
ENDCHAR
STARTCHAR E3B1
ENCODING 58289
SWIDTH 960 0
DWIDTH 8 0
BBX 8 8 0 -1
BITMAP
E7
E7
E7
00
00
FF
FF
FF
ENDCHAR
STARTCHAR E3B2
ENCODING 58290
SWIDTH 960 0
DWIDTH 8 0
BBX 8 8 0 -1
BITMAP
FF
FF
FF
00
00
E7
E7
E7
ENDCHAR
STARTCHAR E3B3
ENCODING 58291
SWIDTH 960 0
DWIDTH 8 0
BBX 8 8 0 -1
BITMAP
E7
E7
E7
07
07
E7
E7
E7
ENDCHAR
STARTCHAR E3B4
ENCODING 58292
SWIDTH 960 0
DWIDTH 8 0
BBX 6 8 2 -1
BITMAP
FC
FC
FC
FC
FC
FC
FC
FC
ENDCHAR
STARTCHAR E3B5
ENCODING 58293
SWIDTH 960 0
DWIDTH 8 0
BBX 5 8 3 -1
BITMAP
F8
F8
F8
F8
F8
F8
F8
F8
ENDCHAR
STARTCHAR E3B6
ENCODING 58294
SWIDTH 960 0
DWIDTH 8 0
BBX 5 8 0 -1
BITMAP
F8
F8
F8
F8
F8
F8
F8
F8
ENDCHAR
STARTCHAR E3B7
ENCODING 58295
SWIDTH 960 0
DWIDTH 8 0
BBX 8 6 0 -1
BITMAP
FF
FF
FF
FF
FF
FF
ENDCHAR
STARTCHAR E3B8
ENCODING 58296
SWIDTH 960 0
DWIDTH 8 0
BBX 8 5 0 -1
BITMAP
FF
FF
FF
FF
FF
ENDCHAR
STARTCHAR E3B9
ENCODING 58297
SWIDTH 960 0
DWIDTH 8 0
BBX 8 5 0 2
BITMAP
FF
FF
FF
FF
FF
ENDCHAR
STARTCHAR E3BA
ENCODING 58298
SWIDTH 960 0
DWIDTH 8 0
BBX 8 8 0 -1
BITMAP
FE
FC
F9
93
87
8F
9F
FF
ENDCHAR
STARTCHAR E3BB
ENCODING 58299
SWIDTH 960 0
DWIDTH 8 0
BBX 8 8 0 -1
BITMAP
FF
FF
FF
FF
0F
0F
0F
0F
ENDCHAR
STARTCHAR E3BC
ENCODING 58300
SWIDTH 960 0
DWIDTH 8 0
BBX 8 8 0 -1
BITMAP
F0
F0
F0
F0
FF
FF
FF
FF
ENDCHAR
STARTCHAR E3BD
ENCODING 58301
SWIDTH 960 0
DWIDTH 8 0
BBX 8 8 0 -1
BITMAP
E7
E7
E7
07
07
FF
FF
FF
ENDCHAR
STARTCHAR E3BE
ENCODING 58302
SWIDTH 960 0
DWIDTH 8 0
BBX 8 8 0 -1
BITMAP
0F
0F
0F
0F
FF
FF
FF
FF
ENDCHAR
STARTCHAR E3BF
ENCODING 58303
SWIDTH 960 0
DWIDTH 8 0
BBX 8 8 0 -1
BITMAP
0F
0F
0F
0F
F0
F0
F0
F0
ENDCHAR
STARTCHAR E3C0
ENCODING 58304
SWIDTH 960 0
DWIDTH 8 0
BBX 8 8 0 -1
BITMAP
FF
FF
FF
00
00
FF
FF
FF
ENDCHAR
STARTCHAR E3C1
ENCODING 58305
SWIDTH 960 0
DWIDTH 8 0
BBX 8 8 0 -1
BITMAP
E7
C3
99
81
99
99
99
FF
ENDCHAR
STARTCHAR E3C2
ENCODING 58306
SWIDTH 960 0
DWIDTH 8 0
BBX 8 8 0 -1
BITMAP
83
99
99
83
99
99
83
FF
ENDCHAR
STARTCHAR E3C3
ENCODING 58307
SWIDTH 960 0
DWIDTH 8 0
BBX 8 8 0 -1
BITMAP
C3
99
9F
9F
9F
99
C3
FF
ENDCHAR
STARTCHAR E3C4
ENCODING 58308
SWIDTH 960 0
DWIDTH 8 0
BBX 8 8 0 -1
BITMAP
87
93
99
99
99
93
87
FF
ENDCHAR
STARTCHAR E3C5
ENCODING 58309
SWIDTH 960 0
DWIDTH 8 0
BBX 8 8 0 -1
BITMAP
81
9F
9F
87
9F
9F
81
FF
ENDCHAR
STARTCHAR E3C6
ENCODING 58310
SWIDTH 960 0
DWIDTH 8 0
BBX 8 8 0 -1
BITMAP
81
9F
9F
87
9F
9F
9F
FF
ENDCHAR
STARTCHAR E3C7
ENCODING 58311
SWIDTH 960 0
DWIDTH 8 0
BBX 8 8 0 -1
BITMAP
C3
99
9F
91
99
99
C3
FF
ENDCHAR
STARTCHAR E3C8
ENCODING 58312
SWIDTH 960 0
DWIDTH 8 0
BBX 8 8 0 -1
BITMAP
99
99
99
81
99
99
99
FF
ENDCHAR
STARTCHAR E3C9
ENCODING 58313
SWIDTH 960 0
DWIDTH 8 0
BBX 8 8 0 -1
BITMAP
C3
E7
E7
E7
E7
E7
C3
FF
ENDCHAR
STARTCHAR E3CA
ENCODING 58314
SWIDTH 960 0
DWIDTH 8 0
BBX 8 8 0 -1
BITMAP
E1
F3
F3
F3
F3
93
C7
FF
ENDCHAR
STARTCHAR E3CB
ENCODING 58315
SWIDTH 960 0
DWIDTH 8 0
BBX 8 8 0 -1
BITMAP
99
93
87
8F
87
93
99
FF
ENDCHAR
STARTCHAR E3CC
ENCODING 58316
SWIDTH 960 0
DWIDTH 8 0
BBX 8 8 0 -1
BITMAP
9F
9F
9F
9F
9F
9F
81
FF
ENDCHAR
STARTCHAR E3CD
ENCODING 58317
SWIDTH 960 0
DWIDTH 8 0
BBX 8 8 0 -1
BITMAP
9C
88
80
94
9C
9C
9C
FF
ENDCHAR
STARTCHAR E3CE
ENCODING 58318
SWIDTH 960 0
DWIDTH 8 0
BBX 8 8 0 -1
BITMAP
99
89
81
81
91
99
99
FF
ENDCHAR
STARTCHAR E3CF
ENCODING 58319
SWIDTH 960 0
DWIDTH 8 0
BBX 8 8 0 -1
BITMAP
C3
99
99
99
99
99
C3
FF
ENDCHAR
STARTCHAR E3D0
ENCODING 58320
SWIDTH 960 0
DWIDTH 8 0
BBX 8 8 0 -1
BITMAP
83
99
99
83
9F
9F
9F
FF
ENDCHAR
STARTCHAR E3D1
ENCODING 58321
SWIDTH 960 0
DWIDTH 8 0
BBX 8 8 0 -1
BITMAP
C3
99
99
99
99
C3
F1
FF
ENDCHAR
STARTCHAR E3D2
ENCODING 58322
SWIDTH 960 0
DWIDTH 8 0
BBX 8 8 0 -1
BITMAP
83
99
99
83
87
93
99
FF
ENDCHAR
STARTCHAR E3D3
ENCODING 58323
SWIDTH 960 0
DWIDTH 8 0
BBX 8 8 0 -1
BITMAP
C3
99
9F
C3
F9
99
C3
FF
ENDCHAR
STARTCHAR E3D4
ENCODING 58324
SWIDTH 960 0
DWIDTH 8 0
BBX 8 8 0 -1
BITMAP
81
E7
E7
E7
E7
E7
E7
FF
ENDCHAR
STARTCHAR E3D5
ENCODING 58325
SWIDTH 960 0
DWIDTH 8 0
BBX 8 8 0 -1
BITMAP
99
99
99
99
99
99
C3
FF
ENDCHAR
STARTCHAR E3D6
ENCODING 58326
SWIDTH 960 0
DWIDTH 8 0
BBX 8 8 0 -1
BITMAP
99
99
99
99
99
C3
E7
FF
ENDCHAR
STARTCHAR E3D7
ENCODING 58327
SWIDTH 960 0
DWIDTH 8 0
BBX 8 8 0 -1
BITMAP
9C
9C
9C
94
80
88
9C
FF
ENDCHAR
STARTCHAR E3D8
ENCODING 58328
SWIDTH 960 0
DWIDTH 8 0
BBX 8 8 0 -1
BITMAP
99
99
C3
E7
C3
99
99
FF
ENDCHAR
STARTCHAR E3D9
ENCODING 58329
SWIDTH 960 0
DWIDTH 8 0
BBX 8 8 0 -1
BITMAP
99
99
99
C3
E7
E7
E7
FF
ENDCHAR
STARTCHAR E3DA
ENCODING 58330
SWIDTH 960 0
DWIDTH 8 0
BBX 8 8 0 -1
BITMAP
81
F9
F3
E7
CF
9F
81
FF
ENDCHAR
STARTCHAR E3DB
ENCODING 58331
SWIDTH 960 0
DWIDTH 8 0
BBX 8 8 0 -1
BITMAP
E7
E7
E7
00
00
E7
E7
E7
ENDCHAR
STARTCHAR E3DC
ENCODING 58332
SWIDTH 960 0
DWIDTH 8 0
BBX 8 8 0 -1
BITMAP
3F
3F
CF
CF
3F
3F
CF
CF
ENDCHAR
STARTCHAR E3DD
ENCODING 58333
SWIDTH 960 0
DWIDTH 8 0
BBX 8 8 0 -1
BITMAP
E7
E7
E7
E7
E7
E7
E7
E7
ENDCHAR
STARTCHAR E3DE
ENCODING 58334
SWIDTH 960 0
DWIDTH 8 0
BBX 8 8 0 -1
BITMAP
CC
CC
33
33
CC
CC
33
33
ENDCHAR
STARTCHAR E3DF
ENCODING 58335
SWIDTH 960 0
DWIDTH 8 0
BBX 8 8 0 -1
BITMAP
CC
66
33
99
CC
66
33
99
ENDCHAR
STARTCHAR E3E0
ENCODING 58336
SWIDTH 960 0
DWIDTH 8 0
BBX 8 8 0 -1
BITMAP
FF
FF
FF
FF
FF
FF
FF
FF
ENDCHAR
STARTCHAR E3E1
ENCODING 58337
SWIDTH 960 0
DWIDTH 8 0
BBX 4 8 4 -1
BITMAP
F0
F0
F0
F0
F0
F0
F0
F0
ENDCHAR
STARTCHAR E3E2
ENCODING 58338
SWIDTH 960 0
DWIDTH 8 0
BBX 8 4 0 3
BITMAP
FF
FF
FF
FF
ENDCHAR
STARTCHAR E3E3
ENCODING 58339
SWIDTH 960 0
DWIDTH 8 0
BBX 8 7 0 -1
BITMAP
FF
FF
FF
FF
FF
FF
FF
ENDCHAR
STARTCHAR E3E4
ENCODING 58340
SWIDTH 960 0
DWIDTH 8 0
BBX 8 7 0 0
BITMAP
FF
FF
FF
FF
FF
FF
FF
ENDCHAR
STARTCHAR E3E5
ENCODING 58341
SWIDTH 960 0
DWIDTH 8 0
BBX 6 8 2 -1
BITMAP
FC
FC
FC
FC
FC
FC
FC
FC
ENDCHAR
STARTCHAR E3E6
ENCODING 58342
SWIDTH 960 0
DWIDTH 8 0
BBX 8 8 0 -1
BITMAP
33
33
CC
CC
33
33
CC
CC
ENDCHAR
STARTCHAR E3E7
ENCODING 58343
SWIDTH 960 0
DWIDTH 8 0
BBX 6 8 0 -1
BITMAP
FC
FC
FC
FC
FC
FC
FC
FC
ENDCHAR
STARTCHAR E3E8
ENCODING 58344
SWIDTH 960 0
DWIDTH 8 0
BBX 8 8 0 -1
BITMAP
FF
FF
FF
FF
33
33
CC
CC
ENDCHAR
STARTCHAR E3E9
ENCODING 58345
SWIDTH 960 0
DWIDTH 8 0
BBX 8 8 0 -1
BITMAP
33
66
CC
99
33
66
CC
99
ENDCHAR
STARTCHAR E3EA
ENCODING 58346
SWIDTH 960 0
DWIDTH 8 0
BBX 6 8 0 -1
BITMAP
FC
FC
FC
FC
FC
FC
FC
FC
ENDCHAR
STARTCHAR E3EB
ENCODING 58347
SWIDTH 960 0
DWIDTH 8 0
BBX 8 8 0 -1
BITMAP
E7
E7
E7
E0
E0
E7
E7
E7
ENDCHAR
STARTCHAR E3EC
ENCODING 58348
SWIDTH 960 0
DWIDTH 8 0
BBX 8 8 0 -1
BITMAP
FF
FF
FF
FF
F0
F0
F0
F0
ENDCHAR
STARTCHAR E3ED
ENCODING 58349
SWIDTH 960 0
DWIDTH 8 0
BBX 8 8 0 -1
BITMAP
E7
E7
E7
E0
E0
FF
FF
FF
ENDCHAR
STARTCHAR E3EE
ENCODING 58350
SWIDTH 960 0
DWIDTH 8 0
BBX 8 8 0 -1
BITMAP
FF
FF
FF
07
07
E7
E7
E7
ENDCHAR
STARTCHAR E3EF
ENCODING 58351
SWIDTH 960 0
DWIDTH 8 0
BBX 8 6 0 1
BITMAP
FF
FF
FF
FF
FF
FF
ENDCHAR
STARTCHAR E3F0
ENCODING 58352
SWIDTH 960 0
DWIDTH 8 0
BBX 8 8 0 -1
BITMAP
FF
FF
FF
E0
E0
E7
E7
E7
ENDCHAR
STARTCHAR E3F1
ENCODING 58353
SWIDTH 960 0
DWIDTH 8 0
BBX 8 8 0 -1
BITMAP
E7
E7
E7
00
00
FF
FF
FF
ENDCHAR
STARTCHAR E3F2
ENCODING 58354
SWIDTH 960 0
DWIDTH 8 0
BBX 8 8 0 -1
BITMAP
FF
FF
FF
00
00
E7
E7
E7
ENDCHAR
STARTCHAR E3F3
ENCODING 58355
SWIDTH 960 0
DWIDTH 8 0
BBX 8 8 0 -1
BITMAP
E7
E7
E7
07
07
E7
E7
E7
ENDCHAR
STARTCHAR E3F4
ENCODING 58356
SWIDTH 960 0
DWIDTH 8 0
BBX 6 8 2 -1
BITMAP
FC
FC
FC
FC
FC
FC
FC
FC
ENDCHAR
STARTCHAR E3F5
ENCODING 58357
SWIDTH 960 0
DWIDTH 8 0
BBX 5 8 3 -1
BITMAP
F8
F8
F8
F8
F8
F8
F8
F8
ENDCHAR
STARTCHAR E3F6
ENCODING 58358
SWIDTH 960 0
DWIDTH 8 0
BBX 5 8 0 -1
BITMAP
F8
F8
F8
F8
F8
F8
F8
F8
ENDCHAR
STARTCHAR E3F7
ENCODING 58359
SWIDTH 960 0
DWIDTH 8 0
BBX 8 6 0 -1
BITMAP
FF
FF
FF
FF
FF
FF
ENDCHAR
STARTCHAR E3F8
ENCODING 58360
SWIDTH 960 0
DWIDTH 8 0
BBX 8 5 0 -1
BITMAP
FF
FF
FF
FF
FF
ENDCHAR
STARTCHAR E3F9
ENCODING 58361
SWIDTH 960 0
DWIDTH 8 0
BBX 8 5 0 2
BITMAP
FF
FF
FF
FF
FF
ENDCHAR
STARTCHAR E3FA
ENCODING 58362
SWIDTH 960 0
DWIDTH 8 0
BBX 8 8 0 -1
BITMAP
FE
FC
F9
93
87
8F
9F
FF
ENDCHAR
STARTCHAR E3FB
ENCODING 58363
SWIDTH 960 0
DWIDTH 8 0
BBX 8 8 0 -1
BITMAP
FF
FF
FF
FF
0F
0F
0F
0F
ENDCHAR
STARTCHAR E3FC
ENCODING 58364
SWIDTH 960 0
DWIDTH 8 0
BBX 8 8 0 -1
BITMAP
F0
F0
F0
F0
FF
FF
FF
FF
ENDCHAR
STARTCHAR E3FD
ENCODING 58365
SWIDTH 960 0
DWIDTH 8 0
BBX 8 8 0 -1
BITMAP
E7
E7
E7
07
07
FF
FF
FF
ENDCHAR
STARTCHAR E3FE
ENCODING 58366
SWIDTH 960 0
DWIDTH 8 0
BBX 8 8 0 -1
BITMAP
0F
0F
0F
0F
FF
FF
FF
FF
ENDCHAR
STARTCHAR E3FF
ENCODING 58367
SWIDTH 960 0
DWIDTH 8 0
BBX 8 8 0 -1
BITMAP
CC
CC
33
33
CC
CC
33
33
ENDCHAR
STARTCHAR EE00
ENCODING 60928
SWIDTH 960 0
DWIDTH 8 0
BBX 6 7 1 0
BITMAP
78
CC
DC
DC
C0
C4
78
ENDCHAR
STARTCHAR EE01
ENCODING 60929
SWIDTH 960 0
DWIDTH 8 0
BBX 6 7 1 0
BITMAP
30
78
CC
FC
CC
CC
CC
ENDCHAR
STARTCHAR EE02
ENCODING 60930
SWIDTH 960 0
DWIDTH 8 0
BBX 6 7 1 0
BITMAP
F8
CC
CC
F8
CC
CC
F8
ENDCHAR
STARTCHAR EE03
ENCODING 60931
SWIDTH 960 0
DWIDTH 8 0
BBX 6 7 1 0
BITMAP
78
CC
C0
C0
C0
CC
78
ENDCHAR
STARTCHAR EE04
ENCODING 60932
SWIDTH 960 0
DWIDTH 8 0
BBX 6 7 1 0
BITMAP
F0
D8
CC
CC
CC
D8
F0
ENDCHAR
STARTCHAR EE05
ENCODING 60933
SWIDTH 960 0
DWIDTH 8 0
BBX 6 7 1 0
BITMAP
FC
C0
C0
F0
C0
C0
FC
ENDCHAR
STARTCHAR EE06
ENCODING 60934
SWIDTH 960 0
DWIDTH 8 0
BBX 6 7 1 0
BITMAP
FC
C0
C0
F0
C0
C0
C0
ENDCHAR
STARTCHAR EE07
ENCODING 60935
SWIDTH 960 0
DWIDTH 8 0
BBX 6 7 1 0
BITMAP
78
CC
C0
DC
CC
CC
78
ENDCHAR
STARTCHAR EE08
ENCODING 60936
SWIDTH 960 0
DWIDTH 8 0
BBX 6 7 1 0
BITMAP
CC
CC
CC
FC
CC
CC
CC
ENDCHAR
STARTCHAR EE09
ENCODING 60937
SWIDTH 960 0
DWIDTH 8 0
BBX 4 7 2 0
BITMAP
F0
60
60
60
60
60
F0
ENDCHAR
STARTCHAR EE0A
ENCODING 60938
SWIDTH 960 0
DWIDTH 8 0
BBX 6 7 1 0
BITMAP
3C
18
18
18
18
D8
70
ENDCHAR
STARTCHAR EE0B
ENCODING 60939
SWIDTH 960 0
DWIDTH 8 0
BBX 6 7 1 0
BITMAP
CC
D8
F0
E0
F0
D8
CC
ENDCHAR
STARTCHAR EE0C
ENCODING 60940
SWIDTH 960 0
DWIDTH 8 0
BBX 6 7 1 0
BITMAP
C0
C0
C0
C0
C0
C0
FC
ENDCHAR
STARTCHAR EE0D
ENCODING 60941
SWIDTH 960 0
DWIDTH 8 0
BBX 7 7 1 0
BITMAP
C6
EE
FE
D6
C6
C6
C6
ENDCHAR
STARTCHAR EE0E
ENCODING 60942
SWIDTH 960 0
DWIDTH 8 0
BBX 6 7 1 0
BITMAP
CC
EC
FC
FC
DC
CC
CC
ENDCHAR
STARTCHAR EE0F
ENCODING 60943
SWIDTH 960 0
DWIDTH 8 0
BBX 6 7 1 0
BITMAP
78
CC
CC
CC
CC
CC
78
ENDCHAR
STARTCHAR EE10
ENCODING 60944
SWIDTH 960 0
DWIDTH 8 0
BBX 6 7 1 0
BITMAP
F8
CC
CC
F8
C0
C0
C0
ENDCHAR
STARTCHAR EE11
ENCODING 60945
SWIDTH 960 0
DWIDTH 8 0
BBX 6 7 1 0
BITMAP
78
CC
CC
CC
CC
78
1C
ENDCHAR
STARTCHAR EE12
ENCODING 60946
SWIDTH 960 0
DWIDTH 8 0
BBX 6 7 1 0
BITMAP
F8
CC
CC
F8
F0
D8
CC
ENDCHAR
STARTCHAR EE13
ENCODING 60947
SWIDTH 960 0
DWIDTH 8 0
BBX 6 7 1 0
BITMAP
78
CC
C0
78
0C
CC
78
ENDCHAR
STARTCHAR EE14
ENCODING 60948
SWIDTH 960 0
DWIDTH 8 0
BBX 6 7 1 0
BITMAP
FC
30
30
30
30
30
30
ENDCHAR
STARTCHAR EE15
ENCODING 60949
SWIDTH 960 0
DWIDTH 8 0
BBX 6 7 1 0
BITMAP
CC
CC
CC
CC
CC
CC
78
ENDCHAR
STARTCHAR EE16
ENCODING 60950
SWIDTH 960 0
DWIDTH 8 0
BBX 6 7 1 0
BITMAP
CC
CC
CC
CC
CC
78
30
ENDCHAR
STARTCHAR EE17
ENCODING 60951
SWIDTH 960 0
DWIDTH 8 0
BBX 7 7 1 0
BITMAP
C6
C6
C6
D6
FE
EE
C6
ENDCHAR
STARTCHAR EE18
ENCODING 60952
SWIDTH 960 0
DWIDTH 8 0
BBX 6 7 1 0
BITMAP
CC
CC
78
30
78
CC
CC
ENDCHAR
STARTCHAR EE19
ENCODING 60953
SWIDTH 960 0
DWIDTH 8 0
BBX 6 7 1 0
BITMAP
CC
CC
CC
78
30
30
30
ENDCHAR
STARTCHAR EE1A
ENCODING 60954
SWIDTH 960 0
DWIDTH 8 0
BBX 6 7 1 0
BITMAP
FC
0C
18
30
60
C0
FC
ENDCHAR
STARTCHAR EE1B
ENCODING 60955
SWIDTH 960 0
DWIDTH 8 0
BBX 4 7 2 0
BITMAP
F0
C0
C0
C0
C0
C0
F0
ENDCHAR
STARTCHAR EE1C
ENCODING 60956
SWIDTH 960 0
DWIDTH 8 0
BBX 7 7 0 0
BITMAP
0C
12
30
7C
30
62
FC
ENDCHAR
STARTCHAR EE1D
ENCODING 60957
SWIDTH 960 0
DWIDTH 8 0
BBX 4 7 2 0
BITMAP
F0
30
30
30
30
30
F0
ENDCHAR
STARTCHAR EE1E
ENCODING 60958
SWIDTH 960 0
DWIDTH 8 0
BBX 6 7 1 -1
BITMAP
30
78
FC
30
30
30
30
ENDCHAR
STARTCHAR EE1F
ENCODING 60959
SWIDTH 960 0
DWIDTH 8 0
BBX 7 6 1 0
BITMAP
20
60
FE
FE
60
20
ENDCHAR
STARTCHAR EE20
ENCODING 60960
SWIDTH 960 0
DWIDTH 8 0
BBX 0 0 0 0
BITMAP
ENDCHAR
STARTCHAR EE21
ENCODING 60961
SWIDTH 960 0
DWIDTH 8 0
BBX 2 7 3 0
BITMAP
C0
C0
C0
C0
00
00
C0
ENDCHAR
STARTCHAR EE22
ENCODING 60962
SWIDTH 960 0
DWIDTH 8 0
BBX 6 3 1 4
BITMAP
CC
CC
CC
ENDCHAR
STARTCHAR EE23
ENCODING 60963
SWIDTH 960 0
DWIDTH 8 0
BBX 8 7 0 0
BITMAP
66
66
FF
66
FF
66
66
ENDCHAR
STARTCHAR EE24
ENCODING 60964
SWIDTH 960 0
DWIDTH 8 0
BBX 6 7 1 0
BITMAP
30
7C
C0
78
0C
F8
30
ENDCHAR
STARTCHAR EE25
ENCODING 60965
SWIDTH 960 0
DWIDTH 8 0
BBX 6 7 1 0
BITMAP
C4
CC
18
30
60
CC
8C
ENDCHAR
STARTCHAR EE26
ENCODING 60966
SWIDTH 960 0
DWIDTH 8 0
BBX 7 7 1 0
BITMAP
78
CC
78
70
CE
CC
7E
ENDCHAR
STARTCHAR EE27
ENCODING 60967
SWIDTH 960 0
DWIDTH 8 0
BBX 4 3 3 4
BITMAP
30
60
C0
ENDCHAR
STARTCHAR EE28
ENCODING 60968
SWIDTH 960 0
DWIDTH 8 0
BBX 4 7 2 0
BITMAP
30
60
C0
C0
C0
60
30
ENDCHAR
STARTCHAR EE29
ENCODING 60969
SWIDTH 960 0
DWIDTH 8 0
BBX 4 7 2 0
BITMAP
C0
60
30
30
30
60
C0
ENDCHAR
STARTCHAR EE2A
ENCODING 60970
SWIDTH 960 0
DWIDTH 8 0
BBX 8 5 0 1
BITMAP
66
3C
FF
3C
66
ENDCHAR
STARTCHAR EE2B
ENCODING 60971
SWIDTH 960 0
DWIDTH 8 0
BBX 6 5 1 1
BITMAP
30
30
FC
30
30
ENDCHAR
STARTCHAR EE2C
ENCODING 60972
SWIDTH 960 0
DWIDTH 8 0
BBX 3 3 2 -1
BITMAP
60
60
C0
ENDCHAR
STARTCHAR EE2D
ENCODING 60973
SWIDTH 960 0
DWIDTH 8 0
BBX 6 1 1 3
BITMAP
FC
ENDCHAR
STARTCHAR EE2E
ENCODING 60974
SWIDTH 960 0
DWIDTH 8 0
BBX 2 2 3 0
BITMAP
C0
C0
ENDCHAR
STARTCHAR EE2F
ENCODING 60975
SWIDTH 960 0
DWIDTH 8 0
BBX 7 6 1 0
BITMAP
06
0C
18
30
60
C0
ENDCHAR
STARTCHAR EE30
ENCODING 60976
SWIDTH 960 0
DWIDTH 8 0
BBX 6 7 1 0
BITMAP
78
CC
DC
EC
CC
CC
78
ENDCHAR
STARTCHAR EE31
ENCODING 60977
SWIDTH 960 0
DWIDTH 8 0
BBX 6 7 1 0
BITMAP
30
30
70
30
30
30
FC
ENDCHAR
STARTCHAR EE32
ENCODING 60978
SWIDTH 960 0
DWIDTH 8 0
BBX 6 7 1 0
BITMAP
78
CC
0C
18
60
C0
FC
ENDCHAR
STARTCHAR EE33
ENCODING 60979
SWIDTH 960 0
DWIDTH 8 0
BBX 6 7 1 0
BITMAP
78
CC
0C
38
0C
CC
78
ENDCHAR
STARTCHAR EE34
ENCODING 60980
SWIDTH 960 0
DWIDTH 8 0
BBX 7 7 1 0
BITMAP
0C
1C
3C
CC
FE
0C
0C
ENDCHAR
STARTCHAR EE35
ENCODING 60981
SWIDTH 960 0
DWIDTH 8 0
BBX 6 7 1 0
BITMAP
FC
C0
F8
0C
0C
CC
78
ENDCHAR
STARTCHAR EE36
ENCODING 60982
SWIDTH 960 0
DWIDTH 8 0
BBX 6 7 1 0
BITMAP
78
CC
C0
F8
CC
CC
78
ENDCHAR
STARTCHAR EE37
ENCODING 60983
SWIDTH 960 0
DWIDTH 8 0
BBX 6 7 1 0
BITMAP
FC
CC
18
30
30
30
30
ENDCHAR
STARTCHAR EE38
ENCODING 60984
SWIDTH 960 0
DWIDTH 8 0
BBX 6 7 1 0
BITMAP
78
CC
CC
78
CC
CC
78
ENDCHAR
STARTCHAR EE39
ENCODING 60985
SWIDTH 960 0
DWIDTH 8 0
BBX 6 7 1 0
BITMAP
78
CC
CC
7C
0C
CC
78
ENDCHAR
STARTCHAR EE3A
ENCODING 60986
SWIDTH 960 0
DWIDTH 8 0
BBX 2 4 3 1
BITMAP
C0
00
00
C0
ENDCHAR
STARTCHAR EE3B
ENCODING 60987
SWIDTH 960 0
DWIDTH 8 0
BBX 3 6 2 -1
BITMAP
60
00
00
60
60
C0
ENDCHAR
STARTCHAR EE3C
ENCODING 60988
SWIDTH 960 0
DWIDTH 8 0
BBX 6 7 1 0
BITMAP
1C
30
60
C0
60
30
1C
ENDCHAR
STARTCHAR EE3D
ENCODING 60989
SWIDTH 960 0
DWIDTH 8 0
BBX 6 3 1 2
BITMAP
FC
00
FC
ENDCHAR
STARTCHAR EE3E
ENCODING 60990
SWIDTH 960 0
DWIDTH 8 0
BBX 6 7 1 0
BITMAP
E0
30
18
0C
18
30
E0
ENDCHAR
STARTCHAR EE3F
ENCODING 60991
SWIDTH 960 0
DWIDTH 8 0
BBX 6 7 1 0
BITMAP
78
CC
0C
18
30
00
30
ENDCHAR
STARTCHAR EE40
ENCODING 60992
SWIDTH 960 0
DWIDTH 8 0
BBX 8 2 0 2
BITMAP
FF
FF
ENDCHAR
STARTCHAR EE41
ENCODING 60993
SWIDTH 960 0
DWIDTH 8 0
BBX 7 7 1 0
BITMAP
10
38
7C
FE
FE
38
7C
ENDCHAR
STARTCHAR EE42
ENCODING 60994
SWIDTH 960 0
DWIDTH 8 0
BBX 2 8 3 -1
BITMAP
C0
C0
C0
C0
C0
C0
C0
C0
ENDCHAR
STARTCHAR EE43
ENCODING 60995
SWIDTH 960 0
DWIDTH 8 0
BBX 8 2 0 2
BITMAP
FF
FF
ENDCHAR
STARTCHAR EE44
ENCODING 60996
SWIDTH 960 0
DWIDTH 8 0
BBX 8 2 0 3
BITMAP
FF
FF
ENDCHAR
STARTCHAR EE45
ENCODING 60997
SWIDTH 960 0
DWIDTH 8 0
BBX 8 2 0 4
BITMAP
FF
FF
ENDCHAR
STARTCHAR EE46
ENCODING 60998
SWIDTH 960 0
DWIDTH 8 0
BBX 8 2 0 1
BITMAP
FF
FF
ENDCHAR
STARTCHAR EE47
ENCODING 60999
SWIDTH 960 0
DWIDTH 8 0
BBX 2 8 2 -1
BITMAP
C0
C0
C0
C0
C0
C0
C0
C0
ENDCHAR
STARTCHAR EE48
ENCODING 61000
SWIDTH 960 0
DWIDTH 8 0
BBX 2 8 4 -1
BITMAP
C0
C0
C0
C0
C0
C0
C0
C0
ENDCHAR
STARTCHAR EE49
ENCODING 61001
SWIDTH 960 0
DWIDTH 8 0
BBX 5 5 0 -1
BITMAP
E0
F0
38
18
18
ENDCHAR
STARTCHAR EE4A
ENCODING 61002
SWIDTH 960 0
DWIDTH 8 0
BBX 5 5 3 2
BITMAP
C0
C0
E0
78
38
ENDCHAR
STARTCHAR EE4B
ENCODING 61003
SWIDTH 960 0
DWIDTH 8 0
BBX 5 5 0 2
BITMAP
18
18
38
F0
E0
ENDCHAR
STARTCHAR EE4C
ENCODING 61004
SWIDTH 960 0
DWIDTH 8 0
BBX 8 8 0 -1
BITMAP
C0
C0
C0
C0
C0
C0
FF
FF
ENDCHAR
STARTCHAR EE4D
ENCODING 61005
SWIDTH 960 0
DWIDTH 8 0
BBX 8 8 0 -1
BITMAP
C0
E0
70
38
1C
0E
07
03
ENDCHAR
STARTCHAR EE4E
ENCODING 61006
SWIDTH 960 0
DWIDTH 8 0
BBX 8 8 0 -1
BITMAP
03
07
0E
1C
38
70
E0
C0
ENDCHAR
STARTCHAR EE4F
ENCODING 61007
SWIDTH 960 0
DWIDTH 8 0
BBX 8 8 0 -1
BITMAP
FF
FF
C0
C0
C0
C0
C0
C0
ENDCHAR
STARTCHAR EE50
ENCODING 61008
SWIDTH 960 0
DWIDTH 8 0
BBX 8 8 0 -1
BITMAP
FF
FF
03
03
03
03
03
03
ENDCHAR
STARTCHAR EE51
ENCODING 61009
SWIDTH 960 0
DWIDTH 8 0
BBX 6 6 1 0
BITMAP
78
FC
FC
FC
FC
78
ENDCHAR
STARTCHAR EE52
ENCODING 61010
SWIDTH 960 0
DWIDTH 8 0
BBX 8 2 0 0
BITMAP
FF
FF
ENDCHAR
STARTCHAR EE53
ENCODING 61011
SWIDTH 960 0
DWIDTH 8 0
BBX 7 7 1 0
BITMAP
6C
FE
FE
FE
7C
38
10
ENDCHAR
STARTCHAR EE54
ENCODING 61012
SWIDTH 960 0
DWIDTH 8 0
BBX 2 8 1 -1
BITMAP
C0
C0
C0
C0
C0
C0
C0
C0
ENDCHAR
STARTCHAR EE55
ENCODING 61013
SWIDTH 960 0
DWIDTH 8 0
BBX 5 5 3 -1
BITMAP
38
78
E0
C0
C0
ENDCHAR
STARTCHAR EE56
ENCODING 61014
SWIDTH 960 0
DWIDTH 8 0
BBX 8 8 0 -1
BITMAP
C3
E7
7E
3C
3C
7E
E7
C3
ENDCHAR
STARTCHAR EE57
ENCODING 61015
SWIDTH 960 0
DWIDTH 8 0
BBX 6 6 1 0
BITMAP
78
FC
CC
CC
FC
78
ENDCHAR
STARTCHAR EE58
ENCODING 61016
SWIDTH 960 0
DWIDTH 8 0
BBX 6 7 1 0
BITMAP
30
30
CC
CC
30
30
78
ENDCHAR
STARTCHAR EE59
ENCODING 61017
SWIDTH 960 0
DWIDTH 8 0
BBX 2 8 5 -1
BITMAP
C0
C0
C0
C0
C0
C0
C0
C0
ENDCHAR
STARTCHAR EE5A
ENCODING 61018
SWIDTH 960 0
DWIDTH 8 0
BBX 7 7 1 0
BITMAP
10
38
7C
FE
7C
38
10
ENDCHAR
STARTCHAR EE5B
ENCODING 61019
SWIDTH 960 0
DWIDTH 8 0
BBX 8 8 0 -1
BITMAP
18
18
18
FF
FF
18
18
18
ENDCHAR
STARTCHAR EE5C
ENCODING 61020
SWIDTH 960 0
DWIDTH 8 0
BBX 4 8 0 -1
BITMAP
C0
C0
30
30
C0
C0
30
30
ENDCHAR
STARTCHAR EE5D
ENCODING 61021
SWIDTH 960 0
DWIDTH 8 0
BBX 2 8 3 -1
BITMAP
C0
C0
C0
C0
C0
C0
C0
C0
ENDCHAR
STARTCHAR EE5E
ENCODING 61022
SWIDTH 960 0
DWIDTH 8 0
BBX 7 5 1 0
BITMAP
06
7C
EC
6C
6C
ENDCHAR
STARTCHAR EE5F
ENCODING 61023
SWIDTH 960 0
DWIDTH 8 0
BBX 8 8 0 -1
BITMAP
FF
7F
3F
1F
0F
07
03
01
ENDCHAR
STARTCHAR EE60
ENCODING 61024
SWIDTH 960 0
DWIDTH 8 0
BBX 0 0 0 0
BITMAP
ENDCHAR
STARTCHAR EE61
ENCODING 61025
SWIDTH 960 0
DWIDTH 8 0
BBX 4 8 0 -1
BITMAP
F0
F0
F0
F0
F0
F0
F0
F0
ENDCHAR
STARTCHAR EE62
ENCODING 61026
SWIDTH 960 0
DWIDTH 8 0
BBX 8 4 0 -1
BITMAP
FF
FF
FF
FF
ENDCHAR
STARTCHAR EE63
ENCODING 61027
SWIDTH 960 0
DWIDTH 8 0
BBX 8 1 0 6
BITMAP
FF
ENDCHAR
STARTCHAR EE64
ENCODING 61028
SWIDTH 960 0
DWIDTH 8 0
BBX 8 1 0 -1
BITMAP
FF
ENDCHAR
STARTCHAR EE65
ENCODING 61029
SWIDTH 960 0
DWIDTH 8 0
BBX 2 8 0 -1
BITMAP
C0
C0
C0
C0
C0
C0
C0
C0
ENDCHAR
STARTCHAR EE66
ENCODING 61030
SWIDTH 960 0
DWIDTH 8 0
BBX 8 8 0 -1
BITMAP
CC
CC
33
33
CC
CC
33
33
ENDCHAR
STARTCHAR EE67
ENCODING 61031
SWIDTH 960 0
DWIDTH 8 0
BBX 2 8 6 -1
BITMAP
C0
C0
C0
C0
C0
C0
C0
C0
ENDCHAR
STARTCHAR EE68
ENCODING 61032
SWIDTH 960 0
DWIDTH 8 0
BBX 8 4 0 -1
BITMAP
CC
CC
33
33
ENDCHAR
STARTCHAR EE69
ENCODING 61033
SWIDTH 960 0
DWIDTH 8 0
BBX 8 8 0 -1
BITMAP
FF
FE
FC
F8
F0
E0
C0
80
ENDCHAR
STARTCHAR EE6A
ENCODING 61034
SWIDTH 960 0
DWIDTH 8 0
BBX 2 8 6 -1
BITMAP
C0
C0
C0
C0
C0
C0
C0
C0
ENDCHAR
STARTCHAR EE6B
ENCODING 61035
SWIDTH 960 0
DWIDTH 8 0
BBX 5 8 3 -1
BITMAP
C0
C0
C0
F8
F8
C0
C0
C0
ENDCHAR
STARTCHAR EE6C
ENCODING 61036
SWIDTH 960 0
DWIDTH 8 0
BBX 4 4 4 -1
BITMAP
F0
F0
F0
F0
ENDCHAR
STARTCHAR EE6D
ENCODING 61037
SWIDTH 960 0
DWIDTH 8 0
BBX 5 5 3 2
BITMAP
C0
C0
C0
F8
F8
ENDCHAR
STARTCHAR EE6E
ENCODING 61038
SWIDTH 960 0
DWIDTH 8 0
BBX 5 5 0 -1
BITMAP
F8
F8
18
18
18
ENDCHAR
STARTCHAR EE6F
ENCODING 61039
SWIDTH 960 0
DWIDTH 8 0
BBX 8 2 0 -1
BITMAP
FF
FF
ENDCHAR
STARTCHAR EE70
ENCODING 61040
SWIDTH 960 0
DWIDTH 8 0
BBX 5 5 3 -1
BITMAP
F8
F8
C0
C0
C0
ENDCHAR
STARTCHAR EE71
ENCODING 61041
SWIDTH 960 0
DWIDTH 8 0
BBX 8 5 0 2
BITMAP
18
18
18
FF
FF
ENDCHAR
STARTCHAR EE72
ENCODING 61042
SWIDTH 960 0
DWIDTH 8 0
BBX 8 5 0 -1
BITMAP
FF
FF
18
18
18
ENDCHAR
STARTCHAR EE73
ENCODING 61043
SWIDTH 960 0
DWIDTH 8 0
BBX 5 8 0 -1
BITMAP
18
18
18
F8
F8
18
18
18
ENDCHAR
STARTCHAR EE74
ENCODING 61044
SWIDTH 960 0
DWIDTH 8 0
BBX 2 8 0 -1
BITMAP
C0
C0
C0
C0
C0
C0
C0
C0
ENDCHAR
STARTCHAR EE75
ENCODING 61045
SWIDTH 960 0
DWIDTH 8 0
BBX 3 8 0 -1
BITMAP
E0
E0
E0
E0
E0
E0
E0
E0
ENDCHAR
STARTCHAR EE76
ENCODING 61046
SWIDTH 960 0
DWIDTH 8 0
BBX 3 8 5 -1
BITMAP
E0
E0
E0
E0
E0
E0
E0
E0
ENDCHAR
STARTCHAR EE77
ENCODING 61047
SWIDTH 960 0
DWIDTH 8 0
BBX 8 2 0 5
BITMAP
FF
FF
ENDCHAR
STARTCHAR EE78
ENCODING 61048
SWIDTH 960 0
DWIDTH 8 0
BBX 8 3 0 4
BITMAP
FF
FF
FF
ENDCHAR
STARTCHAR EE79
ENCODING 61049
SWIDTH 960 0
DWIDTH 8 0
BBX 8 3 0 -1
BITMAP
FF
FF
FF
ENDCHAR
STARTCHAR EE7A
ENCODING 61050
SWIDTH 960 0
DWIDTH 8 0
BBX 8 8 0 -1
BITMAP
03
03
03
03
03
03
FF
FF
ENDCHAR
STARTCHAR EE7B
ENCODING 61051
SWIDTH 960 0
DWIDTH 8 0
BBX 4 4 0 -1
BITMAP
F0
F0
F0
F0
ENDCHAR
STARTCHAR EE7C
ENCODING 61052
SWIDTH 960 0
DWIDTH 8 0
BBX 4 4 4 3
BITMAP
F0
F0
F0
F0
ENDCHAR
STARTCHAR EE7D
ENCODING 61053
SWIDTH 960 0
DWIDTH 8 0
BBX 5 5 0 2
BITMAP
18
18
18
F8
F8
ENDCHAR
STARTCHAR EE7E
ENCODING 61054
SWIDTH 960 0
DWIDTH 8 0
BBX 4 4 0 3
BITMAP
F0
F0
F0
F0
ENDCHAR
STARTCHAR EE7F
ENCODING 61055
SWIDTH 960 0
DWIDTH 8 0
BBX 8 8 0 -1
BITMAP
F0
F0
F0
F0
0F
0F
0F
0F
ENDCHAR
STARTCHAR EE80
ENCODING 61056
SWIDTH 960 0
DWIDTH 8 0
BBX 8 8 0 -1
BITMAP
C3
99
91
91
9F
99
C3
FF
ENDCHAR
STARTCHAR EE81
ENCODING 61057
SWIDTH 960 0
DWIDTH 8 0
BBX 8 8 0 -1
BITMAP
E7
C3
99
81
99
99
99
FF
ENDCHAR
STARTCHAR EE82
ENCODING 61058
SWIDTH 960 0
DWIDTH 8 0
BBX 8 8 0 -1
BITMAP
83
99
99
83
99
99
83
FF
ENDCHAR
STARTCHAR EE83
ENCODING 61059
SWIDTH 960 0
DWIDTH 8 0
BBX 8 8 0 -1
BITMAP
C3
99
9F
9F
9F
99
C3
FF
ENDCHAR
STARTCHAR EE84
ENCODING 61060
SWIDTH 960 0
DWIDTH 8 0
BBX 8 8 0 -1
BITMAP
87
93
99
99
99
93
87
FF
ENDCHAR
STARTCHAR EE85
ENCODING 61061
SWIDTH 960 0
DWIDTH 8 0
BBX 8 8 0 -1
BITMAP
81
9F
9F
87
9F
9F
81
FF
ENDCHAR
STARTCHAR EE86
ENCODING 61062
SWIDTH 960 0
DWIDTH 8 0
BBX 8 8 0 -1
BITMAP
81
9F
9F
87
9F
9F
9F
FF
ENDCHAR
STARTCHAR EE87
ENCODING 61063
SWIDTH 960 0
DWIDTH 8 0
BBX 8 8 0 -1
BITMAP
C3
99
9F
91
99
99
C3
FF
ENDCHAR
STARTCHAR EE88
ENCODING 61064
SWIDTH 960 0
DWIDTH 8 0
BBX 8 8 0 -1
BITMAP
99
99
99
81
99
99
99
FF
ENDCHAR
STARTCHAR EE89
ENCODING 61065
SWIDTH 960 0
DWIDTH 8 0
BBX 8 8 0 -1
BITMAP
C3
E7
E7
E7
E7
E7
C3
FF
ENDCHAR
STARTCHAR EE8A
ENCODING 61066
SWIDTH 960 0
DWIDTH 8 0
BBX 8 8 0 -1
BITMAP
E1
F3
F3
F3
F3
93
C7
FF
ENDCHAR
STARTCHAR EE8B
ENCODING 61067
SWIDTH 960 0
DWIDTH 8 0
BBX 8 8 0 -1
BITMAP
99
93
87
8F
87
93
99
FF
ENDCHAR
STARTCHAR EE8C
ENCODING 61068
SWIDTH 960 0
DWIDTH 8 0
BBX 8 8 0 -1
BITMAP
9F
9F
9F
9F
9F
9F
81
FF
ENDCHAR
STARTCHAR EE8D
ENCODING 61069
SWIDTH 960 0
DWIDTH 8 0
BBX 8 8 0 -1
BITMAP
9C
88
80
94
9C
9C
9C
FF
ENDCHAR
STARTCHAR EE8E
ENCODING 61070
SWIDTH 960 0
DWIDTH 8 0
BBX 8 8 0 -1
BITMAP
99
89
81
81
91
99
99
FF
ENDCHAR
STARTCHAR EE8F
ENCODING 61071
SWIDTH 960 0
DWIDTH 8 0
BBX 8 8 0 -1
BITMAP
C3
99
99
99
99
99
C3
FF
ENDCHAR
STARTCHAR EE90
ENCODING 61072
SWIDTH 960 0
DWIDTH 8 0
BBX 8 8 0 -1
BITMAP
83
99
99
83
9F
9F
9F
FF
ENDCHAR
STARTCHAR EE91
ENCODING 61073
SWIDTH 960 0
DWIDTH 8 0
BBX 8 8 0 -1
BITMAP
C3
99
99
99
99
C3
F1
FF
ENDCHAR
STARTCHAR EE92
ENCODING 61074
SWIDTH 960 0
DWIDTH 8 0
BBX 8 8 0 -1
BITMAP
83
99
99
83
87
93
99
FF
ENDCHAR
STARTCHAR EE93
ENCODING 61075
SWIDTH 960 0
DWIDTH 8 0
BBX 8 8 0 -1
BITMAP
C3
99
9F
C3
F9
99
C3
FF
ENDCHAR
STARTCHAR EE94
ENCODING 61076
SWIDTH 960 0
DWIDTH 8 0
BBX 8 8 0 -1
BITMAP
81
E7
E7
E7
E7
E7
E7
FF
ENDCHAR
STARTCHAR EE95
ENCODING 61077
SWIDTH 960 0
DWIDTH 8 0
BBX 8 8 0 -1
BITMAP
99
99
99
99
99
99
C3
FF
ENDCHAR
STARTCHAR EE96
ENCODING 61078
SWIDTH 960 0
DWIDTH 8 0
BBX 8 8 0 -1
BITMAP
99
99
99
99
99
C3
E7
FF
ENDCHAR
STARTCHAR EE97
ENCODING 61079
SWIDTH 960 0
DWIDTH 8 0
BBX 8 8 0 -1
BITMAP
9C
9C
9C
94
80
88
9C
FF
ENDCHAR
STARTCHAR EE98
ENCODING 61080
SWIDTH 960 0
DWIDTH 8 0
BBX 8 8 0 -1
BITMAP
99
99
C3
E7
C3
99
99
FF
ENDCHAR
STARTCHAR EE99
ENCODING 61081
SWIDTH 960 0
DWIDTH 8 0
BBX 8 8 0 -1
BITMAP
99
99
99
C3
E7
E7
E7
FF
ENDCHAR
STARTCHAR EE9A
ENCODING 61082
SWIDTH 960 0
DWIDTH 8 0
BBX 8 8 0 -1
BITMAP
81
F9
F3
E7
CF
9F
81
FF
ENDCHAR
STARTCHAR EE9B
ENCODING 61083
SWIDTH 960 0
DWIDTH 8 0
BBX 8 8 0 -1
BITMAP
C3
CF
CF
CF
CF
CF
C3
FF
ENDCHAR
STARTCHAR EE9C
ENCODING 61084
SWIDTH 960 0
DWIDTH 8 0
BBX 8 8 0 -1
BITMAP
F3
ED
CF
83
CF
9D
03
FF
ENDCHAR
STARTCHAR EE9D
ENCODING 61085
SWIDTH 960 0
DWIDTH 8 0
BBX 8 8 0 -1
BITMAP
C3
F3
F3
F3
F3
F3
C3
FF
ENDCHAR
STARTCHAR EE9E
ENCODING 61086
SWIDTH 960 0
DWIDTH 8 0
BBX 8 8 0 -1
BITMAP
FF
E7
C3
81
E7
E7
E7
E7
ENDCHAR
STARTCHAR EE9F
ENCODING 61087
SWIDTH 960 0
DWIDTH 8 0
BBX 8 8 0 -1
BITMAP
FF
EF
CF
80
80
CF
EF
FF
ENDCHAR
STARTCHAR EEA0
ENCODING 61088
SWIDTH 960 0
DWIDTH 8 0
BBX 8 8 0 -1
BITMAP
FF
FF
FF
FF
FF
FF
FF
FF
ENDCHAR
STARTCHAR EEA1
ENCODING 61089
SWIDTH 960 0
DWIDTH 8 0
BBX 8 8 0 -1
BITMAP
E7
E7
E7
E7
FF
FF
E7
FF
ENDCHAR
STARTCHAR EEA2
ENCODING 61090
SWIDTH 960 0
DWIDTH 8 0
BBX 8 8 0 -1
BITMAP
99
99
99
FF
FF
FF
FF
FF
ENDCHAR
STARTCHAR EEA3
ENCODING 61091
SWIDTH 960 0
DWIDTH 8 0
BBX 8 8 0 -1
BITMAP
99
99
00
99
00
99
99
FF
ENDCHAR
STARTCHAR EEA4
ENCODING 61092
SWIDTH 960 0
DWIDTH 8 0
BBX 8 8 0 -1
BITMAP
E7
C1
9F
C3
F9
83
E7
FF
ENDCHAR
STARTCHAR EEA5
ENCODING 61093
SWIDTH 960 0
DWIDTH 8 0
BBX 8 8 0 -1
BITMAP
9D
99
F3
E7
CF
99
B9
FF
ENDCHAR
STARTCHAR EEA6
ENCODING 61094
SWIDTH 960 0
DWIDTH 8 0
BBX 8 8 0 -1
BITMAP
C3
99
C3
C7
98
99
C0
FF
ENDCHAR
STARTCHAR EEA7
ENCODING 61095
SWIDTH 960 0
DWIDTH 8 0
BBX 8 8 0 -1
BITMAP
F9
F3
E7
FF
FF
FF
FF
FF
ENDCHAR
STARTCHAR EEA8
ENCODING 61096
SWIDTH 960 0
DWIDTH 8 0
BBX 8 8 0 -1
BITMAP
F3
E7
CF
CF
CF
E7
F3
FF
ENDCHAR
STARTCHAR EEA9
ENCODING 61097
SWIDTH 960 0
DWIDTH 8 0
BBX 8 8 0 -1
BITMAP
CF
E7
F3
F3
F3
E7
CF
FF
ENDCHAR
STARTCHAR EEAA
ENCODING 61098
SWIDTH 960 0
DWIDTH 8 0
BBX 8 8 0 -1
BITMAP
FF
99
C3
00
C3
99
FF
FF
ENDCHAR
STARTCHAR EEAB
ENCODING 61099
SWIDTH 960 0
DWIDTH 8 0
BBX 8 8 0 -1
BITMAP
FF
E7
E7
81
E7
E7
FF
FF
ENDCHAR
STARTCHAR EEAC
ENCODING 61100
SWIDTH 960 0
DWIDTH 8 0
BBX 8 8 0 -1
BITMAP
FF
FF
FF
FF
FF
E7
E7
CF
ENDCHAR
STARTCHAR EEAD
ENCODING 61101
SWIDTH 960 0
DWIDTH 8 0
BBX 8 8 0 -1
BITMAP
FF
FF
FF
81
FF
FF
FF
FF
ENDCHAR
STARTCHAR EEAE
ENCODING 61102
SWIDTH 960 0
DWIDTH 8 0
BBX 8 8 0 -1
BITMAP
FF
FF
FF
FF
FF
E7
E7
FF
ENDCHAR
STARTCHAR EEAF
ENCODING 61103
SWIDTH 960 0
DWIDTH 8 0
BBX 8 8 0 -1
BITMAP
FF
FC
F9
F3
E7
CF
9F
FF
ENDCHAR
STARTCHAR EEB0
ENCODING 61104
SWIDTH 960 0
DWIDTH 8 0
BBX 8 8 0 -1
BITMAP
C3
99
91
89
99
99
C3
FF
ENDCHAR
STARTCHAR EEB1
ENCODING 61105
SWIDTH 960 0
DWIDTH 8 0
BBX 8 8 0 -1
BITMAP
E7
E7
C7
E7
E7
E7
81
FF
ENDCHAR
STARTCHAR EEB2
ENCODING 61106
SWIDTH 960 0
DWIDTH 8 0
BBX 8 8 0 -1
BITMAP
C3
99
F9
F3
CF
9F
81
FF
ENDCHAR
STARTCHAR EEB3
ENCODING 61107
SWIDTH 960 0
DWIDTH 8 0
BBX 8 8 0 -1
BITMAP
C3
99
F9
E3
F9
99
C3
FF
ENDCHAR
STARTCHAR EEB4
ENCODING 61108
SWIDTH 960 0
DWIDTH 8 0
BBX 8 8 0 -1
BITMAP
F9
F1
E1
99
80
F9
F9
FF
ENDCHAR
STARTCHAR EEB5
ENCODING 61109
SWIDTH 960 0
DWIDTH 8 0
BBX 8 8 0 -1
BITMAP
81
9F
83
F9
F9
99
C3
FF
ENDCHAR
STARTCHAR EEB6
ENCODING 61110
SWIDTH 960 0
DWIDTH 8 0
BBX 8 8 0 -1
BITMAP
C3
99
9F
83
99
99
C3
FF
ENDCHAR
STARTCHAR EEB7
ENCODING 61111
SWIDTH 960 0
DWIDTH 8 0
BBX 8 8 0 -1
BITMAP
81
99
F3
E7
E7
E7
E7
FF
ENDCHAR
STARTCHAR EEB8
ENCODING 61112
SWIDTH 960 0
DWIDTH 8 0
BBX 8 8 0 -1
BITMAP
C3
99
99
C3
99
99
C3
FF
ENDCHAR
STARTCHAR EEB9
ENCODING 61113
SWIDTH 960 0
DWIDTH 8 0
BBX 8 8 0 -1
BITMAP
C3
99
99
C1
F9
99
C3
FF
ENDCHAR
STARTCHAR EEBA
ENCODING 61114
SWIDTH 960 0
DWIDTH 8 0
BBX 8 8 0 -1
BITMAP
FF
FF
E7
FF
FF
E7
FF
FF
ENDCHAR
STARTCHAR EEBB
ENCODING 61115
SWIDTH 960 0
DWIDTH 8 0
BBX 8 8 0 -1
BITMAP
FF
FF
E7
FF
FF
E7
E7
CF
ENDCHAR
STARTCHAR EEBC
ENCODING 61116
SWIDTH 960 0
DWIDTH 8 0
BBX 8 8 0 -1
BITMAP
F1
E7
CF
9F
CF
E7
F1
FF
ENDCHAR
STARTCHAR EEBD
ENCODING 61117
SWIDTH 960 0
DWIDTH 8 0
BBX 8 8 0 -1
BITMAP
FF
FF
81
FF
81
FF
FF
FF
ENDCHAR
STARTCHAR EEBE
ENCODING 61118
SWIDTH 960 0
DWIDTH 8 0
BBX 8 8 0 -1
BITMAP
8F
E7
F3
F9
F3
E7
8F
FF
ENDCHAR
STARTCHAR EEBF
ENCODING 61119
SWIDTH 960 0
DWIDTH 8 0
BBX 8 8 0 -1
BITMAP
C3
99
F9
F3
E7
FF
E7
FF
ENDCHAR
STARTCHAR EEC0
ENCODING 61120
SWIDTH 960 0
DWIDTH 8 0
BBX 8 8 0 -1
BITMAP
FF
FF
FF
00
00
FF
FF
FF
ENDCHAR
STARTCHAR EEC1
ENCODING 61121
SWIDTH 960 0
DWIDTH 8 0
BBX 8 8 0 -1
BITMAP
F7
E3
C1
80
80
E3
C1
FF
ENDCHAR
STARTCHAR EEC2
ENCODING 61122
SWIDTH 960 0
DWIDTH 8 0
BBX 8 8 0 -1
BITMAP
E7
E7
E7
E7
E7
E7
E7
E7
ENDCHAR
STARTCHAR EEC3
ENCODING 61123
SWIDTH 960 0
DWIDTH 8 0
BBX 8 8 0 -1
BITMAP
FF
FF
FF
00
00
FF
FF
FF
ENDCHAR
STARTCHAR EEC4
ENCODING 61124
SWIDTH 960 0
DWIDTH 8 0
BBX 8 8 0 -1
BITMAP
FF
FF
00
00
FF
FF
FF
FF
ENDCHAR
STARTCHAR EEC5
ENCODING 61125
SWIDTH 960 0
DWIDTH 8 0
BBX 8 8 0 -1
BITMAP
FF
00
00
FF
FF
FF
FF
FF
ENDCHAR
STARTCHAR EEC6
ENCODING 61126
SWIDTH 960 0
DWIDTH 8 0
BBX 8 8 0 -1
BITMAP
FF
FF
FF
FF
00
00
FF
FF
ENDCHAR
STARTCHAR EEC7
ENCODING 61127
SWIDTH 960 0
DWIDTH 8 0
BBX 8 8 0 -1
BITMAP
CF
CF
CF
CF
CF
CF
CF
CF
ENDCHAR
STARTCHAR EEC8
ENCODING 61128
SWIDTH 960 0
DWIDTH 8 0
BBX 8 8 0 -1
BITMAP
F3
F3
F3
F3
F3
F3
F3
F3
ENDCHAR
STARTCHAR EEC9
ENCODING 61129
SWIDTH 960 0
DWIDTH 8 0
BBX 8 8 0 -1
BITMAP
FF
FF
FF
1F
0F
C7
E7
E7
ENDCHAR
STARTCHAR EECA
ENCODING 61130
SWIDTH 960 0
DWIDTH 8 0
BBX 8 8 0 -1
BITMAP
E7
E7
E3
F0
F8
FF
FF
FF
ENDCHAR
STARTCHAR EECB
ENCODING 61131
SWIDTH 960 0
DWIDTH 8 0
BBX 8 8 0 -1
BITMAP
E7
E7
C7
0F
1F
FF
FF
FF
ENDCHAR
STARTCHAR EECC
ENCODING 61132
SWIDTH 960 0
DWIDTH 8 0
BBX 6 6 2 1
BITMAP
FC
FC
FC
FC
FC
FC
ENDCHAR
STARTCHAR EECD
ENCODING 61133
SWIDTH 960 0
DWIDTH 8 0
BBX 8 8 0 -1
BITMAP
3F
1F
8F
C7
E3
F1
F8
FC
ENDCHAR
STARTCHAR EECE
ENCODING 61134
SWIDTH 960 0
DWIDTH 8 0
BBX 8 8 0 -1
BITMAP
FC
F8
F1
E3
C7
8F
1F
3F
ENDCHAR
STARTCHAR EECF
ENCODING 61135
SWIDTH 960 0
DWIDTH 8 0
BBX 6 6 2 -1
BITMAP
FC
FC
FC
FC
FC
FC
ENDCHAR
STARTCHAR EED0
ENCODING 61136
SWIDTH 960 0
DWIDTH 8 0
BBX 6 6 0 -1
BITMAP
FC
FC
FC
FC
FC
FC
ENDCHAR
STARTCHAR EED1
ENCODING 61137
SWIDTH 960 0
DWIDTH 8 0
BBX 8 8 0 -1
BITMAP
FF
C3
81
81
81
81
C3
FF
ENDCHAR
STARTCHAR EED2
ENCODING 61138
SWIDTH 960 0
DWIDTH 8 0
BBX 8 8 0 -1
BITMAP
FF
FF
FF
FF
FF
00
00
FF
ENDCHAR
STARTCHAR EED3
ENCODING 61139
SWIDTH 960 0
DWIDTH 8 0
BBX 8 8 0 -1
BITMAP
C9
80
80
80
C1
E3
F7
FF
ENDCHAR
STARTCHAR EED4
ENCODING 61140
SWIDTH 960 0
DWIDTH 8 0
BBX 8 8 0 -1
BITMAP
9F
9F
9F
9F
9F
9F
9F
9F
ENDCHAR
STARTCHAR EED5
ENCODING 61141
SWIDTH 960 0
DWIDTH 8 0
BBX 8 8 0 -1
BITMAP
FF
FF
FF
F8
F0
E3
E7
E7
ENDCHAR
STARTCHAR EED6
ENCODING 61142
SWIDTH 960 0
DWIDTH 8 0
BBX 8 8 0 -1
BITMAP
3C
18
81
C3
C3
81
18
3C
ENDCHAR
STARTCHAR EED7
ENCODING 61143
SWIDTH 960 0
DWIDTH 8 0
BBX 8 8 0 -1
BITMAP
FF
C3
81
99
99
81
C3
FF
ENDCHAR
STARTCHAR EED8
ENCODING 61144
SWIDTH 960 0
DWIDTH 8 0
BBX 8 8 0 -1
BITMAP
E7
E7
99
99
E7
E7
C3
FF
ENDCHAR
STARTCHAR EED9
ENCODING 61145
SWIDTH 960 0
DWIDTH 8 0
BBX 8 8 0 -1
BITMAP
F9
F9
F9
F9
F9
F9
F9
F9
ENDCHAR
STARTCHAR EEDA
ENCODING 61146
SWIDTH 960 0
DWIDTH 8 0
BBX 8 8 0 -1
BITMAP
F7
E3
C1
80
C1
E3
F7
FF
ENDCHAR
STARTCHAR EEDB
ENCODING 61147
SWIDTH 960 0
DWIDTH 8 0
BBX 8 8 0 -1
BITMAP
E7
E7
E7
00
00
E7
E7
E7
ENDCHAR
STARTCHAR EEDC
ENCODING 61148
SWIDTH 960 0
DWIDTH 8 0
BBX 8 8 0 -1
BITMAP
3F
3F
CF
CF
3F
3F
CF
CF
ENDCHAR
STARTCHAR EEDD
ENCODING 61149
SWIDTH 960 0
DWIDTH 8 0
BBX 8 8 0 -1
BITMAP
E7
E7
E7
E7
E7
E7
E7
E7
ENDCHAR
STARTCHAR EEDE
ENCODING 61150
SWIDTH 960 0
DWIDTH 8 0
BBX 8 8 0 -1
BITMAP
FF
FF
FC
C1
89
C9
C9
FF
ENDCHAR
STARTCHAR EEDF
ENCODING 61151
SWIDTH 960 0
DWIDTH 8 0
BBX 7 7 0 -1
BITMAP
80
C0
E0
F0
F8
FC
FE
ENDCHAR
STARTCHAR EEE0
ENCODING 61152
SWIDTH 960 0
DWIDTH 8 0
BBX 8 8 0 -1
BITMAP
FF
FF
FF
FF
FF
FF
FF
FF
ENDCHAR
STARTCHAR EEE1
ENCODING 61153
SWIDTH 960 0
DWIDTH 8 0
BBX 4 8 4 -1
BITMAP
F0
F0
F0
F0
F0
F0
F0
F0
ENDCHAR
STARTCHAR EEE2
ENCODING 61154
SWIDTH 960 0
DWIDTH 8 0
BBX 8 4 0 3
BITMAP
FF
FF
FF
FF
ENDCHAR
STARTCHAR EEE3
ENCODING 61155
SWIDTH 960 0
DWIDTH 8 0
BBX 8 7 0 -1
BITMAP
FF
FF
FF
FF
FF
FF
FF
ENDCHAR
STARTCHAR EEE4
ENCODING 61156
SWIDTH 960 0
DWIDTH 8 0
BBX 8 7 0 0
BITMAP
FF
FF
FF
FF
FF
FF
FF
ENDCHAR
STARTCHAR EEE5
ENCODING 61157
SWIDTH 960 0
DWIDTH 8 0
BBX 6 8 2 -1
BITMAP
FC
FC
FC
FC
FC
FC
FC
FC
ENDCHAR
STARTCHAR EEE6
ENCODING 61158
SWIDTH 960 0
DWIDTH 8 0
BBX 8 8 0 -1
BITMAP
33
33
CC
CC
33
33
CC
CC
ENDCHAR
STARTCHAR EEE7
ENCODING 61159
SWIDTH 960 0
DWIDTH 8 0
BBX 6 8 0 -1
BITMAP
FC
FC
FC
FC
FC
FC
FC
FC
ENDCHAR
STARTCHAR EEE8
ENCODING 61160
SWIDTH 960 0
DWIDTH 8 0
BBX 8 8 0 -1
BITMAP
FF
FF
FF
FF
33
33
CC
CC
ENDCHAR
STARTCHAR EEE9
ENCODING 61161
SWIDTH 960 0
DWIDTH 8 0
BBX 7 7 1 -1
BITMAP
02
06
0E
1E
3E
7E
FE
ENDCHAR
STARTCHAR EEEA
ENCODING 61162
SWIDTH 960 0
DWIDTH 8 0
BBX 6 8 0 -1
BITMAP
FC
FC
FC
FC
FC
FC
FC
FC
ENDCHAR
STARTCHAR EEEB
ENCODING 61163
SWIDTH 960 0
DWIDTH 8 0
BBX 8 8 0 -1
BITMAP
E7
E7
E7
E0
E0
E7
E7
E7
ENDCHAR
STARTCHAR EEEC
ENCODING 61164
SWIDTH 960 0
DWIDTH 8 0
BBX 8 8 0 -1
BITMAP
FF
FF
FF
FF
F0
F0
F0
F0
ENDCHAR
STARTCHAR EEED
ENCODING 61165
SWIDTH 960 0
DWIDTH 8 0
BBX 8 8 0 -1
BITMAP
E7
E7
E7
E0
E0
FF
FF
FF
ENDCHAR
STARTCHAR EEEE
ENCODING 61166
SWIDTH 960 0
DWIDTH 8 0
BBX 8 8 0 -1
BITMAP
FF
FF
FF
07
07
E7
E7
E7
ENDCHAR
STARTCHAR EEEF
ENCODING 61167
SWIDTH 960 0
DWIDTH 8 0
BBX 8 6 0 1
BITMAP
FF
FF
FF
FF
FF
FF
ENDCHAR
STARTCHAR EEF0
ENCODING 61168
SWIDTH 960 0
DWIDTH 8 0
BBX 8 8 0 -1
BITMAP
FF
FF
FF
E0
E0
E7
E7
E7
ENDCHAR
STARTCHAR EEF1
ENCODING 61169
SWIDTH 960 0
DWIDTH 8 0
BBX 8 8 0 -1
BITMAP
E7
E7
E7
00
00
FF
FF
FF
ENDCHAR
STARTCHAR EEF2
ENCODING 61170
SWIDTH 960 0
DWIDTH 8 0
BBX 8 8 0 -1
BITMAP
FF
FF
FF
00
00
E7
E7
E7
ENDCHAR
STARTCHAR EEF3
ENCODING 61171
SWIDTH 960 0
DWIDTH 8 0
BBX 8 8 0 -1
BITMAP
E7
E7
E7
07
07
E7
E7
E7
ENDCHAR
STARTCHAR EEF4
ENCODING 61172
SWIDTH 960 0
DWIDTH 8 0
BBX 6 8 2 -1
BITMAP
FC
FC
FC
FC
FC
FC
FC
FC
ENDCHAR
STARTCHAR EEF5
ENCODING 61173
SWIDTH 960 0
DWIDTH 8 0
BBX 5 8 3 -1
BITMAP
F8
F8
F8
F8
F8
F8
F8
F8
ENDCHAR
STARTCHAR EEF6
ENCODING 61174
SWIDTH 960 0
DWIDTH 8 0
BBX 5 8 0 -1
BITMAP
F8
F8
F8
F8
F8
F8
F8
F8
ENDCHAR
STARTCHAR EEF7
ENCODING 61175
SWIDTH 960 0
DWIDTH 8 0
BBX 8 6 0 -1
BITMAP
FF
FF
FF
FF
FF
FF
ENDCHAR
STARTCHAR EEF8
ENCODING 61176
SWIDTH 960 0
DWIDTH 8 0
BBX 8 5 0 -1
BITMAP
FF
FF
FF
FF
FF
ENDCHAR
STARTCHAR EEF9
ENCODING 61177
SWIDTH 960 0
DWIDTH 8 0
BBX 8 5 0 2
BITMAP
FF
FF
FF
FF
FF
ENDCHAR
STARTCHAR EEFA
ENCODING 61178
SWIDTH 960 0
DWIDTH 8 0
BBX 6 6 0 1
BITMAP
FC
FC
FC
FC
FC
FC
ENDCHAR
STARTCHAR EEFB
ENCODING 61179
SWIDTH 960 0
DWIDTH 8 0
BBX 8 8 0 -1
BITMAP
FF
FF
FF
FF
0F
0F
0F
0F
ENDCHAR
STARTCHAR EEFC
ENCODING 61180
SWIDTH 960 0
DWIDTH 8 0
BBX 8 8 0 -1
BITMAP
F0
F0
F0
F0
FF
FF
FF
FF
ENDCHAR
STARTCHAR EEFD
ENCODING 61181
SWIDTH 960 0
DWIDTH 8 0
BBX 8 8 0 -1
BITMAP
E7
E7
E7
07
07
FF
FF
FF
ENDCHAR
STARTCHAR EEFE
ENCODING 61182
SWIDTH 960 0
DWIDTH 8 0
BBX 8 8 0 -1
BITMAP
0F
0F
0F
0F
FF
FF
FF
FF
ENDCHAR
STARTCHAR EEFF
ENCODING 61183
SWIDTH 960 0
DWIDTH 8 0
BBX 8 8 0 -1
BITMAP
0F
0F
0F
0F
F0
F0
F0
F0
ENDCHAR
STARTCHAR EF00
ENCODING 61184
SWIDTH 960 0
DWIDTH 8 0
BBX 6 7 1 0
BITMAP
78
CC
DC
DC
C0
C4
78
ENDCHAR
STARTCHAR EF01
ENCODING 61185
SWIDTH 960 0
DWIDTH 8 0
BBX 6 5 1 0
BITMAP
78
0C
7C
CC
7C
ENDCHAR
STARTCHAR EF02
ENCODING 61186
SWIDTH 960 0
DWIDTH 8 0
BBX 6 6 1 0
BITMAP
C0
C0
F8
CC
CC
F8
ENDCHAR
STARTCHAR EF03
ENCODING 61187
SWIDTH 960 0
DWIDTH 8 0
BBX 5 5 1 0
BITMAP
78
C0
C0
C0
78
ENDCHAR
STARTCHAR EF04
ENCODING 61188
SWIDTH 960 0
DWIDTH 8 0
BBX 6 6 1 0
BITMAP
0C
0C
7C
CC
CC
7C
ENDCHAR
STARTCHAR EF05
ENCODING 61189
SWIDTH 960 0
DWIDTH 8 0
BBX 6 5 1 0
BITMAP
78
CC
FC
C0
78
ENDCHAR
STARTCHAR EF06
ENCODING 61190
SWIDTH 960 0
DWIDTH 8 0
BBX 5 6 2 0
BITMAP
38
60
F8
60
60
60
ENDCHAR
STARTCHAR EF07
ENCODING 61191
SWIDTH 960 0
DWIDTH 8 0
BBX 6 6 1 -1
BITMAP
7C
CC
CC
7C
0C
F8
ENDCHAR
STARTCHAR EF08
ENCODING 61192
SWIDTH 960 0
DWIDTH 8 0
BBX 6 6 1 0
BITMAP
C0
C0
F8
CC
CC
CC
ENDCHAR
STARTCHAR EF09
ENCODING 61193
SWIDTH 960 0
DWIDTH 8 0
BBX 4 6 2 0
BITMAP
60
00
E0
60
60
F0
ENDCHAR
STARTCHAR EF0A
ENCODING 61194
SWIDTH 960 0
DWIDTH 8 0
BBX 5 7 2 -1
BITMAP
18
00
18
18
18
18
F0
ENDCHAR
STARTCHAR EF0B
ENCODING 61195
SWIDTH 960 0
DWIDTH 8 0
BBX 6 6 1 0
BITMAP
C0
C0
D8
F0
D8
CC
ENDCHAR
STARTCHAR EF0C
ENCODING 61196
SWIDTH 960 0
DWIDTH 8 0
BBX 4 6 2 0
BITMAP
E0
60
60
60
60
F0
ENDCHAR
STARTCHAR EF0D
ENCODING 61197
SWIDTH 960 0
DWIDTH 8 0
BBX 7 5 1 0
BITMAP
CC
FE
FE
D6
C6
ENDCHAR
STARTCHAR EF0E
ENCODING 61198
SWIDTH 960 0
DWIDTH 8 0
BBX 6 5 1 0
BITMAP
F8
CC
CC
CC
CC
ENDCHAR
STARTCHAR EF0F
ENCODING 61199
SWIDTH 960 0
DWIDTH 8 0
BBX 6 5 1 0
BITMAP
78
CC
CC
CC
78
ENDCHAR
STARTCHAR EF10
ENCODING 61200
SWIDTH 960 0
DWIDTH 8 0
BBX 6 6 1 -1
BITMAP
F8
CC
CC
F8
C0
C0
ENDCHAR
STARTCHAR EF11
ENCODING 61201
SWIDTH 960 0
DWIDTH 8 0
BBX 6 6 1 -1
BITMAP
7C
CC
CC
7C
0C
0C
ENDCHAR
STARTCHAR EF12
ENCODING 61202
SWIDTH 960 0
DWIDTH 8 0
BBX 6 5 1 0
BITMAP
F8
CC
C0
C0
C0
ENDCHAR
STARTCHAR EF13
ENCODING 61203
SWIDTH 960 0
DWIDTH 8 0
BBX 6 5 1 0
BITMAP
7C
C0
78
0C
F8
ENDCHAR
STARTCHAR EF14
ENCODING 61204
SWIDTH 960 0
DWIDTH 8 0
BBX 6 6 1 0
BITMAP
30
FC
30
30
30
1C
ENDCHAR
STARTCHAR EF15
ENCODING 61205
SWIDTH 960 0
DWIDTH 8 0
BBX 6 5 1 0
BITMAP
CC
CC
CC
CC
7C
ENDCHAR
STARTCHAR EF16
ENCODING 61206
SWIDTH 960 0
DWIDTH 8 0
BBX 6 5 1 0
BITMAP
CC
CC
CC
78
30
ENDCHAR
STARTCHAR EF17
ENCODING 61207
SWIDTH 960 0
DWIDTH 8 0
BBX 7 5 1 0
BITMAP
C6
D6
FE
7C
6C
ENDCHAR
STARTCHAR EF18
ENCODING 61208
SWIDTH 960 0
DWIDTH 8 0
BBX 6 5 1 0
BITMAP
CC
78
30
78
CC
ENDCHAR
STARTCHAR EF19
ENCODING 61209
SWIDTH 960 0
DWIDTH 8 0
BBX 6 6 1 -1
BITMAP
CC
CC
CC
7C
18
F0
ENDCHAR
STARTCHAR EF1A
ENCODING 61210
SWIDTH 960 0
DWIDTH 8 0
BBX 6 5 1 0
BITMAP
FC
18
30
60
FC
ENDCHAR
STARTCHAR EF1B
ENCODING 61211
SWIDTH 960 0
DWIDTH 8 0
BBX 4 7 2 0
BITMAP
F0
C0
C0
C0
C0
C0
F0
ENDCHAR
STARTCHAR EF1C
ENCODING 61212
SWIDTH 960 0
DWIDTH 8 0
BBX 7 7 0 0
BITMAP
0C
12
30
7C
30
62
FC
ENDCHAR
STARTCHAR EF1D
ENCODING 61213
SWIDTH 960 0
DWIDTH 8 0
BBX 4 7 2 0
BITMAP
F0
30
30
30
30
30
F0
ENDCHAR
STARTCHAR EF1E
ENCODING 61214
SWIDTH 960 0
DWIDTH 8 0
BBX 6 7 1 -1
BITMAP
30
78
FC
30
30
30
30
ENDCHAR
STARTCHAR EF1F
ENCODING 61215
SWIDTH 960 0
DWIDTH 8 0
BBX 7 6 1 0
BITMAP
20
60
FE
FE
60
20
ENDCHAR
STARTCHAR EF20
ENCODING 61216
SWIDTH 960 0
DWIDTH 8 0
BBX 0 0 0 0
BITMAP
ENDCHAR
STARTCHAR EF21
ENCODING 61217
SWIDTH 960 0
DWIDTH 8 0
BBX 2 7 3 0
BITMAP
C0
C0
C0
C0
00
00
C0
ENDCHAR
STARTCHAR EF22
ENCODING 61218
SWIDTH 960 0
DWIDTH 8 0
BBX 6 3 1 4
BITMAP
CC
CC
CC
ENDCHAR
STARTCHAR EF23
ENCODING 61219
SWIDTH 960 0
DWIDTH 8 0
BBX 8 7 0 0
BITMAP
66
66
FF
66
FF
66
66
ENDCHAR
STARTCHAR EF24
ENCODING 61220
SWIDTH 960 0
DWIDTH 8 0
BBX 6 7 1 0
BITMAP
30
7C
C0
78
0C
F8
30
ENDCHAR
STARTCHAR EF25
ENCODING 61221
SWIDTH 960 0
DWIDTH 8 0
BBX 6 7 1 0
BITMAP
C4
CC
18
30
60
CC
8C
ENDCHAR
STARTCHAR EF26
ENCODING 61222
SWIDTH 960 0
DWIDTH 8 0
BBX 7 7 1 0
BITMAP
78
CC
78
70
CE
CC
7E
ENDCHAR
STARTCHAR EF27
ENCODING 61223
SWIDTH 960 0
DWIDTH 8 0
BBX 4 3 3 4
BITMAP
30
60
C0
ENDCHAR
STARTCHAR EF28
ENCODING 61224
SWIDTH 960 0
DWIDTH 8 0
BBX 4 7 2 0
BITMAP
30
60
C0
C0
C0
60
30
ENDCHAR
STARTCHAR EF29
ENCODING 61225
SWIDTH 960 0
DWIDTH 8 0
BBX 4 7 2 0
BITMAP
C0
60
30
30
30
60
C0
ENDCHAR
STARTCHAR EF2A
ENCODING 61226
SWIDTH 960 0
DWIDTH 8 0
BBX 8 5 0 1
BITMAP
66
3C
FF
3C
66
ENDCHAR
STARTCHAR EF2B
ENCODING 61227
SWIDTH 960 0
DWIDTH 8 0
BBX 6 5 1 1
BITMAP
30
30
FC
30
30
ENDCHAR
STARTCHAR EF2C
ENCODING 61228
SWIDTH 960 0
DWIDTH 8 0
BBX 3 3 2 -1
BITMAP
60
60
C0
ENDCHAR
STARTCHAR EF2D
ENCODING 61229
SWIDTH 960 0
DWIDTH 8 0
BBX 6 1 1 3
BITMAP
FC
ENDCHAR
STARTCHAR EF2E
ENCODING 61230
SWIDTH 960 0
DWIDTH 8 0
BBX 2 2 3 0
BITMAP
C0
C0
ENDCHAR
STARTCHAR EF2F
ENCODING 61231
SWIDTH 960 0
DWIDTH 8 0
BBX 7 6 1 0
BITMAP
06
0C
18
30
60
C0
ENDCHAR
STARTCHAR EF30
ENCODING 61232
SWIDTH 960 0
DWIDTH 8 0
BBX 6 7 1 0
BITMAP
78
CC
DC
EC
CC
CC
78
ENDCHAR
STARTCHAR EF31
ENCODING 61233
SWIDTH 960 0
DWIDTH 8 0
BBX 6 7 1 0
BITMAP
30
30
70
30
30
30
FC
ENDCHAR
STARTCHAR EF32
ENCODING 61234
SWIDTH 960 0
DWIDTH 8 0
BBX 6 7 1 0
BITMAP
78
CC
0C
18
60
C0
FC
ENDCHAR
STARTCHAR EF33
ENCODING 61235
SWIDTH 960 0
DWIDTH 8 0
BBX 6 7 1 0
BITMAP
78
CC
0C
38
0C
CC
78
ENDCHAR
STARTCHAR EF34
ENCODING 61236
SWIDTH 960 0
DWIDTH 8 0
BBX 7 7 1 0
BITMAP
0C
1C
3C
CC
FE
0C
0C
ENDCHAR
STARTCHAR EF35
ENCODING 61237
SWIDTH 960 0
DWIDTH 8 0
BBX 6 7 1 0
BITMAP
FC
C0
F8
0C
0C
CC
78
ENDCHAR
STARTCHAR EF36
ENCODING 61238
SWIDTH 960 0
DWIDTH 8 0
BBX 6 7 1 0
BITMAP
78
CC
C0
F8
CC
CC
78
ENDCHAR
STARTCHAR EF37
ENCODING 61239
SWIDTH 960 0
DWIDTH 8 0
BBX 6 7 1 0
BITMAP
FC
CC
18
30
30
30
30
ENDCHAR
STARTCHAR EF38
ENCODING 61240
SWIDTH 960 0
DWIDTH 8 0
BBX 6 7 1 0
BITMAP
78
CC
CC
78
CC
CC
78
ENDCHAR
STARTCHAR EF39
ENCODING 61241
SWIDTH 960 0
DWIDTH 8 0
BBX 6 7 1 0
BITMAP
78
CC
CC
7C
0C
CC
78
ENDCHAR
STARTCHAR EF3A
ENCODING 61242
SWIDTH 960 0
DWIDTH 8 0
BBX 2 4 3 1
BITMAP
C0
00
00
C0
ENDCHAR
STARTCHAR EF3B
ENCODING 61243
SWIDTH 960 0
DWIDTH 8 0
BBX 3 6 2 -1
BITMAP
60
00
00
60
60
C0
ENDCHAR
STARTCHAR EF3C
ENCODING 61244
SWIDTH 960 0
DWIDTH 8 0
BBX 6 7 1 0
BITMAP
1C
30
60
C0
60
30
1C
ENDCHAR
STARTCHAR EF3D
ENCODING 61245
SWIDTH 960 0
DWIDTH 8 0
BBX 6 3 1 2
BITMAP
FC
00
FC
ENDCHAR
STARTCHAR EF3E
ENCODING 61246
SWIDTH 960 0
DWIDTH 8 0
BBX 6 7 1 0
BITMAP
E0
30
18
0C
18
30
E0
ENDCHAR
STARTCHAR EF3F
ENCODING 61247
SWIDTH 960 0
DWIDTH 8 0
BBX 6 7 1 0
BITMAP
78
CC
0C
18
30
00
30
ENDCHAR
STARTCHAR EF40
ENCODING 61248
SWIDTH 960 0
DWIDTH 8 0
BBX 8 2 0 2
BITMAP
FF
FF
ENDCHAR
STARTCHAR EF41
ENCODING 61249
SWIDTH 960 0
DWIDTH 8 0
BBX 6 7 1 0
BITMAP
30
78
CC
FC
CC
CC
CC
ENDCHAR
STARTCHAR EF42
ENCODING 61250
SWIDTH 960 0
DWIDTH 8 0
BBX 6 7 1 0
BITMAP
F8
CC
CC
F8
CC
CC
F8
ENDCHAR
STARTCHAR EF43
ENCODING 61251
SWIDTH 960 0
DWIDTH 8 0
BBX 6 7 1 0
BITMAP
78
CC
C0
C0
C0
CC
78
ENDCHAR
STARTCHAR EF44
ENCODING 61252
SWIDTH 960 0
DWIDTH 8 0
BBX 6 7 1 0
BITMAP
F0
D8
CC
CC
CC
D8
F0
ENDCHAR
STARTCHAR EF45
ENCODING 61253
SWIDTH 960 0
DWIDTH 8 0
BBX 6 7 1 0
BITMAP
FC
C0
C0
F0
C0
C0
FC
ENDCHAR
STARTCHAR EF46
ENCODING 61254
SWIDTH 960 0
DWIDTH 8 0
BBX 6 7 1 0
BITMAP
FC
C0
C0
F0
C0
C0
C0
ENDCHAR
STARTCHAR EF47
ENCODING 61255
SWIDTH 960 0
DWIDTH 8 0
BBX 6 7 1 0
BITMAP
78
CC
C0
DC
CC
CC
78
ENDCHAR
STARTCHAR EF48
ENCODING 61256
SWIDTH 960 0
DWIDTH 8 0
BBX 6 7 1 0
BITMAP
CC
CC
CC
FC
CC
CC
CC
ENDCHAR
STARTCHAR EF49
ENCODING 61257
SWIDTH 960 0
DWIDTH 8 0
BBX 4 7 2 0
BITMAP
F0
60
60
60
60
60
F0
ENDCHAR
STARTCHAR EF4A
ENCODING 61258
SWIDTH 960 0
DWIDTH 8 0
BBX 6 7 1 0
BITMAP
3C
18
18
18
18
D8
70
ENDCHAR
STARTCHAR EF4B
ENCODING 61259
SWIDTH 960 0
DWIDTH 8 0
BBX 6 7 1 0
BITMAP
CC
D8
F0
E0
F0
D8
CC
ENDCHAR
STARTCHAR EF4C
ENCODING 61260
SWIDTH 960 0
DWIDTH 8 0
BBX 6 7 1 0
BITMAP
C0
C0
C0
C0
C0
C0
FC
ENDCHAR
STARTCHAR EF4D
ENCODING 61261
SWIDTH 960 0
DWIDTH 8 0
BBX 7 7 1 0
BITMAP
C6
EE
FE
D6
C6
C6
C6
ENDCHAR
STARTCHAR EF4E
ENCODING 61262
SWIDTH 960 0
DWIDTH 8 0
BBX 6 7 1 0
BITMAP
CC
EC
FC
FC
DC
CC
CC
ENDCHAR
STARTCHAR EF4F
ENCODING 61263
SWIDTH 960 0
DWIDTH 8 0
BBX 6 7 1 0
BITMAP
78
CC
CC
CC
CC
CC
78
ENDCHAR
STARTCHAR EF50
ENCODING 61264
SWIDTH 960 0
DWIDTH 8 0
BBX 6 7 1 0
BITMAP
F8
CC
CC
F8
C0
C0
C0
ENDCHAR
STARTCHAR EF51
ENCODING 61265
SWIDTH 960 0
DWIDTH 8 0
BBX 6 7 1 0
BITMAP
78
CC
CC
CC
CC
78
1C
ENDCHAR
STARTCHAR EF52
ENCODING 61266
SWIDTH 960 0
DWIDTH 8 0
BBX 6 7 1 0
BITMAP
F8
CC
CC
F8
F0
D8
CC
ENDCHAR
STARTCHAR EF53
ENCODING 61267
SWIDTH 960 0
DWIDTH 8 0
BBX 6 7 1 0
BITMAP
78
CC
C0
78
0C
CC
78
ENDCHAR
STARTCHAR EF54
ENCODING 61268
SWIDTH 960 0
DWIDTH 8 0
BBX 6 7 1 0
BITMAP
FC
30
30
30
30
30
30
ENDCHAR
STARTCHAR EF55
ENCODING 61269
SWIDTH 960 0
DWIDTH 8 0
BBX 6 7 1 0
BITMAP
CC
CC
CC
CC
CC
CC
78
ENDCHAR
STARTCHAR EF56
ENCODING 61270
SWIDTH 960 0
DWIDTH 8 0
BBX 6 7 1 0
BITMAP
CC
CC
CC
CC
CC
78
30
ENDCHAR
STARTCHAR EF57
ENCODING 61271
SWIDTH 960 0
DWIDTH 8 0
BBX 7 7 1 0
BITMAP
C6
C6
C6
D6
FE
EE
C6
ENDCHAR
STARTCHAR EF58
ENCODING 61272
SWIDTH 960 0
DWIDTH 8 0
BBX 6 7 1 0
BITMAP
CC
CC
78
30
78
CC
CC
ENDCHAR
STARTCHAR EF59
ENCODING 61273
SWIDTH 960 0
DWIDTH 8 0
BBX 6 7 1 0
BITMAP
CC
CC
CC
78
30
30
30
ENDCHAR
STARTCHAR EF5A
ENCODING 61274
SWIDTH 960 0
DWIDTH 8 0
BBX 6 7 1 0
BITMAP
FC
0C
18
30
60
C0
FC
ENDCHAR
STARTCHAR EF5B
ENCODING 61275
SWIDTH 960 0
DWIDTH 8 0
BBX 8 8 0 -1
BITMAP
18
18
18
FF
FF
18
18
18
ENDCHAR
STARTCHAR EF5C
ENCODING 61276
SWIDTH 960 0
DWIDTH 8 0
BBX 4 8 0 -1
BITMAP
C0
C0
30
30
C0
C0
30
30
ENDCHAR
STARTCHAR EF5D
ENCODING 61277
SWIDTH 960 0
DWIDTH 8 0
BBX 2 8 3 -1
BITMAP
C0
C0
C0
C0
C0
C0
C0
C0
ENDCHAR
STARTCHAR EF5E
ENCODING 61278
SWIDTH 960 0
DWIDTH 8 0
BBX 8 8 0 -1
BITMAP
33
33
CC
CC
33
33
CC
CC
ENDCHAR
STARTCHAR EF5F
ENCODING 61279
SWIDTH 960 0
DWIDTH 8 0
BBX 8 8 0 -1
BITMAP
33
99
CC
66
33
99
CC
66
ENDCHAR
STARTCHAR EF60
ENCODING 61280
SWIDTH 960 0
DWIDTH 8 0
BBX 0 0 0 0
BITMAP
ENDCHAR
STARTCHAR EF61
ENCODING 61281
SWIDTH 960 0
DWIDTH 8 0
BBX 4 8 0 -1
BITMAP
F0
F0
F0
F0
F0
F0
F0
F0
ENDCHAR
STARTCHAR EF62
ENCODING 61282
SWIDTH 960 0
DWIDTH 8 0
BBX 8 4 0 -1
BITMAP
FF
FF
FF
FF
ENDCHAR
STARTCHAR EF63
ENCODING 61283
SWIDTH 960 0
DWIDTH 8 0
BBX 8 1 0 6
BITMAP
FF
ENDCHAR
STARTCHAR EF64
ENCODING 61284
SWIDTH 960 0
DWIDTH 8 0
BBX 8 1 0 -1
BITMAP
FF
ENDCHAR
STARTCHAR EF65
ENCODING 61285
SWIDTH 960 0
DWIDTH 8 0
BBX 2 8 0 -1
BITMAP
C0
C0
C0
C0
C0
C0
C0
C0
ENDCHAR
STARTCHAR EF66
ENCODING 61286
SWIDTH 960 0
DWIDTH 8 0
BBX 8 8 0 -1
BITMAP
CC
CC
33
33
CC
CC
33
33
ENDCHAR
STARTCHAR EF67
ENCODING 61287
SWIDTH 960 0
DWIDTH 8 0
BBX 2 8 6 -1
BITMAP
C0
C0
C0
C0
C0
C0
C0
C0
ENDCHAR
STARTCHAR EF68
ENCODING 61288
SWIDTH 960 0
DWIDTH 8 0
BBX 8 4 0 -1
BITMAP
CC
CC
33
33
ENDCHAR
STARTCHAR EF69
ENCODING 61289
SWIDTH 960 0
DWIDTH 8 0
BBX 8 8 0 -1
BITMAP
CC
99
33
66
CC
99
33
66
ENDCHAR
STARTCHAR EF6A
ENCODING 61290
SWIDTH 960 0
DWIDTH 8 0
BBX 2 8 6 -1
BITMAP
C0
C0
C0
C0
C0
C0
C0
C0
ENDCHAR
STARTCHAR EF6B
ENCODING 61291
SWIDTH 960 0
DWIDTH 8 0
BBX 5 8 3 -1
BITMAP
C0
C0
C0
F8
F8
C0
C0
C0
ENDCHAR
STARTCHAR EF6C
ENCODING 61292
SWIDTH 960 0
DWIDTH 8 0
BBX 4 4 4 -1
BITMAP
F0
F0
F0
F0
ENDCHAR
STARTCHAR EF6D
ENCODING 61293
SWIDTH 960 0
DWIDTH 8 0
BBX 5 5 3 2
BITMAP
C0
C0
C0
F8
F8
ENDCHAR
STARTCHAR EF6E
ENCODING 61294
SWIDTH 960 0
DWIDTH 8 0
BBX 5 5 0 -1
BITMAP
F8
F8
18
18
18
ENDCHAR
STARTCHAR EF6F
ENCODING 61295
SWIDTH 960 0
DWIDTH 8 0
BBX 8 2 0 -1
BITMAP
FF
FF
ENDCHAR
STARTCHAR EF70
ENCODING 61296
SWIDTH 960 0
DWIDTH 8 0
BBX 5 5 3 -1
BITMAP
F8
F8
C0
C0
C0
ENDCHAR
STARTCHAR EF71
ENCODING 61297
SWIDTH 960 0
DWIDTH 8 0
BBX 8 5 0 2
BITMAP
18
18
18
FF
FF
ENDCHAR
STARTCHAR EF72
ENCODING 61298
SWIDTH 960 0
DWIDTH 8 0
BBX 8 5 0 -1
BITMAP
FF
FF
18
18
18
ENDCHAR
STARTCHAR EF73
ENCODING 61299
SWIDTH 960 0
DWIDTH 8 0
BBX 5 8 0 -1
BITMAP
18
18
18
F8
F8
18
18
18
ENDCHAR
STARTCHAR EF74
ENCODING 61300
SWIDTH 960 0
DWIDTH 8 0
BBX 2 8 0 -1
BITMAP
C0
C0
C0
C0
C0
C0
C0
C0
ENDCHAR
STARTCHAR EF75
ENCODING 61301
SWIDTH 960 0
DWIDTH 8 0
BBX 3 8 0 -1
BITMAP
E0
E0
E0
E0
E0
E0
E0
E0
ENDCHAR
STARTCHAR EF76
ENCODING 61302
SWIDTH 960 0
DWIDTH 8 0
BBX 3 8 5 -1
BITMAP
E0
E0
E0
E0
E0
E0
E0
E0
ENDCHAR
STARTCHAR EF77
ENCODING 61303
SWIDTH 960 0
DWIDTH 8 0
BBX 8 2 0 5
BITMAP
FF
FF
ENDCHAR
STARTCHAR EF78
ENCODING 61304
SWIDTH 960 0
DWIDTH 8 0
BBX 8 3 0 4
BITMAP
FF
FF
FF
ENDCHAR
STARTCHAR EF79
ENCODING 61305
SWIDTH 960 0
DWIDTH 8 0
BBX 8 3 0 -1
BITMAP
FF
FF
FF
ENDCHAR
STARTCHAR EF7A
ENCODING 61306
SWIDTH 960 0
DWIDTH 8 0
BBX 7 7 1 0
BITMAP
02
06
0C
D8
F0
E0
C0
ENDCHAR
STARTCHAR EF7B
ENCODING 61307
SWIDTH 960 0
DWIDTH 8 0
BBX 4 4 0 -1
BITMAP
F0
F0
F0
F0
ENDCHAR
STARTCHAR EF7C
ENCODING 61308
SWIDTH 960 0
DWIDTH 8 0
BBX 4 4 4 3
BITMAP
F0
F0
F0
F0
ENDCHAR
STARTCHAR EF7D
ENCODING 61309
SWIDTH 960 0
DWIDTH 8 0
BBX 5 5 0 2
BITMAP
18
18
18
F8
F8
ENDCHAR
STARTCHAR EF7E
ENCODING 61310
SWIDTH 960 0
DWIDTH 8 0
BBX 4 4 0 3
BITMAP
F0
F0
F0
F0
ENDCHAR
STARTCHAR EF7F
ENCODING 61311
SWIDTH 960 0
DWIDTH 8 0
BBX 8 8 0 -1
BITMAP
F0
F0
F0
F0
0F
0F
0F
0F
ENDCHAR
STARTCHAR EF80
ENCODING 61312
SWIDTH 960 0
DWIDTH 8 0
BBX 8 8 0 -1
BITMAP
C3
99
91
91
9F
99
C3
FF
ENDCHAR
STARTCHAR EF81
ENCODING 61313
SWIDTH 960 0
DWIDTH 8 0
BBX 8 8 0 -1
BITMAP
FF
FF
C3
F9
C1
99
C1
FF
ENDCHAR
STARTCHAR EF82
ENCODING 61314
SWIDTH 960 0
DWIDTH 8 0
BBX 8 8 0 -1
BITMAP
FF
9F
9F
83
99
99
83
FF
ENDCHAR
STARTCHAR EF83
ENCODING 61315
SWIDTH 960 0
DWIDTH 8 0
BBX 8 8 0 -1
BITMAP
FF
FF
C3
9F
9F
9F
C3
FF
ENDCHAR
STARTCHAR EF84
ENCODING 61316
SWIDTH 960 0
DWIDTH 8 0
BBX 8 8 0 -1
BITMAP
FF
F9
F9
C1
99
99
C1
FF
ENDCHAR
STARTCHAR EF85
ENCODING 61317
SWIDTH 960 0
DWIDTH 8 0
BBX 8 8 0 -1
BITMAP
FF
FF
C3
99
81
9F
C3
FF
ENDCHAR
STARTCHAR EF86
ENCODING 61318
SWIDTH 960 0
DWIDTH 8 0
BBX 8 8 0 -1
BITMAP
FF
F1
E7
C1
E7
E7
E7
FF
ENDCHAR
STARTCHAR EF87
ENCODING 61319
SWIDTH 960 0
DWIDTH 8 0
BBX 8 8 0 -1
BITMAP
FF
FF
C1
99
99
C1
F9
83
ENDCHAR
STARTCHAR EF88
ENCODING 61320
SWIDTH 960 0
DWIDTH 8 0
BBX 8 8 0 -1
BITMAP
FF
9F
9F
83
99
99
99
FF
ENDCHAR
STARTCHAR EF89
ENCODING 61321
SWIDTH 960 0
DWIDTH 8 0
BBX 8 8 0 -1
BITMAP
FF
E7
FF
C7
E7
E7
C3
FF
ENDCHAR
STARTCHAR EF8A
ENCODING 61322
SWIDTH 960 0
DWIDTH 8 0
BBX 8 8 0 -1
BITMAP
FF
F9
FF
F9
F9
F9
F9
C3
ENDCHAR
STARTCHAR EF8B
ENCODING 61323
SWIDTH 960 0
DWIDTH 8 0
BBX 8 8 0 -1
BITMAP
FF
9F
9F
93
87
93
99
FF
ENDCHAR
STARTCHAR EF8C
ENCODING 61324
SWIDTH 960 0
DWIDTH 8 0
BBX 8 8 0 -1
BITMAP
FF
C7
E7
E7
E7
E7
C3
FF
ENDCHAR
STARTCHAR EF8D
ENCODING 61325
SWIDTH 960 0
DWIDTH 8 0
BBX 8 8 0 -1
BITMAP
FF
FF
99
80
80
94
9C
FF
ENDCHAR
STARTCHAR EF8E
ENCODING 61326
SWIDTH 960 0
DWIDTH 8 0
BBX 8 8 0 -1
BITMAP
FF
FF
83
99
99
99
99
FF
ENDCHAR
STARTCHAR EF8F
ENCODING 61327
SWIDTH 960 0
DWIDTH 8 0
BBX 8 8 0 -1
BITMAP
FF
FF
C3
99
99
99
C3
FF
ENDCHAR
STARTCHAR EF90
ENCODING 61328
SWIDTH 960 0
DWIDTH 8 0
BBX 8 8 0 -1
BITMAP
FF
FF
83
99
99
83
9F
9F
ENDCHAR
STARTCHAR EF91
ENCODING 61329
SWIDTH 960 0
DWIDTH 8 0
BBX 8 8 0 -1
BITMAP
FF
FF
C1
99
99
C1
F9
F9
ENDCHAR
STARTCHAR EF92
ENCODING 61330
SWIDTH 960 0
DWIDTH 8 0
BBX 8 8 0 -1
BITMAP
FF
FF
83
99
9F
9F
9F
FF
ENDCHAR
STARTCHAR EF93
ENCODING 61331
SWIDTH 960 0
DWIDTH 8 0
BBX 8 8 0 -1
BITMAP
FF
FF
C1
9F
C3
F9
83
FF
ENDCHAR
STARTCHAR EF94
ENCODING 61332
SWIDTH 960 0
DWIDTH 8 0
BBX 8 8 0 -1
BITMAP
FF
E7
81
E7
E7
E7
F1
FF
ENDCHAR
STARTCHAR EF95
ENCODING 61333
SWIDTH 960 0
DWIDTH 8 0
BBX 8 8 0 -1
BITMAP
FF
FF
99
99
99
99
C1
FF
ENDCHAR
STARTCHAR EF96
ENCODING 61334
SWIDTH 960 0
DWIDTH 8 0
BBX 8 8 0 -1
BITMAP
FF
FF
99
99
99
C3
E7
FF
ENDCHAR
STARTCHAR EF97
ENCODING 61335
SWIDTH 960 0
DWIDTH 8 0
BBX 8 8 0 -1
BITMAP
FF
FF
9C
94
80
C1
C9
FF
ENDCHAR
STARTCHAR EF98
ENCODING 61336
SWIDTH 960 0
DWIDTH 8 0
BBX 8 8 0 -1
BITMAP
FF
FF
99
C3
E7
C3
99
FF
ENDCHAR
STARTCHAR EF99
ENCODING 61337
SWIDTH 960 0
DWIDTH 8 0
BBX 8 8 0 -1
BITMAP
FF
FF
99
99
99
C1
F3
87
ENDCHAR
STARTCHAR EF9A
ENCODING 61338
SWIDTH 960 0
DWIDTH 8 0
BBX 8 8 0 -1
BITMAP
FF
FF
81
F3
E7
CF
81
FF
ENDCHAR
STARTCHAR EF9B
ENCODING 61339
SWIDTH 960 0
DWIDTH 8 0
BBX 8 8 0 -1
BITMAP
C3
CF
CF
CF
CF
CF
C3
FF
ENDCHAR
STARTCHAR EF9C
ENCODING 61340
SWIDTH 960 0
DWIDTH 8 0
BBX 8 8 0 -1
BITMAP
F3
ED
CF
83
CF
9D
03
FF
ENDCHAR
STARTCHAR EF9D
ENCODING 61341
SWIDTH 960 0
DWIDTH 8 0
BBX 8 8 0 -1
BITMAP
C3
F3
F3
F3
F3
F3
C3
FF
ENDCHAR
STARTCHAR EF9E
ENCODING 61342
SWIDTH 960 0
DWIDTH 8 0
BBX 8 8 0 -1
BITMAP
FF
E7
C3
81
E7
E7
E7
E7
ENDCHAR
STARTCHAR EF9F
ENCODING 61343
SWIDTH 960 0
DWIDTH 8 0
BBX 8 8 0 -1
BITMAP
FF
EF
CF
80
80
CF
EF
FF
ENDCHAR
STARTCHAR EFA0
ENCODING 61344
SWIDTH 960 0
DWIDTH 8 0
BBX 8 8 0 -1
BITMAP
FF
FF
FF
FF
FF
FF
FF
FF
ENDCHAR
STARTCHAR EFA1
ENCODING 61345
SWIDTH 960 0
DWIDTH 8 0
BBX 8 8 0 -1
BITMAP
E7
E7
E7
E7
FF
FF
E7
FF
ENDCHAR
STARTCHAR EFA2
ENCODING 61346
SWIDTH 960 0
DWIDTH 8 0
BBX 8 8 0 -1
BITMAP
99
99
99
FF
FF
FF
FF
FF
ENDCHAR
STARTCHAR EFA3
ENCODING 61347
SWIDTH 960 0
DWIDTH 8 0
BBX 8 8 0 -1
BITMAP
99
99
00
99
00
99
99
FF
ENDCHAR
STARTCHAR EFA4
ENCODING 61348
SWIDTH 960 0
DWIDTH 8 0
BBX 8 8 0 -1
BITMAP
E7
C1
9F
C3
F9
83
E7
FF
ENDCHAR
STARTCHAR EFA5
ENCODING 61349
SWIDTH 960 0
DWIDTH 8 0
BBX 8 8 0 -1
BITMAP
9D
99
F3
E7
CF
99
B9
FF
ENDCHAR
STARTCHAR EFA6
ENCODING 61350
SWIDTH 960 0
DWIDTH 8 0
BBX 8 8 0 -1
BITMAP
C3
99
C3
C7
98
99
C0
FF
ENDCHAR
STARTCHAR EFA7
ENCODING 61351
SWIDTH 960 0
DWIDTH 8 0
BBX 8 8 0 -1
BITMAP
F9
F3
E7
FF
FF
FF
FF
FF
ENDCHAR
STARTCHAR EFA8
ENCODING 61352
SWIDTH 960 0
DWIDTH 8 0
BBX 8 8 0 -1
BITMAP
F3
E7
CF
CF
CF
E7
F3
FF
ENDCHAR
STARTCHAR EFA9
ENCODING 61353
SWIDTH 960 0
DWIDTH 8 0
BBX 8 8 0 -1
BITMAP
CF
E7
F3
F3
F3
E7
CF
FF
ENDCHAR
STARTCHAR EFAA
ENCODING 61354
SWIDTH 960 0
DWIDTH 8 0
BBX 8 8 0 -1
BITMAP
FF
99
C3
00
C3
99
FF
FF
ENDCHAR
STARTCHAR EFAB
ENCODING 61355
SWIDTH 960 0
DWIDTH 8 0
BBX 8 8 0 -1
BITMAP
FF
E7
E7
81
E7
E7
FF
FF
ENDCHAR
STARTCHAR EFAC
ENCODING 61356
SWIDTH 960 0
DWIDTH 8 0
BBX 8 8 0 -1
BITMAP
FF
FF
FF
FF
FF
E7
E7
CF
ENDCHAR
STARTCHAR EFAD
ENCODING 61357
SWIDTH 960 0
DWIDTH 8 0
BBX 8 8 0 -1
BITMAP
FF
FF
FF
81
FF
FF
FF
FF
ENDCHAR
STARTCHAR EFAE
ENCODING 61358
SWIDTH 960 0
DWIDTH 8 0
BBX 8 8 0 -1
BITMAP
FF
FF
FF
FF
FF
E7
E7
FF
ENDCHAR
STARTCHAR EFAF
ENCODING 61359
SWIDTH 960 0
DWIDTH 8 0
BBX 8 8 0 -1
BITMAP
FF
FC
F9
F3
E7
CF
9F
FF
ENDCHAR
STARTCHAR EFB0
ENCODING 61360
SWIDTH 960 0
DWIDTH 8 0
BBX 8 8 0 -1
BITMAP
C3
99
91
89
99
99
C3
FF
ENDCHAR
STARTCHAR EFB1
ENCODING 61361
SWIDTH 960 0
DWIDTH 8 0
BBX 8 8 0 -1
BITMAP
E7
E7
C7
E7
E7
E7
81
FF
ENDCHAR
STARTCHAR EFB2
ENCODING 61362
SWIDTH 960 0
DWIDTH 8 0
BBX 8 8 0 -1
BITMAP
C3
99
F9
F3
CF
9F
81
FF
ENDCHAR
STARTCHAR EFB3
ENCODING 61363
SWIDTH 960 0
DWIDTH 8 0
BBX 8 8 0 -1
BITMAP
C3
99
F9
E3
F9
99
C3
FF
ENDCHAR
STARTCHAR EFB4
ENCODING 61364
SWIDTH 960 0
DWIDTH 8 0
BBX 8 8 0 -1
BITMAP
F9
F1
E1
99
80
F9
F9
FF
ENDCHAR
STARTCHAR EFB5
ENCODING 61365
SWIDTH 960 0
DWIDTH 8 0
BBX 8 8 0 -1
BITMAP
81
9F
83
F9
F9
99
C3
FF
ENDCHAR
STARTCHAR EFB6
ENCODING 61366
SWIDTH 960 0
DWIDTH 8 0
BBX 8 8 0 -1
BITMAP
C3
99
9F
83
99
99
C3
FF
ENDCHAR
STARTCHAR EFB7
ENCODING 61367
SWIDTH 960 0
DWIDTH 8 0
BBX 8 8 0 -1
BITMAP
81
99
F3
E7
E7
E7
E7
FF
ENDCHAR
STARTCHAR EFB8
ENCODING 61368
SWIDTH 960 0
DWIDTH 8 0
BBX 8 8 0 -1
BITMAP
C3
99
99
C3
99
99
C3
FF
ENDCHAR
STARTCHAR EFB9
ENCODING 61369
SWIDTH 960 0
DWIDTH 8 0
BBX 8 8 0 -1
BITMAP
C3
99
99
C1
F9
99
C3
FF
ENDCHAR
STARTCHAR EFBA
ENCODING 61370
SWIDTH 960 0
DWIDTH 8 0
BBX 8 8 0 -1
BITMAP
FF
FF
E7
FF
FF
E7
FF
FF
ENDCHAR
STARTCHAR EFBB
ENCODING 61371
SWIDTH 960 0
DWIDTH 8 0
BBX 8 8 0 -1
BITMAP
FF
FF
E7
FF
FF
E7
E7
CF
ENDCHAR
STARTCHAR EFBC
ENCODING 61372
SWIDTH 960 0
DWIDTH 8 0
BBX 8 8 0 -1
BITMAP
F1
E7
CF
9F
CF
E7
F1
FF
ENDCHAR
STARTCHAR EFBD
ENCODING 61373
SWIDTH 960 0
DWIDTH 8 0
BBX 8 8 0 -1
BITMAP
FF
FF
81
FF
81
FF
FF
FF
ENDCHAR
STARTCHAR EFBE
ENCODING 61374
SWIDTH 960 0
DWIDTH 8 0
BBX 8 8 0 -1
BITMAP
8F
E7
F3
F9
F3
E7
8F
FF
ENDCHAR
STARTCHAR EFBF
ENCODING 61375
SWIDTH 960 0
DWIDTH 8 0
BBX 8 8 0 -1
BITMAP
C3
99
F9
F3
E7
FF
E7
FF
ENDCHAR
STARTCHAR EFC0
ENCODING 61376
SWIDTH 960 0
DWIDTH 8 0
BBX 8 8 0 -1
BITMAP
FF
FF
FF
00
00
FF
FF
FF
ENDCHAR
STARTCHAR EFC1
ENCODING 61377
SWIDTH 960 0
DWIDTH 8 0
BBX 8 8 0 -1
BITMAP
E7
C3
99
81
99
99
99
FF
ENDCHAR
STARTCHAR EFC2
ENCODING 61378
SWIDTH 960 0
DWIDTH 8 0
BBX 8 8 0 -1
BITMAP
83
99
99
83
99
99
83
FF
ENDCHAR
STARTCHAR EFC3
ENCODING 61379
SWIDTH 960 0
DWIDTH 8 0
BBX 8 8 0 -1
BITMAP
C3
99
9F
9F
9F
99
C3
FF
ENDCHAR
STARTCHAR EFC4
ENCODING 61380
SWIDTH 960 0
DWIDTH 8 0
BBX 8 8 0 -1
BITMAP
87
93
99
99
99
93
87
FF
ENDCHAR
STARTCHAR EFC5
ENCODING 61381
SWIDTH 960 0
DWIDTH 8 0
BBX 8 8 0 -1
BITMAP
81
9F
9F
87
9F
9F
81
FF
ENDCHAR
STARTCHAR EFC6
ENCODING 61382
SWIDTH 960 0
DWIDTH 8 0
BBX 8 8 0 -1
BITMAP
81
9F
9F
87
9F
9F
9F
FF
ENDCHAR
STARTCHAR EFC7
ENCODING 61383
SWIDTH 960 0
DWIDTH 8 0
BBX 8 8 0 -1
BITMAP
C3
99
9F
91
99
99
C3
FF
ENDCHAR
STARTCHAR EFC8
ENCODING 61384
SWIDTH 960 0
DWIDTH 8 0
BBX 8 8 0 -1
BITMAP
99
99
99
81
99
99
99
FF
ENDCHAR
STARTCHAR EFC9
ENCODING 61385
SWIDTH 960 0
DWIDTH 8 0
BBX 8 8 0 -1
BITMAP
C3
E7
E7
E7
E7
E7
C3
FF
ENDCHAR
STARTCHAR EFCA
ENCODING 61386
SWIDTH 960 0
DWIDTH 8 0
BBX 8 8 0 -1
BITMAP
E1
F3
F3
F3
F3
93
C7
FF
ENDCHAR
STARTCHAR EFCB
ENCODING 61387
SWIDTH 960 0
DWIDTH 8 0
BBX 8 8 0 -1
BITMAP
99
93
87
8F
87
93
99
FF
ENDCHAR
STARTCHAR EFCC
ENCODING 61388
SWIDTH 960 0
DWIDTH 8 0
BBX 8 8 0 -1
BITMAP
9F
9F
9F
9F
9F
9F
81
FF
ENDCHAR
STARTCHAR EFCD
ENCODING 61389
SWIDTH 960 0
DWIDTH 8 0
BBX 8 8 0 -1
BITMAP
9C
88
80
94
9C
9C
9C
FF
ENDCHAR
STARTCHAR EFCE
ENCODING 61390
SWIDTH 960 0
DWIDTH 8 0
BBX 8 8 0 -1
BITMAP
99
89
81
81
91
99
99
FF
ENDCHAR
STARTCHAR EFCF
ENCODING 61391
SWIDTH 960 0
DWIDTH 8 0
BBX 8 8 0 -1
BITMAP
C3
99
99
99
99
99
C3
FF
ENDCHAR
STARTCHAR EFD0
ENCODING 61392
SWIDTH 960 0
DWIDTH 8 0
BBX 8 8 0 -1
BITMAP
83
99
99
83
9F
9F
9F
FF
ENDCHAR
STARTCHAR EFD1
ENCODING 61393
SWIDTH 960 0
DWIDTH 8 0
BBX 8 8 0 -1
BITMAP
C3
99
99
99
99
C3
F1
FF
ENDCHAR
STARTCHAR EFD2
ENCODING 61394
SWIDTH 960 0
DWIDTH 8 0
BBX 8 8 0 -1
BITMAP
83
99
99
83
87
93
99
FF
ENDCHAR
STARTCHAR EFD3
ENCODING 61395
SWIDTH 960 0
DWIDTH 8 0
BBX 8 8 0 -1
BITMAP
C3
99
9F
C3
F9
99
C3
FF
ENDCHAR
STARTCHAR EFD4
ENCODING 61396
SWIDTH 960 0
DWIDTH 8 0
BBX 8 8 0 -1
BITMAP
81
E7
E7
E7
E7
E7
E7
FF
ENDCHAR
STARTCHAR EFD5
ENCODING 61397
SWIDTH 960 0
DWIDTH 8 0
BBX 8 8 0 -1
BITMAP
99
99
99
99
99
99
C3
FF
ENDCHAR
STARTCHAR EFD6
ENCODING 61398
SWIDTH 960 0
DWIDTH 8 0
BBX 8 8 0 -1
BITMAP
99
99
99
99
99
C3
E7
FF
ENDCHAR
STARTCHAR EFD7
ENCODING 61399
SWIDTH 960 0
DWIDTH 8 0
BBX 8 8 0 -1
BITMAP
9C
9C
9C
94
80
88
9C
FF
ENDCHAR
STARTCHAR EFD8
ENCODING 61400
SWIDTH 960 0
DWIDTH 8 0
BBX 8 8 0 -1
BITMAP
99
99
C3
E7
C3
99
99
FF
ENDCHAR
STARTCHAR EFD9
ENCODING 61401
SWIDTH 960 0
DWIDTH 8 0
BBX 8 8 0 -1
BITMAP
99
99
99
C3
E7
E7
E7
FF
ENDCHAR
STARTCHAR EFDA
ENCODING 61402
SWIDTH 960 0
DWIDTH 8 0
BBX 8 8 0 -1
BITMAP
81
F9
F3
E7
CF
9F
81
FF
ENDCHAR
STARTCHAR EFDB
ENCODING 61403
SWIDTH 960 0
DWIDTH 8 0
BBX 8 8 0 -1
BITMAP
E7
E7
E7
00
00
E7
E7
E7
ENDCHAR
STARTCHAR EFDC
ENCODING 61404
SWIDTH 960 0
DWIDTH 8 0
BBX 8 8 0 -1
BITMAP
3F
3F
CF
CF
3F
3F
CF
CF
ENDCHAR
STARTCHAR EFDD
ENCODING 61405
SWIDTH 960 0
DWIDTH 8 0
BBX 8 8 0 -1
BITMAP
E7
E7
E7
E7
E7
E7
E7
E7
ENDCHAR
STARTCHAR EFDE
ENCODING 61406
SWIDTH 960 0
DWIDTH 8 0
BBX 8 8 0 -1
BITMAP
CC
CC
33
33
CC
CC
33
33
ENDCHAR
STARTCHAR EFDF
ENCODING 61407
SWIDTH 960 0
DWIDTH 8 0
BBX 8 8 0 -1
BITMAP
CC
66
33
99
CC
66
33
99
ENDCHAR
STARTCHAR EFE0
ENCODING 61408
SWIDTH 960 0
DWIDTH 8 0
BBX 8 8 0 -1
BITMAP
FF
FF
FF
FF
FF
FF
FF
FF
ENDCHAR
STARTCHAR EFE1
ENCODING 61409
SWIDTH 960 0
DWIDTH 8 0
BBX 4 8 4 -1
BITMAP
F0
F0
F0
F0
F0
F0
F0
F0
ENDCHAR
STARTCHAR EFE2
ENCODING 61410
SWIDTH 960 0
DWIDTH 8 0
BBX 8 4 0 3
BITMAP
FF
FF
FF
FF
ENDCHAR
STARTCHAR EFE3
ENCODING 61411
SWIDTH 960 0
DWIDTH 8 0
BBX 8 7 0 -1
BITMAP
FF
FF
FF
FF
FF
FF
FF
ENDCHAR
STARTCHAR EFE4
ENCODING 61412
SWIDTH 960 0
DWIDTH 8 0
BBX 8 7 0 0
BITMAP
FF
FF
FF
FF
FF
FF
FF
ENDCHAR
STARTCHAR EFE5
ENCODING 61413
SWIDTH 960 0
DWIDTH 8 0
BBX 6 8 2 -1
BITMAP
FC
FC
FC
FC
FC
FC
FC
FC
ENDCHAR
STARTCHAR EFE6
ENCODING 61414
SWIDTH 960 0
DWIDTH 8 0
BBX 8 8 0 -1
BITMAP
33
33
CC
CC
33
33
CC
CC
ENDCHAR
STARTCHAR EFE7
ENCODING 61415
SWIDTH 960 0
DWIDTH 8 0
BBX 6 8 0 -1
BITMAP
FC
FC
FC
FC
FC
FC
FC
FC
ENDCHAR
STARTCHAR EFE8
ENCODING 61416
SWIDTH 960 0
DWIDTH 8 0
BBX 8 8 0 -1
BITMAP
FF
FF
FF
FF
33
33
CC
CC
ENDCHAR
STARTCHAR EFE9
ENCODING 61417
SWIDTH 960 0
DWIDTH 8 0
BBX 8 8 0 -1
BITMAP
33
66
CC
99
33
66
CC
99
ENDCHAR
STARTCHAR EFEA
ENCODING 61418
SWIDTH 960 0
DWIDTH 8 0
BBX 6 8 0 -1
BITMAP
FC
FC
FC
FC
FC
FC
FC
FC
ENDCHAR
STARTCHAR EFEB
ENCODING 61419
SWIDTH 960 0
DWIDTH 8 0
BBX 8 8 0 -1
BITMAP
E7
E7
E7
E0
E0
E7
E7
E7
ENDCHAR
STARTCHAR EFEC
ENCODING 61420
SWIDTH 960 0
DWIDTH 8 0
BBX 8 8 0 -1
BITMAP
FF
FF
FF
FF
F0
F0
F0
F0
ENDCHAR
STARTCHAR EFED
ENCODING 61421
SWIDTH 960 0
DWIDTH 8 0
BBX 8 8 0 -1
BITMAP
E7
E7
E7
E0
E0
FF
FF
FF
ENDCHAR
STARTCHAR EFEE
ENCODING 61422
SWIDTH 960 0
DWIDTH 8 0
BBX 8 8 0 -1
BITMAP
FF
FF
FF
07
07
E7
E7
E7
ENDCHAR
STARTCHAR EFEF
ENCODING 61423
SWIDTH 960 0
DWIDTH 8 0
BBX 8 6 0 1
BITMAP
FF
FF
FF
FF
FF
FF
ENDCHAR
STARTCHAR EFF0
ENCODING 61424
SWIDTH 960 0
DWIDTH 8 0
BBX 8 8 0 -1
BITMAP
FF
FF
FF
E0
E0
E7
E7
E7
ENDCHAR
STARTCHAR EFF1
ENCODING 61425
SWIDTH 960 0
DWIDTH 8 0
BBX 8 8 0 -1
BITMAP
E7
E7
E7
00
00
FF
FF
FF
ENDCHAR
STARTCHAR EFF2
ENCODING 61426
SWIDTH 960 0
DWIDTH 8 0
BBX 8 8 0 -1
BITMAP
FF
FF
FF
00
00
E7
E7
E7
ENDCHAR
STARTCHAR EFF3
ENCODING 61427
SWIDTH 960 0
DWIDTH 8 0
BBX 8 8 0 -1
BITMAP
E7
E7
E7
07
07
E7
E7
E7
ENDCHAR
STARTCHAR EFF4
ENCODING 61428
SWIDTH 960 0
DWIDTH 8 0
BBX 6 8 2 -1
BITMAP
FC
FC
FC
FC
FC
FC
FC
FC
ENDCHAR
STARTCHAR EFF5
ENCODING 61429
SWIDTH 960 0
DWIDTH 8 0
BBX 5 8 3 -1
BITMAP
F8
F8
F8
F8
F8
F8
F8
F8
ENDCHAR
STARTCHAR EFF6
ENCODING 61430
SWIDTH 960 0
DWIDTH 8 0
BBX 5 8 0 -1
BITMAP
F8
F8
F8
F8
F8
F8
F8
F8
ENDCHAR
STARTCHAR EFF7
ENCODING 61431
SWIDTH 960 0
DWIDTH 8 0
BBX 8 6 0 -1
BITMAP
FF
FF
FF
FF
FF
FF
ENDCHAR
STARTCHAR EFF8
ENCODING 61432
SWIDTH 960 0
DWIDTH 8 0
BBX 8 5 0 -1
BITMAP
FF
FF
FF
FF
FF
ENDCHAR
STARTCHAR EFF9
ENCODING 61433
SWIDTH 960 0
DWIDTH 8 0
BBX 8 5 0 2
BITMAP
FF
FF
FF
FF
FF
ENDCHAR
STARTCHAR EFFA
ENCODING 61434
SWIDTH 960 0
DWIDTH 8 0
BBX 8 8 0 -1
BITMAP
FE
FC
F9
93
87
8F
9F
FF
ENDCHAR
STARTCHAR EFFB
ENCODING 61435
SWIDTH 960 0
DWIDTH 8 0
BBX 8 8 0 -1
BITMAP
FF
FF
FF
FF
0F
0F
0F
0F
ENDCHAR
STARTCHAR EFFC
ENCODING 61436
SWIDTH 960 0
DWIDTH 8 0
BBX 8 8 0 -1
BITMAP
F0
F0
F0
F0
FF
FF
FF
FF
ENDCHAR
STARTCHAR EFFD
ENCODING 61437
SWIDTH 960 0
DWIDTH 8 0
BBX 8 8 0 -1
BITMAP
E7
E7
E7
07
07
FF
FF
FF
ENDCHAR
STARTCHAR EFFE
ENCODING 61438
SWIDTH 960 0
DWIDTH 8 0
BBX 8 8 0 -1
BITMAP
0F
0F
0F
0F
FF
FF
FF
FF
ENDCHAR
STARTCHAR EFFF
ENCODING 61439
SWIDTH 960 0
DWIDTH 8 0
BBX 8 8 0 -1
BITMAP
0F
0F
0F
0F
F0
F0
F0
F0
ENDCHAR
STARTCHAR F8FF
ENCODING 63743
SWIDTH 960 0
DWIDTH 8 0
BBX 8 8 0 0
BITMAP
BD
A5
C1
C3
E3
E7
E7
FF
ENDCHAR
ENDFONT
